<svg width="76" height="76" viewBox="0 0 76 76" fill="none" xmlns="http://www.w3.org/2000/svg">
<path d="M37.5449 75.91C58.2556 75.91 75.0449 59.1207 75.0449 38.41C75.0449 17.6993 58.2556 0.910004 37.5449 0.910004C16.8342 0.910004 0.0449219 17.6993 0.0449219 38.41C0.0449219 59.1207 16.8342 75.91 37.5449 75.91Z" fill="black"/>
<mask id="mask0_43:139" style="mask-type:alpha" maskUnits="userSpaceOnUse" x="5" y="23" width="13" height="15">
<path d="M5.99707 23.939V37.696H17.9601V23.939H5.99707Z" fill="white"/>
</mask>
<g mask="url(#mask0_43:139)">
<path fill-rule="evenodd" clip-rule="evenodd" d="M14.2168 32.036L11.9198 25.275L9.66282 32.036H14.2168ZM16.3568 37.696C16.2947 37.6926 16.2346 37.6726 16.1828 37.638C16.1178 37.598 16.0788 37.553 16.0658 37.5L14.7418 33.589H9.13682L7.83282 37.499C7.81634 37.5574 7.77803 37.6071 7.72582 37.638C7.67772 37.6731 7.62033 37.6933 7.56082 37.696H6.13982C6.11695 37.6974 6.09411 37.6928 6.07358 37.6826C6.05305 37.6724 6.03555 37.6571 6.02282 37.638C6.0098 37.6178 6.00128 37.595 5.99783 37.5712C5.99438 37.5474 5.99608 37.5231 6.00282 37.5L10.7328 24.135C10.7458 24.083 10.7848 24.037 10.8498 23.997C10.9019 23.9624 10.9624 23.9423 11.0248 23.939H12.9708C13.0228 23.939 13.0808 23.959 13.1468 23.997C13.2108 24.037 13.2498 24.083 13.2628 24.135L17.9528 37.5C17.9597 37.523 17.9616 37.5473 17.9583 37.5711C17.955 37.5949 17.9467 37.6177 17.9338 37.638C17.9212 37.6569 17.9038 37.6722 17.8835 37.6824C17.8632 37.6925 17.8405 37.6972 17.8178 37.696H16.3578H16.3568Z" fill="#FEFEFE"/>
</g>
<path fill-rule="evenodd" clip-rule="evenodd" d="M21.3196 36.281H24.7646C25.7116 36.281 26.4906 36.085 27.1006 35.691C27.7106 35.299 28.0156 34.611 28.0156 33.628C28.0156 33.182 27.9246 32.799 27.7426 32.478C27.5703 32.1668 27.3271 31.9006 27.0326 31.701C26.718 31.495 26.3682 31.3486 26.0006 31.269C25.5952 31.1764 25.1805 31.1304 24.7646 31.132H21.2226L21.3196 36.282V36.281ZM21.2226 29.737H24.7646C25.6346 29.737 26.3286 29.567 26.8476 29.226C27.3666 28.885 27.6256 28.334 27.6256 27.574C27.6256 26.814 27.3596 26.251 26.8276 25.884C26.2956 25.517 25.6076 25.334 24.7646 25.334H21.3196L21.2226 29.737ZM29.4356 35.485C29.1636 36.002 28.8006 36.425 28.3456 36.753C27.8916 37.08 27.3556 37.319 26.7406 37.47C26.1064 37.6228 25.456 37.6987 24.8036 37.696H19.6456C19.6181 37.6949 19.591 37.6882 19.5661 37.6764C19.5411 37.6645 19.5189 37.6477 19.5006 37.627C19.4798 37.6085 19.4629 37.5859 19.451 37.5606C19.4392 37.5353 19.4326 37.5079 19.4316 37.48L19.5286 30.62L19.4316 24.154C19.4316 24.102 19.4546 24.053 19.5006 24.007C19.5189 23.9864 19.5412 23.9698 19.5662 23.9581C19.5911 23.9464 19.6181 23.9399 19.6456 23.939H24.7846C26.1466 23.939 27.2626 24.217 28.1316 24.774C29.0016 25.331 29.4356 26.153 29.4356 27.24C29.4356 28.118 29.2156 28.806 28.7746 29.304C28.3326 29.802 27.7036 30.149 26.8866 30.346C27.8986 30.568 28.6416 30.968 29.1146 31.545C29.5886 32.121 29.8316 32.809 29.8446 33.608C29.8446 34.342 29.7086 34.968 29.4356 35.485ZM34.5446 39.03C35.3806 40.031 36.5126 40.533 37.9406 40.533C39.3676 40.533 40.4966 40.035 41.3266 39.039C42.1566 38.043 42.5726 36.674 42.5726 34.931C42.5726 33.188 42.1606 31.813 41.3366 30.804C40.5126 29.794 39.3736 29.291 37.9206 29.291C36.4806 29.291 35.3476 29.791 34.5246 30.794C33.7006 31.796 33.2886 33.175 33.2886 34.931C33.2886 36.661 33.7066 38.027 34.5436 39.029L34.5446 39.03ZM43.9736 37.859C43.6626 38.737 43.2236 39.484 42.6596 40.1C42.0849 40.7232 41.3808 41.213 40.5966 41.535C39.7866 41.875 38.8936 42.045 37.9206 42.045C36.9476 42.045 36.0586 41.875 35.2536 41.535C34.4734 41.2111 33.7729 40.7215 33.2006 40.1C32.6366 39.484 32.1986 38.734 31.8876 37.85C31.5756 36.965 31.4196 35.992 31.4196 34.93C31.4196 33.83 31.5756 32.838 31.8876 31.954C32.1986 31.069 32.6366 30.319 33.2006 29.704C33.7716 29.0833 34.4727 28.5964 35.2536 28.278C36.0586 27.944 36.9536 27.778 37.9406 27.778C38.9136 27.778 39.8016 27.944 40.6066 28.278C41.4106 28.613 42.0956 29.088 42.6596 29.703C43.2246 30.319 43.6626 31.069 43.9736 31.953C44.2846 32.838 44.4406 33.831 44.4406 34.931C44.4406 36.006 44.2846 36.981 43.9736 37.86V37.859ZM55.0466 36.507C54.2166 37.47 52.9646 37.952 51.2906 37.952C49.6166 37.952 48.3506 37.47 47.4956 36.507C46.6386 35.544 46.2166 34.204 46.2296 32.488L46.2496 28.204L46.1716 24.154C46.1727 24.1262 46.1792 24.0989 46.1909 24.0737C46.2026 24.0485 46.2191 24.0258 46.2396 24.007C46.258 23.9863 46.2805 23.9695 46.3056 23.9578C46.3307 23.9461 46.3579 23.9397 46.3856 23.939H47.8836C47.9356 23.939 47.9846 23.961 48.0296 24.007C48.0505 24.0255 48.0675 24.0481 48.0793 24.0734C48.0912 24.0987 48.0978 24.1261 48.0986 24.154L48.0206 28.164L48.0406 32.488C48.0406 33.654 48.2936 34.598 48.7996 35.318C49.3056 36.038 50.1356 36.399 51.2896 36.399C52.4706 36.399 53.3206 36.039 53.8396 35.319C54.3596 34.598 54.6186 33.654 54.6186 32.489V28.204L54.5606 24.154C54.5606 24.102 54.5826 24.053 54.6286 24.007C54.647 23.9863 54.6695 23.9695 54.6946 23.9578C54.7197 23.9461 54.7469 23.9397 54.7746 23.939H56.1366C56.1886 23.939 56.2366 23.961 56.2826 24.007C56.3033 24.0256 56.32 24.0483 56.3317 24.0735C56.3434 24.0988 56.3498 24.1262 56.3506 24.154L56.2926 28.204V32.488C56.2926 34.204 55.8766 35.544 55.0466 36.508" fill="#FEFEFE"/>
<mask id="mask1_43:139" style="mask-type:alpha" maskUnits="userSpaceOnUse" x="57" y="23" width="11" height="15">
<path d="M67.3848 37.696V23.938H57.6338V37.696H67.3848Z" fill="white"/>
</mask>
<g mask="url(#mask1_43:139)">
<path fill-rule="evenodd" clip-rule="evenodd" d="M61.7598 37.696C61.7321 37.6952 61.7049 37.6887 61.6798 37.677C61.6547 37.6653 61.6322 37.6487 61.6138 37.628C61.593 37.6092 61.5763 37.5864 61.5646 37.561C61.5529 37.5355 61.5465 37.508 61.5458 37.48L61.6628 30.877L61.5658 25.432H57.8478C57.82 25.431 57.7928 25.4244 57.7677 25.4126C57.7426 25.4007 57.7201 25.3838 57.7018 25.363C57.6811 25.3444 57.6644 25.3217 57.6527 25.2965C57.641 25.2712 57.6346 25.2438 57.6338 25.216V24.155C57.6338 24.102 57.6568 24.052 57.7018 24.007C57.7203 23.9861 57.7428 23.9691 57.7681 23.9572C57.7934 23.9454 57.8209 23.9388 57.8488 23.938H67.1718C67.2238 23.938 67.2718 23.961 67.3178 24.008C67.3386 24.0266 67.3554 24.0492 67.3672 24.0745C67.3791 24.0997 67.3857 24.1271 67.3868 24.155V25.216C67.3858 25.2439 67.3792 25.2713 67.3674 25.2966C67.3555 25.3219 67.3386 25.3445 67.3178 25.363C67.2995 25.384 67.2771 25.4011 67.252 25.4131C67.2269 25.4251 67.1996 25.4319 67.1718 25.433H63.4538L63.3568 30.877L63.4728 37.48C63.4719 37.508 63.4654 37.5354 63.4537 37.5609C63.442 37.5863 63.4254 37.6091 63.4048 37.628C63.3863 37.6486 63.3638 37.6653 63.3387 37.6769C63.3137 37.6886 63.2865 37.6951 63.2588 37.696H61.7588H61.7598Z" fill="#FEFEFE"/>
</g>
<mask id="mask2_43:139" style="mask-type:alpha" maskUnits="userSpaceOnUse" x="5" y="38" width="13" height="15">
<path d="M5.99707 38.678V52.435H17.9601V38.678H5.99707Z" fill="white"/>
</mask>
<g mask="url(#mask2_43:139)">
<path fill-rule="evenodd" clip-rule="evenodd" d="M14.2168 46.775L11.9198 40.014L9.66282 46.775H14.2168ZM16.3568 52.435C16.2947 52.4316 16.2346 52.4116 16.1828 52.377C16.1178 52.337 16.0788 52.292 16.0658 52.239L14.7418 48.328H9.13682L7.83282 52.238C7.81634 52.2964 7.77803 52.3461 7.72582 52.377C7.67772 52.4121 7.62033 52.4323 7.56082 52.435H6.13982C6.11695 52.4364 6.09411 52.4318 6.07358 52.4216C6.05305 52.4114 6.03555 52.3961 6.02282 52.377C6.0098 52.3568 6.00128 52.334 5.99783 52.3102C5.99438 52.2864 5.99608 52.2621 6.00282 52.239L10.7328 38.874C10.7458 38.822 10.7848 38.776 10.8498 38.736C10.9019 38.7014 10.9624 38.6814 11.0248 38.678H12.9708C13.0228 38.678 13.0808 38.698 13.1468 38.736C13.2108 38.776 13.2498 38.822 13.2628 38.874L17.9528 52.239C17.9597 52.262 17.9616 52.2863 17.9583 52.3101C17.955 52.3339 17.9467 52.3567 17.9338 52.377C17.9212 52.3959 17.9038 52.4112 17.8835 52.4214C17.8632 52.4315 17.8405 52.4362 17.8178 52.435H16.3578H16.3568Z" fill="#FEFEFE"/>
</g>
<path fill-rule="evenodd" clip-rule="evenodd" d="M21.3196 51.02H24.7646C25.7116 51.02 26.4906 50.824 27.1006 50.43C27.7106 50.038 28.0156 49.35 28.0156 48.367C28.0156 47.921 27.9246 47.538 27.7426 47.217C27.5702 46.9062 27.327 46.6403 27.0326 46.441C26.718 46.235 26.3682 46.0886 26.0006 46.009C25.5952 45.9161 25.1806 45.8698 24.7646 45.871H21.2226L21.3196 51.021V51.02ZM21.2226 44.476H24.7646C25.6346 44.476 26.3286 44.306 26.8476 43.965C27.3666 43.625 27.6256 43.073 27.6256 42.314C27.6256 41.554 27.3596 40.99 26.8276 40.624C26.2956 40.257 25.6076 40.074 24.7646 40.074H21.3196L21.2226 44.476ZM29.4356 50.224C29.1636 50.742 28.8006 51.164 28.3456 51.492C27.8916 51.82 27.3556 52.059 26.7406 52.209C26.1064 52.3618 25.456 52.4377 24.8036 52.435H19.6456C19.6181 52.434 19.5911 52.4275 19.5662 52.4158C19.5413 52.4041 19.519 52.3875 19.5006 52.367C19.4797 52.3483 19.4627 52.3256 19.4509 52.3001C19.439 52.2747 19.4324 52.2471 19.4316 52.219L19.5286 45.36L19.4316 38.894C19.4316 38.841 19.4546 38.792 19.5006 38.746C19.5189 38.7254 19.5412 38.7088 19.5662 38.6971C19.5911 38.6854 19.6181 38.6789 19.6456 38.678H24.7846C26.1466 38.678 27.2626 38.956 28.1316 39.513C29.0016 40.07 29.4356 40.893 29.4356 41.979C29.4356 42.858 29.2156 43.545 28.7746 44.043C28.3326 44.541 27.7036 44.888 26.8866 45.085C27.8986 45.308 28.6416 45.707 29.1146 46.284C29.5886 46.86 29.8316 47.548 29.8446 48.347C29.8446 49.081 29.7086 49.707 29.4356 50.224ZM34.5446 45.58C35.3806 46.582 36.5126 47.083 37.9406 47.083C39.3676 47.083 40.4966 46.585 41.3266 45.589C42.1566 44.594 42.5726 43.225 42.5726 41.482C42.5726 39.739 42.1606 38.363 41.3366 37.355C40.5126 36.345 39.3736 35.841 37.9206 35.841C36.4806 35.841 35.3476 36.343 34.5246 37.345C33.7006 38.347 33.2886 39.726 33.2886 41.482C33.2886 43.212 33.7066 44.578 34.5436 45.58H34.5446ZM43.9736 44.41C43.6626 45.288 43.2236 46.035 42.6596 46.651C42.0849 47.2742 41.3808 47.764 40.5966 48.086C39.7866 48.426 38.8936 48.596 37.9206 48.596C36.9476 48.596 36.0586 48.426 35.2536 48.086C34.4734 47.7621 33.7729 47.2725 33.2006 46.651C32.6366 46.035 32.1986 45.285 31.8876 44.401C31.5756 43.516 31.4196 42.543 31.4196 41.481C31.4196 40.381 31.5756 39.389 31.8876 38.504C32.1986 37.62 32.6366 36.87 33.2006 36.254C33.7717 35.6337 34.4728 35.1471 35.2536 34.829C36.0586 34.495 36.9536 34.329 37.9406 34.329C38.9136 34.329 39.8016 34.495 40.6066 34.829C41.3875 35.1472 42.0885 35.6337 42.6596 36.254C43.2246 36.87 43.6626 37.62 43.9736 38.504C44.2846 39.389 44.4406 40.381 44.4406 41.482C44.4406 42.556 44.2846 43.532 43.9736 44.411V44.41ZM55.0466 51.246C54.2166 52.21 52.9646 52.691 51.2906 52.691C49.6166 52.691 48.3506 52.21 47.4956 51.246C46.6386 50.283 46.2166 48.944 46.2296 47.227L46.2496 42.943L46.1716 38.893C46.1716 38.841 46.1946 38.793 46.2396 38.747C46.2578 38.7259 46.2802 38.7088 46.3053 38.6967C46.3304 38.6847 46.3578 38.678 46.3856 38.677H47.8836C47.9115 38.6778 47.9389 38.6845 47.964 38.6966C47.9892 38.7086 48.0115 38.7258 48.0296 38.747C48.0505 38.7655 48.0675 38.7881 48.0793 38.8134C48.0912 38.8387 48.0978 38.8661 48.0986 38.894L48.0206 42.904L48.0406 47.227C48.0406 48.393 48.2936 49.337 48.7996 50.057C49.3056 50.777 50.1356 51.138 51.2896 51.138C52.4706 51.138 53.3206 50.778 53.8396 50.058C54.3596 49.337 54.6186 48.393 54.6186 47.228V42.943L54.5606 38.893C54.5606 38.841 54.5826 38.793 54.6286 38.747C54.6468 38.7259 54.6692 38.7088 54.6943 38.6967C54.7194 38.6847 54.7468 38.678 54.7746 38.677H56.1366C56.1886 38.677 56.2366 38.7 56.2826 38.747C56.3033 38.7656 56.32 38.7883 56.3317 38.8135C56.3434 38.8388 56.3498 38.8662 56.3506 38.894L56.2926 42.943V47.227C56.2926 48.944 55.8766 50.283 55.0466 51.247" fill="#FEFEFE"/>
<mask id="mask3_43:139" style="mask-type:alpha" maskUnits="userSpaceOnUse" x="57" y="38" width="11" height="15">
<path d="M67.3848 52.435V38.677H57.6348V52.435H67.3848Z" fill="white"/>
</mask>
<g mask="url(#mask3_43:139)">
<path fill-rule="evenodd" clip-rule="evenodd" d="M61.7598 52.435C61.7321 52.4342 61.7049 52.4277 61.6798 52.416C61.6547 52.4043 61.6322 52.3877 61.6138 52.367C61.593 52.3482 61.5763 52.3254 61.5646 52.3C61.5529 52.2745 61.5465 52.247 61.5458 52.219L61.6628 45.616L61.5658 40.171H57.8478C57.82 40.17 57.7928 40.1634 57.7677 40.1516C57.7426 40.1397 57.7201 40.1228 57.7018 40.102C57.6811 40.0834 57.6644 40.0607 57.6527 40.0355C57.641 40.0102 57.6346 39.9828 57.6338 39.955V38.894C57.6338 38.841 57.6568 38.791 57.7018 38.746C57.7203 38.7251 57.7428 38.7081 57.7681 38.6962C57.7934 38.6844 57.8209 38.6778 57.8488 38.677H67.1718C67.2238 38.677 67.2718 38.7 67.3178 38.747C67.3386 38.7656 67.3554 38.7882 67.3672 38.8135C67.3791 38.8387 67.3857 38.8661 67.3868 38.894V39.955C67.3858 39.9829 67.3792 40.0103 67.3674 40.0356C67.3555 40.0609 67.3386 40.0835 67.3178 40.102C67.2995 40.123 67.2771 40.1401 67.252 40.1521C67.2269 40.1641 67.1996 40.1709 67.1718 40.172H63.4538L63.3568 45.616L63.4728 52.219C63.4719 52.247 63.4654 52.2745 63.4537 52.2999C63.442 52.3253 63.4254 52.3481 63.4048 52.367C63.3863 52.3876 63.3638 52.4043 63.3387 52.4159C63.3137 52.4276 63.2865 52.4341 63.2588 52.435H61.7588H61.7598Z" fill="#FEFEFE"/>
</g>
</svg>
