<svg version="1.1" id="DensityDesign_Logo" xmlns="http://www.w3.org/2000/svg" x="0" y="0" viewBox="0 0 80.6 93" style="enable-background:new 0 0 80.6 93" xml:space="preserve"><style>.st0{fill:#fff}</style><path class="st0" d="M67.6 9.7h13v2.1h-13zM24.6 23.5V0h7.6v3.4h-4v6.4h2.6V13h-2.6v7h4v3.5h-7.6zM54.8 23.5l-4-11.9-1.1-3.8v15.6h-2.4V0h2.3l3.6 12 1 3.8V0h2.4v23.5h-1.8zM26.4 58.6V35.1H30v23.5h-3.6zM7 92.6l-.4-1.2C6.1 92.5 5.1 93 4 93c-2.5 0-4-1.8-4-4.6v-15c0-2.5 2-4.6 4.5-4.6 2.6 0 4.4 2.1 4.4 4.6v4.3H5.6v-4.5c0-.5-.3-1-1-1-.6 0-1 .4-1 1v15.4c0 .6.4 1 1 1s1-.4 1-1v-4.8h-.9V81h4.4v11.6H7zM29.8 92.6 27.2 82l-.8-3.2v13.8h-3.1V69.1h3.5L29 79.7l.7 3.3V69.1h3.1v23.5h-3zM53.3 37.5v21.1h-2.5V37.5h-3.1v-2.4h8.7v2.4h-3.1zM75.2 49.3v9.3h-2.5v-9.3l-3.6-14.2h2.5L74.1 46l2.5-10.9H79l-3.8 14.2zM45.5 79h13v2.7h-13z"/><path class="st0" d="M50.6 73.9h2.7v13h-2.7zM2.9 23.5H.2V0h2.7c6.4 0 6.9 2.6 6.9 11.8 0 9.1-.5 11.7-6.9 11.7zm.8-3.5c2.4 0 2.6-.6 2.6-8.3s-.1-8.3-2.6-8.3V20zM6 45.6C4.5 43 3.7 42 3.7 39.3c0-.8.5-1.2 1.1-1.2s1 .4 1 1.2v1.8l3.1-.3v-1.1c0-3.1-1.6-4.9-4.1-4.9-3.2 0-4.7 2.4-4.7 5.3 0 2.7 1.9 6 3.2 8.1 1.4 2.4 2.2 4 2.2 6.1 0 .9-.4 1.4-1.2 1.4s-1.2-.5-1.2-1.4v-1.9l-3.2.3V54c0 3.1 1.7 4.9 4.5 4.9 2.3 0 4.5-1.5 4.5-5.2.2-2.7-1.4-5.5-2.9-8.1z"/></svg>