<?xml version="1.0" encoding="utf-8"?>
<!-- Generator: Adobe Illustrator 27.0.0, SVG Export Plug-In . SVG Version: 6.00 Build 0)  -->
<svg version="1.1" id="DensityDesign_Logo" xmlns="http://www.w3.org/2000/svg" xmlns:xlink="http://www.w3.org/1999/xlink" x="0px"
	 y="0px" viewBox="0 0 80.6 93" style="enable-background:new 0 0 80.6 93;" xml:space="preserve">
<style type="text/css">
	.st0{fill:#FFFFFF;}
</style>
<path class="st0" d="M67.6,9.7h13v2.1h-13V9.7z M24.6,23.5V0h7.6v3.4h-4v6.4h2.6V13h-2.6v7h4v3.5H24.6z M54.8,23.5l-4-11.9l-1.1-3.8
	v15.6h-2.4V0h2.3l3.6,12l1,3.8V0h2.4v23.5H54.8z M26.4,58.6V35.1H30v23.5H26.4z M7,92.6l-0.4-1.2C6.1,92.5,5.1,93,4,93
	c-2.5,0-4-1.8-4-4.6v-15c0-2.5,2-4.6,4.5-4.6c2.6,0,4.4,2.1,4.4,4.6v4.3H5.6v-4.5c0-0.5-0.3-1-1-1c-0.6,0-1,0.4-1,1v15.4
	c0,0.6,0.4,1,1,1s1-0.4,1-1v-4.8H4.7V81h4.4v11.6H7z M29.8,92.6L27.2,82l-0.8-3.2v13.8h-3.1V69.1h3.5L29,79.7l0.7,3.3V69.1h3.1v23.5
	H29.8z M53.3,37.5v21.1h-2.5V37.5h-3.1v-2.4h8.7v2.4C56.4,37.5,53.3,37.5,53.3,37.5z M75.2,49.3v9.3h-2.5v-9.3l-3.6-14.2h2.5
	L74.1,46l2.5-10.9H79L75.2,49.3z M45.5,79h13v2.7h-13V79z"/>
<path class="st0" d="M50.6,73.9h2.7v13h-2.7V73.9z M2.9,23.5H0.2V0h2.7c6.4,0,6.9,2.6,6.9,11.8C9.8,20.9,9.3,23.5,2.9,23.5z M3.7,20
	c2.4,0,2.6-0.6,2.6-8.3S6.2,3.4,3.7,3.4C3.7,3.4,3.7,20,3.7,20z M6,45.6C4.5,43,3.7,42,3.7,39.3c0-0.8,0.5-1.2,1.1-1.2s1,0.4,1,1.2
	v1.8l3.1-0.3v-1.1c0-3.1-1.6-4.9-4.1-4.9c-3.2,0-4.7,2.4-4.7,5.3c0,2.7,1.9,6,3.2,8.1c1.4,2.4,2.2,4,2.2,6.1c0,0.9-0.4,1.4-1.2,1.4
	s-1.2-0.5-1.2-1.4v-1.9l-3.2,0.3V54c0,3.1,1.7,4.9,4.5,4.9c2.3,0,4.5-1.5,4.5-5.2C9.1,51,7.5,48.2,6,45.6z"/>
</svg>
