<svg width="215" height="58" viewBox="0 0 215 58"  stroke="#ffffff" xmlns="http://www.w3.org/2000/svg">
<path d="M25.944 35.248L26.4327 35.3537L26.4365 35.3363L26.439 35.3187L25.944 35.248ZM7.256 30.32V29.82H6.74376L6.75615 30.3321L7.256 30.32ZM32.088 29.616H32.5881L32.5879 29.6042L32.088 29.616ZM31.512 35.248L31.0188 35.1658L31.0178 35.172L31.512 35.248ZM25.816 26.224V26.724H26.3346L26.3157 26.2057L25.816 26.224ZM7.448 26.224L6.95243 26.1576L6.87652 26.724H7.448V26.224ZM26.776 34.044C26.185 34.044 25.5538 34.4437 25.449 35.1773L26.439 35.3187C26.4622 35.1563 26.599 35.044 26.776 35.044V34.044ZM25.4553 35.1423C24.9602 37.4321 24.0129 39.1288 22.6565 40.2554C21.302 41.3804 19.4878 41.98 17.176 41.98V42.98C19.6642 42.98 21.722 42.3316 23.2955 41.0246C24.8671 39.7192 25.9038 37.7999 26.4327 35.3537L25.4553 35.1423ZM17.176 41.98C14.0621 41.98 11.7876 40.9689 10.2535 39.0625C8.70258 37.1351 7.85054 34.2215 7.75585 30.3079L6.75615 30.3321C6.85346 34.3545 7.72942 37.5209 9.47446 39.6895C11.2364 41.8791 13.8259 42.98 17.176 42.98V41.98ZM7.256 30.82H31.384V29.82H7.256V30.82ZM31.384 30.82C32.0441 30.82 32.588 30.2761 32.588 29.616H31.588C31.588 29.7239 31.4919 29.82 31.384 29.82V30.82ZM32.5879 29.6042C32.458 24.1195 30.9964 19.6576 28.297 16.5595C25.5882 13.4507 21.6821 11.772 16.792 11.772V12.772C21.4379 12.772 25.0518 14.3573 27.543 17.2165C30.0436 20.0864 31.462 24.2964 31.5881 29.6278L32.5879 29.6042ZM16.792 11.772C11.8924 11.772 7.89453 13.5851 5.12753 16.751C2.36689 19.9095 0.868 24.3716 0.868 29.616H1.868C1.868 24.5564 3.31311 20.3465 5.88047 17.409C8.44147 14.4789 12.1556 12.772 16.792 12.772V11.772ZM0.868 29.616C0.868 34.7256 2.25132 39.1423 4.9994 42.2889C7.75575 45.445 11.8374 47.268 17.112 47.268V46.268C12.0826 46.268 8.29225 44.539 5.7526 41.6311C3.20468 38.7137 1.868 34.5544 1.868 29.616H0.868ZM17.112 47.268C21.4031 47.268 24.8669 46.0216 27.3947 43.8859C29.9218 41.7508 31.4781 38.7564 32.0062 35.324L31.0178 35.172C30.5219 38.3956 29.0702 41.1612 26.7493 43.1221C24.4291 45.0824 21.2049 46.268 17.112 46.268V47.268ZM32.0052 35.3302C32.1165 34.6625 31.6499 34.044 30.936 34.044V35.044C30.9618 35.044 30.9771 35.0492 30.9852 35.0529C30.9935 35.0568 30.9993 35.0616 31.0039 35.0673C31.0113 35.0764 31.0289 35.1053 31.0188 35.1658L32.0052 35.3302ZM30.936 34.044H26.776V35.044H30.936V34.044ZM25.816 25.724H7.448V26.724H25.816V25.724ZM7.94357 26.2904C8.35113 23.2494 9.3154 20.9295 10.7799 19.3748C12.2331 17.8323 14.2226 16.996 16.792 16.996V15.996C13.9854 15.996 11.7189 16.9197 10.0521 18.6892C8.3966 20.4465 7.37687 22.9906 6.95243 26.1576L7.94357 26.2904ZM16.792 16.996C19.5957 16.996 21.6611 18.0563 23.0576 19.7141C24.4648 21.3847 25.2233 23.7003 25.3163 26.2423L26.3157 26.2057C26.2167 23.4997 25.4072 20.9513 23.8224 19.0699C22.2269 17.1757 19.8763 15.996 16.792 15.996V16.996ZM59.472 22.256L58.9751 22.3112L58.9759 22.319L58.977 22.3267L59.472 22.256ZM64.912 22.256L64.4134 22.294L64.4151 22.3162L64.4188 22.3382L64.912 22.256ZM43.088 35.248H42.588V35.2605L42.5886 35.273L43.088 35.248ZM37.456 35.248H36.956V35.2605L36.9566 35.273L37.456 35.248ZM66.5 36.528C66.5 32.9064 65.0299 30.6029 62.8098 29.1036C60.6316 27.6327 57.7605 26.9559 54.9826 26.4675C52.1549 25.9705 49.4559 25.6701 47.4217 24.9842C46.4148 24.6447 45.6313 24.228 45.1025 23.6909C44.5893 23.1697 44.292 22.5115 44.292 21.616H43.292C43.292 22.7685 43.6887 23.6803 44.39 24.3925C45.0757 25.089 46.0272 25.5693 47.1022 25.9318C49.2321 26.6499 52.0851 26.9735 54.8094 27.4524C57.5835 27.9401 60.2644 28.5913 62.2502 29.9324C64.1941 31.2451 65.5 33.2376 65.5 36.528H66.5ZM44.292 21.616C44.292 19.945 44.9401 18.7773 46.0735 18.0052C47.2363 17.2131 48.961 16.804 51.152 16.804V15.804C48.863 15.804 46.9077 16.2269 45.5105 17.1788C44.0839 18.1507 43.292 19.639 43.292 21.616H44.292ZM51.152 16.804C53.4273 16.804 55.2848 17.2726 56.6139 18.1808C57.926 19.0774 58.7661 20.4307 58.9751 22.3112L59.9689 22.2008C59.7299 20.0493 58.746 18.4266 57.1781 17.3552C55.6272 16.2954 53.5487 15.804 51.152 15.804V16.804ZM58.977 22.3267C59.0751 23.0135 59.5997 23.46 60.24 23.46V22.46C60.1613 22.46 60.1053 22.435 60.0668 22.4011C60.0291 22.3678 59.984 22.3042 59.967 22.1853L58.977 22.3267ZM60.24 23.46H64.272V22.46H60.24V23.46ZM64.272 23.46C64.912 23.46 65.5283 22.9127 65.4052 22.1738L64.4188 22.3382C64.4231 22.3643 64.4175 22.3863 64.3952 22.41C64.3695 22.4374 64.3255 22.46 64.272 22.46V23.46ZM65.4106 22.218C65.1432 18.7097 63.5458 16.0901 61.0095 14.3627C58.4914 12.6478 55.0857 11.836 51.216 11.836V12.836C54.9623 12.836 58.1486 13.6242 60.4465 15.1893C62.7262 16.7419 64.1687 19.0823 64.4134 22.294L65.4106 22.218ZM51.216 11.836C47.2507 11.836 43.8874 12.6797 41.5012 14.3852C39.0936 16.1062 37.724 18.676 37.724 22H38.724C38.724 18.988 39.9464 16.7258 42.0828 15.1988C44.2406 13.6563 47.3733 12.836 51.216 12.836V11.836ZM37.724 22C37.724 25.5026 39.2022 27.718 41.4215 29.1602C43.5972 30.5741 46.4656 31.2325 49.2394 31.7321C52.061 32.2403 54.7615 32.5832 56.7888 33.332C57.7924 33.7027 58.5774 34.1559 59.1093 34.7358C59.6286 35.3021 59.932 36.0161 59.932 36.976H60.932C60.932 35.7759 60.5414 34.8179 59.8462 34.0599C59.1637 33.3156 58.2136 32.7923 57.1352 32.394C54.9985 31.6048 52.147 31.2397 49.4166 30.7479C46.6384 30.2475 43.9548 29.6139 41.9664 28.3218C40.0218 27.058 38.724 25.1534 38.724 22H37.724ZM59.932 36.976C59.932 38.6311 59.2166 39.9028 57.9407 40.78C56.6441 41.6714 54.7392 42.172 52.368 42.172V43.172C54.8608 43.172 56.9879 42.6486 58.5073 41.604C60.0474 40.5452 60.932 38.9689 60.932 36.976H59.932ZM52.368 42.172C49.5102 42.172 47.3832 41.6048 45.9474 40.4856C44.53 39.3808 43.7101 37.6775 43.5874 35.223L42.5886 35.273C42.7219 37.9385 43.63 39.9472 45.3326 41.2743C47.0168 42.5872 49.4018 43.172 52.368 43.172V42.172ZM43.588 35.248C43.588 34.5879 43.0441 34.044 42.384 34.044V35.044C42.4919 35.044 42.588 35.1401 42.588 35.248H43.588ZM42.384 34.044H38.16V35.044H42.384V34.044ZM38.16 34.044C37.4999 34.044 36.956 34.5879 36.956 35.248H37.956C37.956 35.1401 38.0521 35.044 38.16 35.044V34.044ZM36.9566 35.273C37.1556 39.2521 38.8063 42.2603 41.5452 44.2598C44.2666 46.2467 48.0147 47.204 52.368 47.204V46.204C48.1453 46.204 44.6293 45.2733 42.1348 43.4522C39.6577 41.6437 38.1404 38.9239 37.9554 35.223L36.9566 35.273ZM52.368 47.204C56.2812 47.204 59.7989 46.2593 62.3532 44.4479C64.9224 42.6259 66.5 39.9351 66.5 36.528H65.5C65.5 39.5849 64.1016 41.9821 61.7748 43.6321C59.4331 45.2927 56.1348 46.204 52.368 46.204V47.204ZM78.587 29.232L78.087 29.2281V29.2282L78.587 29.232ZM78.779 18.352L78.2792 18.3381L79.2104 18.6049L78.779 18.352ZM78.907 13.744L79.407 13.7579V13.744H78.907ZM73.019 13.744H72.5189L72.5191 13.7511L73.019 13.744ZM73.275 31.664L73.7751 31.6692L73.7749 31.6569L73.275 31.664ZM73.019 56.176L72.519 56.1708V56.176H73.019ZM79.035 56.176H79.535L79.535 56.1718L79.035 56.176ZM78.907 41.072L79.3364 40.8159L78.3914 39.2316L78.407 41.0762L78.907 41.072ZM79.087 29.2359C79.1185 25.1705 80.0173 22.1545 81.529 20.1667C83.0266 18.1972 85.1619 17.188 87.803 17.188V16.188C84.8761 16.188 82.4353 17.3228 80.733 19.5613C79.0447 21.7815 78.1195 25.0375 78.087 29.2281L79.087 29.2359ZM87.803 17.188C90.7725 17.188 92.9186 18.4328 94.3452 20.6027C95.7904 22.8009 96.519 25.9862 96.519 29.872H97.519C97.519 25.8858 96.7756 22.4791 95.1808 20.0533C93.5674 17.5992 91.1055 16.188 87.803 16.188V17.188ZM96.519 29.872C96.519 33.4968 95.7922 36.5015 94.337 38.5858C92.8998 40.6444 90.7209 41.852 87.675 41.852V42.852C91.0291 42.852 93.5222 41.4996 95.157 39.1582C96.7738 36.8425 97.519 33.6072 97.519 29.872H96.519ZM87.675 41.852C84.9208 41.852 82.7891 40.7274 81.334 38.6272C79.8625 36.5034 79.0554 33.3391 79.087 29.2358L78.087 29.2282C78.0546 33.4449 78.8795 36.8406 80.512 39.1968C82.1609 41.5766 84.6052 42.852 87.675 42.852V41.852ZM103.407 29.424C103.407 24.5491 102.205 20.1776 99.8267 17.0117C97.4362 13.8298 93.88 11.9 89.275 11.9V12.9C93.566 12.9 96.8258 14.6822 99.0273 17.6123C101.241 20.5584 102.407 24.6989 102.407 29.424H103.407ZM89.275 11.9C84.3565 11.9 80.6108 14.2385 78.3476 18.0991L79.2104 18.6049C81.2992 15.0415 84.7215 12.9 89.275 12.9V11.9ZM79.2788 18.3659L79.4068 13.7579L78.4072 13.7301L78.2792 18.3381L79.2788 18.3659ZM79.407 13.744C79.407 13.0839 78.8631 12.54 78.203 12.54V13.54C78.3109 13.54 78.407 13.6361 78.407 13.744H79.407ZM78.203 12.54H73.723V13.54H78.203V12.54ZM73.723 12.54C73.0629 12.54 72.519 13.0839 72.519 13.744H73.519C73.519 13.6361 73.6151 13.54 73.723 13.54V12.54ZM72.5191 13.7511L72.775 31.6711L73.7749 31.6569L73.5189 13.7369L72.5191 13.7511ZM72.775 31.6588L72.519 56.1708L73.519 56.1812L73.775 31.6692L72.775 31.6588ZM72.519 56.176C72.519 56.8361 73.0629 57.38 73.723 57.38V56.38C73.6151 56.38 73.519 56.2839 73.519 56.176H72.519ZM73.723 57.38H78.331V56.38H73.723V57.38ZM78.331 57.38C78.9911 57.38 79.535 56.8361 79.535 56.176H78.535C78.535 56.2839 78.4389 56.38 78.331 56.38V57.38ZM79.535 56.1718L79.407 41.0678L78.407 41.0762L78.535 56.1802L79.535 56.1718ZM78.4776 41.3281C80.7515 45.1403 84.4426 47.14 89.211 47.14V46.14C84.7634 46.14 81.4145 44.2997 79.3364 40.8159L78.4776 41.3281ZM89.211 47.14C93.7284 47.14 97.2974 45.1393 99.7229 41.9082C102.139 38.69 103.407 34.2729 103.407 29.424H102.407C102.407 34.1111 101.179 38.302 98.9231 41.3078C96.6766 44.3007 93.3976 46.14 89.211 46.14V47.14ZM116.319 45.296H116.82L116.819 45.2902L116.319 45.296ZM116.063 23.28L115.563 23.274L115.564 23.2858L116.063 23.28ZM116.319 1.904L116.819 1.90999V1.904H116.319ZM110.431 1.904H109.931L109.932 1.90997L110.431 1.904ZM110.688 23.344L111.188 23.3498L111.187 23.338L110.688 23.344ZM110.431 45.296L109.931 45.2902V45.296H110.431ZM115.615 46.5C116.276 46.5 116.819 45.9561 116.819 45.296H115.819C115.819 45.4039 115.723 45.5 115.615 45.5V46.5ZM116.819 45.2902L116.563 23.2742L115.564 23.2858L115.82 45.3018L116.819 45.2902ZM116.563 23.286L116.819 1.90999L115.82 1.89801L115.564 23.274L116.563 23.286ZM116.819 1.904C116.819 1.24385 116.276 0.699997 115.615 0.699997V1.7C115.723 1.7 115.819 1.79614 115.819 1.904H116.819ZM115.615 0.699997H111.135V1.7H115.615V0.699997ZM111.135 0.699997C110.475 0.699997 109.931 1.24386 109.931 1.904H110.931C110.931 1.79614 111.028 1.7 111.135 1.7V0.699997ZM109.932 1.90997L110.188 23.35L111.187 23.338L110.931 1.89803L109.932 1.90997ZM110.188 23.3382L109.932 45.2902L110.931 45.3018L111.187 23.3498L110.188 23.3382ZM109.931 45.296C109.931 45.9561 110.475 46.5 111.135 46.5V45.5C111.028 45.5 110.931 45.4039 110.931 45.296H109.931ZM111.135 46.5H115.615V45.5H111.135V46.5ZM139.479 16.56V16.06L139.474 16.06L139.479 16.56ZM155.595 29.488C155.595 24.2189 154.18 19.785 151.43 16.6616C148.673 13.5295 144.623 11.772 139.479 11.772V12.772C144.383 12.772 148.141 14.4385 150.68 17.3224C153.226 20.215 154.595 24.3891 154.595 29.488H155.595ZM139.479 11.772C134.364 11.772 130.315 13.5471 127.551 16.7025C124.794 19.8493 123.363 24.3143 123.363 29.616H124.363C124.363 24.4857 125.748 20.2787 128.303 17.3615C130.851 14.4529 134.61 12.772 139.479 12.772V11.772ZM123.363 29.616C123.363 34.8866 124.795 39.3048 127.553 42.4119C130.318 45.527 134.367 47.268 139.479 47.268V46.268C134.607 46.268 130.848 44.617 128.301 41.7481C125.747 38.8712 124.363 34.7135 124.363 29.616H123.363ZM139.479 47.268C144.625 47.268 148.675 45.4935 151.431 42.3454C154.18 39.2063 155.595 34.757 155.595 29.488H154.595C154.595 34.5869 153.226 38.7777 150.679 41.6866C148.139 44.5865 144.381 46.268 139.479 46.268V47.268ZM130.315 29.616C130.315 25.5403 131.107 22.413 132.628 20.309C134.131 18.2304 136.389 17.0906 139.484 17.06L139.474 16.06C136.105 16.0934 133.531 17.3536 131.818 19.723C130.123 22.067 129.315 25.4357 129.315 29.616H130.315ZM139.479 17.06C142.537 17.06 144.777 18.1971 146.273 20.2833C147.787 22.396 148.579 25.5402 148.579 29.616H149.579C149.579 25.4358 148.771 22.052 147.085 19.7007C145.381 17.3229 142.821 16.06 139.479 16.06V17.06ZM148.579 29.616C148.579 33.6941 147.802 36.7872 146.299 38.8495C144.816 40.8844 142.578 41.98 139.479 41.98V42.98C142.844 42.98 145.406 41.7716 147.107 39.4385C148.788 37.1328 149.579 33.7939 149.579 29.616H148.579ZM139.479 41.98C136.413 41.98 134.157 40.8849 132.649 38.8466C131.122 36.7835 130.315 33.6903 130.315 29.616H129.315C129.315 33.7976 130.14 37.1365 131.845 39.4414C133.569 41.7711 136.145 42.98 139.479 42.98V41.98ZM168.186 45.296H168.686L168.686 45.2923L168.186 45.296ZM168.058 27.888L167.562 27.8254L167.558 27.8584L167.558 27.8917L168.058 27.888ZM180.858 17.648L180.737 18.1331L180.756 18.1379L180.776 18.1412L180.858 17.648ZM180.858 12.912L180.737 13.3971L180.756 13.4019L180.776 13.4052L180.858 12.912ZM167.866 19.312L167.367 19.289L168.305 19.551L167.866 19.312ZM168.122 13.744L168.621 13.767L168.622 13.7555V13.744H168.122ZM162.234 13.744H161.734L161.734 13.7502L162.234 13.744ZM162.426 29.168L162.926 29.174L162.926 29.1618L162.426 29.168ZM162.234 45.296L161.734 45.29V45.296H162.234ZM167.482 46.5C168.142 46.5 168.686 45.9561 168.686 45.296H167.686C167.686 45.4039 167.59 45.5 167.482 45.5V46.5ZM168.686 45.2923L168.558 27.8843L167.558 27.8917L167.686 45.2997L168.686 45.2923ZM168.554 27.9506C168.99 24.4975 170.319 22.0257 172.156 20.416C173.994 18.8047 176.382 18.02 179.002 18.02V17.02C176.182 17.02 173.546 17.8673 171.496 19.664C169.445 21.4623 168.022 24.1745 167.562 27.8254L168.554 27.9506ZM179.002 18.02C179.727 18.02 180.297 18.0232 180.737 18.1331L180.979 17.1629C180.395 17.0168 179.685 17.02 179.002 17.02V18.02ZM180.776 18.1412C181.1 18.1953 181.431 18.1167 181.683 17.8963C181.936 17.6756 182.062 17.3539 182.062 17.008H181.062C181.062 17.1101 181.028 17.1404 181.025 17.1437C181.021 17.1473 181 17.1647 180.94 17.1548L180.776 18.1412ZM182.062 17.008V13.68H181.062V17.008H182.062ZM182.062 13.68C182.062 13.364 181.912 13.0747 181.728 12.8678C181.54 12.6562 181.266 12.4732 180.94 12.4188L180.776 13.4052C180.834 13.4148 180.912 13.4558 180.98 13.5322C181.012 13.5682 181.035 13.6045 181.048 13.635C181.062 13.6664 181.062 13.6819 181.062 13.68H182.062ZM180.979 12.4269C180.417 12.2863 179.734 12.22 179.066 12.22V13.22C179.678 13.22 180.275 13.2816 180.737 13.3971L180.979 12.4269ZM179.066 12.22C174.288 12.22 169.888 14.5493 167.427 19.073L168.305 19.551C170.58 15.3707 174.628 13.22 179.066 13.22V12.22ZM168.365 19.335L168.621 13.767L167.623 13.721L167.367 19.289L168.365 19.335ZM168.622 13.744C168.622 13.0839 168.078 12.54 167.418 12.54V13.54C167.526 13.54 167.622 13.6361 167.622 13.744H168.622ZM167.418 12.54H162.938V13.54H167.418V12.54ZM162.938 12.54C162.278 12.54 161.734 13.0839 161.734 13.744H162.734C162.734 13.6361 162.83 13.54 162.938 13.54V12.54ZM161.734 13.7502L161.926 29.1742L162.926 29.1618L162.734 13.7378L161.734 13.7502ZM161.926 29.162L161.734 45.29L162.734 45.302L162.926 29.174L161.926 29.162ZM161.734 45.296C161.734 45.9561 162.278 46.5 162.938 46.5V45.5C162.83 45.5 162.734 45.4039 162.734 45.296H161.734ZM162.938 46.5H167.482V45.5H162.938V46.5ZM198.201 16.688V16.188H198.187L198.174 16.1887L198.201 16.688ZM199.929 16.752L199.808 17.2371L199.843 17.246L199.88 17.2496L199.929 16.752ZM207.993 29.808L208.493 29.8157L208.493 29.8121L207.993 29.808ZM213.561 45.296H214.061L214.061 45.288L213.561 45.296ZM213.305 29.232L212.805 29.2237L212.805 29.2318L212.805 29.24L213.305 29.232ZM213.561 13.744L214.061 13.7523V13.744H213.561ZM207.673 13.744H207.173V13.7514L207.173 13.7587L207.673 13.744ZM207.801 18.096L207.37 18.3489L208.301 18.0813L207.801 18.096ZM207.801 40.624L208.301 40.6377L207.368 40.3744L207.801 40.624ZM207.673 45.296L207.173 45.2823V45.296H207.673ZM190.061 29.168C190.061 25.6377 190.74 22.7059 192.092 20.6331C193.428 18.5835 195.442 17.3387 198.228 17.1873L198.174 16.1887C195.072 16.3573 192.766 17.7685 191.254 20.0869C189.758 22.3821 189.061 25.5303 189.061 29.168H190.061ZM198.201 17.188C198.361 17.188 198.724 17.188 199.078 17.1959C199.255 17.1998 199.426 17.2056 199.566 17.2141C199.636 17.2183 199.695 17.223 199.741 17.228C199.791 17.2335 199.81 17.2376 199.808 17.2371L200.05 16.2669C199.934 16.2379 199.769 16.2245 199.626 16.2159C199.468 16.2064 199.283 16.2002 199.1 16.1961C198.734 16.188 198.361 16.188 198.201 16.188V17.188ZM199.88 17.2496C202.311 17.4896 204.206 18.7101 205.504 20.8071C206.813 22.9229 207.525 25.9549 207.493 29.8039L208.493 29.8121C208.525 25.8531 207.797 22.6131 206.354 20.2809C204.9 17.9299 202.731 16.5263 199.978 16.2544L199.88 17.2496ZM207.493 29.8003C207.43 33.9028 206.546 36.9192 205.05 38.8985C203.57 40.8567 201.453 41.852 198.777 41.852V42.852C201.733 42.852 204.16 41.7353 205.848 39.5015C207.52 37.2888 208.428 34.0332 208.493 29.8157L207.493 29.8003ZM198.777 41.852C195.808 41.852 193.661 40.6072 192.235 38.4373C190.79 36.2391 190.061 33.0538 190.061 29.168H189.061C189.061 33.1542 189.804 36.5609 191.399 38.9867C193.013 41.4408 195.474 42.852 198.777 42.852V41.852ZM212.857 46.5C213.517 46.5 214.061 45.9561 214.061 45.296H213.061C213.061 45.4039 212.965 45.5 212.857 45.5V46.5ZM214.061 45.288L213.805 29.224L212.805 29.24L213.061 45.304L214.061 45.288ZM213.805 29.2403L214.061 13.7523L213.061 13.7357L212.805 29.2237L213.805 29.2403ZM214.061 13.744C214.061 13.0839 213.517 12.54 212.857 12.54V13.54C212.965 13.54 213.061 13.6361 213.061 13.744H214.061ZM212.857 12.54H208.377V13.54H212.857V12.54ZM208.377 12.54C207.717 12.54 207.173 13.0839 207.173 13.744H208.173C208.173 13.6361 208.269 13.54 208.377 13.54V12.54ZM207.173 13.7587L207.301 18.1107L208.301 18.0813L208.173 13.7293L207.173 13.7587ZM208.232 17.8431C205.959 13.9657 202.204 11.9 197.369 11.9V12.9C201.878 12.9 205.291 14.8023 207.37 18.3489L208.232 17.8431ZM197.369 11.9C192.852 11.9 189.283 13.9007 186.857 17.1318C184.441 20.35 183.173 24.7671 183.173 29.616H184.173C184.173 24.9289 185.401 20.738 187.657 17.7322C189.903 14.7393 193.182 12.9 197.369 12.9V11.9ZM183.173 29.616C183.173 34.4595 184.375 38.8304 186.753 42.0038C189.143 45.193 192.698 47.14 197.305 47.14V46.14C193.016 46.14 189.755 44.343 187.553 41.4042C185.339 38.4496 184.173 34.3085 184.173 29.616H183.173ZM197.305 47.14C202.225 47.14 205.971 44.8003 208.234 40.8736L207.368 40.3744C205.279 43.9997 201.857 46.14 197.305 46.14V47.14ZM207.301 40.6103L207.173 45.2823L208.173 45.3097L208.301 40.6377L207.301 40.6103ZM207.173 45.296C207.173 45.9561 207.717 46.5 208.377 46.5V45.5C208.269 45.5 208.173 45.4039 208.173 45.296H207.173ZM208.377 46.5H212.857V45.5H208.377V46.5Z"/>
</svg>
