<svg width="72" height="48" viewBox="0 0 72 48" fill="none" xmlns="http://www.w3.org/2000/svg">
<path d="M72 0H0V48H72V0Z" fill="#003F8A"/>
<path d="M49.9727 29.3357L50.5858 31.1705H52.5306L50.9451 32.3093L51.5582 34.1652L49.9727 33.0264L48.4084 34.1652L49.0003 32.3093L47.436 31.1705H49.3808L49.9727 29.3357Z" fill="#FECD00"/>
<path d="M22.1754 29.3357L22.7884 31.1705H24.7332L23.1478 32.3093L23.7608 34.1652L22.1754 33.0264L20.6111 34.1652L21.2241 32.3093L19.6387 31.1705H21.5835L22.1754 29.3357Z" fill="#FECD00"/>
<path d="M22.1754 13.3286L22.7884 15.1845H24.7332L23.1478 16.3234L23.7608 18.1582L22.1754 17.0193L20.6111 18.1582L21.2241 16.3234L19.6387 15.1845H21.5835L22.1754 13.3286Z" fill="#FECD00"/>
<path d="M49.9727 13.3286L50.5858 15.1845H52.5306L50.9451 16.3234L51.5582 18.1582L49.9727 17.0193L48.4084 18.1582L49.0003 16.3234L47.436 15.1845H49.3808L49.9727 13.3286Z" fill="#FECD00"/>
<path d="M28.0725 35.1986L28.6644 37.0334H30.6092L29.0449 38.1722L29.6368 40.0281L28.0725 38.8893L26.4871 40.0281L27.1001 38.1722L25.5146 37.0334H27.4595L28.0725 35.1986Z" fill="#FECD00"/>
<path d="M44.0963 35.1986L44.7093 37.0334H46.6541L45.0687 38.1722L45.6817 40.0281L44.0963 38.8893L42.532 40.0281L43.1239 38.1722L41.5596 37.0334H43.5044L44.0963 35.1986Z" fill="#FECD00"/>
<path d="M28.0725 7.46573L28.6644 9.30053H30.6092L29.0449 10.4394L29.6368 12.2953L28.0725 11.1564L26.4871 12.2953L27.1001 10.4394L25.5146 9.30053H27.4595L28.0725 7.46573Z" fill="#FECD00"/>
<path d="M44.0963 7.46573L44.7093 9.30053H46.6541L45.0687 10.4394L45.6817 12.2953L44.0963 11.1564L42.532 12.2953L43.1239 10.4394L41.5596 9.30053H43.5044L44.0963 7.46573Z" fill="#FECD00"/>
<path d="M52.1296 21.3427L52.7215 23.1775H54.6663L53.102 24.3164L53.6939 26.1511L52.1296 25.0123L50.5442 26.1511L51.1572 24.3164L49.5718 23.1775H51.5166L52.1296 21.3427Z" fill="#FECD00"/>
<path d="M20.0396 21.3427L20.6527 23.1775H22.5975L21.012 24.3164L21.6251 26.1511L20.0396 25.0123L18.4753 26.1511L19.0672 24.3164L17.5029 23.1775H19.4477L20.0396 21.3427Z" fill="#FECD00"/>
<path d="M36.0846 37.3286L36.6765 39.1634L38.6213 39.1845L37.057 40.3234L37.6489 42.1582L36.0846 41.0193L34.5203 42.1582L35.1122 40.3234L33.5479 39.1845L35.4927 39.1634L36.0846 37.3286Z" fill="#FECD00"/>
<path d="M36.0846 5.33566L36.6765 7.17046H38.6213L37.057 8.3093L37.6489 10.1652L36.0846 9.02635L34.5203 10.1652L35.1122 8.3093L33.5479 7.17046H35.4927L36.0846 5.33566Z" fill="#FECD00"/>
</svg>
