<?xml version="1.0" encoding="utf-8"?>
<!-- Generator: Adobe Illustrator 25.0.0, SVG Export Plug-In . SVG Version: 6.00 Build 0)  -->
<svg version="1.1" id="Layer_1" xmlns="http://www.w3.org/2000/svg" xmlns:xlink="http://www.w3.org/1999/xlink" x="0px" y="0px"
	 viewBox="0 0 63 63" style="enable-background:new 0 0 63 63;" xml:space="preserve">
<style type="text/css">
	.st0{fill-rule:evenodd;clip-rule:evenodd;fill:#FFFFFF;}
	.st1{fill:#555555;}
</style>
<path class="st0" d="M43.7,24.4c0,2-0.3,3.9-0.9,5.5c-0.6,1.7-1.4,3.1-2.5,4.2c-1.1,1.2-2.4,2.1-3.9,2.7c-1.6,0.6-3.3,1-5.1,1
	c-1.9,0-3.5-0.3-5-1c-1.5-0.6-2.8-1.6-3.9-2.7c-1.1-1.1-1.9-2.5-2.5-4.2c-0.6-1.6-0.9-3.4-0.9-5.5c0-2.1,0.3-3.9,0.9-5.6
	c0.6-1.7,1.4-3.1,2.5-4.2c1.1-1.2,2.4-2.1,3.9-2.7c1.5-0.6,3.2-1,5.1-1c1.9,0,3.6,0.3,5.1,0.9c1.5,0.6,2.8,1.5,3.9,2.7
	c1.1,1.1,1.9,2.5,2.5,4.2C43.4,20.5,43.7,22.3,43.7,24.4z M22.5,24.5c0,1.6,0.2,3.1,0.6,4.4c0.4,1.3,1,2.4,1.8,3.3
	c0.7,0.9,1.7,1.6,2.8,2.1c1.1,0.5,2.3,0.7,3.7,0.7c1.4,0,2.6-0.3,3.7-0.7c1.1-0.5,2-1.2,2.8-2.1c0.8-0.9,1.3-2,1.7-3.3
	c0.4-1.3,0.6-2.8,0.6-4.4c0-1.6-0.2-3.1-0.6-4.4c-0.4-1.3-1-2.4-1.7-3.3c-0.8-0.9-1.7-1.6-2.8-2.1c-1.1-0.5-2.3-0.7-3.7-0.7
	c-1.4,0-2.6,0.3-3.7,0.7c-1.1,0.5-2,1.2-2.8,2.1c-0.8,0.9-1.3,2-1.7,3.3C22.8,21.4,22.5,22.8,22.5,24.5L22.5,24.5z"/>
<path class="st0" d="M43.7,37.6c0,2-0.3,3.9-0.9,5.5c-0.6,1.7-1.4,3.1-2.5,4.2c-1.1,1.2-2.4,2.1-3.9,2.7c-1.6,0.6-3.3,1-5.1,1
	c-1.9,0-3.5-0.3-5-1c-1.5-0.6-2.8-1.6-3.9-2.7c-1.1-1.1-1.9-2.5-2.5-4.2c-0.6-1.6-0.9-3.4-0.9-5.5c0-2.1,0.3-3.9,0.9-5.6
	c0.6-1.7,1.4-3.1,2.5-4.2c1.1-1.2,2.4-2.1,3.9-2.7c1.5-0.6,3.2-0.9,5.1-0.9c1.9,0,3.6,0.3,5.1,0.9c1.5,0.6,2.8,1.5,3.9,2.7
	c1.1,1.1,1.9,2.5,2.5,4.2C43.4,33.7,43.7,35.5,43.7,37.6z M22.5,37.7c0,1.6,0.2,3.1,0.6,4.4c0.4,1.3,1,2.4,1.8,3.3
	c0.7,0.9,1.7,1.6,2.8,2.1c1.1,0.5,2.3,0.7,3.7,0.7c1.4,0,2.6-0.3,3.7-0.7c1.1-0.5,2-1.2,2.8-2.1c0.8-0.9,1.3-2,1.7-3.3
	c0.4-1.3,0.6-2.8,0.6-4.4c0-1.6-0.2-3.1-0.6-4.4c-0.4-1.3-1-2.4-1.7-3.3c-0.8-0.9-1.7-1.6-2.8-2.1c-1.1-0.5-2.4-0.7-3.7-0.7
	c-1.4,0-2.6,0.3-3.7,0.7c-1.1,0.5-2,1.2-2.8,2.1c-0.8,0.9-1.3,2-1.7,3.3C22.7,34.5,22.5,36,22.5,37.7L22.5,37.7L22.5,37.7z"/>
<rect x="62.5" y="0" class="st1" width="0.5" height="63"/>
</svg>
