<svg width="63" height="63" viewBox="0 0 63 63" fill="none" xmlns="http://www.w3.org/2000/svg">
<rect width="62" height="62" fill="#050500" stroke="#555555" stroke-width="0.5"/>
<path fill-rule="evenodd" clip-rule="evenodd" d="M43.7273 24.4183C43.7273 26.4582 43.4401 28.2749 42.8339 29.9323C42.2277 31.5896 41.3981 33.0239 40.3133 34.1394C39.2285 35.3187 37.9203 36.2112 36.3889 36.8167C34.8254 37.4542 33.1344 37.7729 31.3158 37.7729C29.4652 37.7729 27.7742 37.4542 26.2746 36.7849C24.775 36.1474 23.4669 35.2231 22.3821 34.0757C21.2972 32.9283 20.4677 31.5259 19.8615 29.8685C19.2872 28.2749 19 26.4263 19 24.4183C19 22.3466 19.2872 20.498 19.8934 18.8406C20.4677 17.1833 21.2972 15.7809 22.3821 14.6335C23.4669 13.4542 24.7431 12.5618 26.2746 11.9562C27.7742 11.3187 29.4652 11 31.3477 11C33.2301 11 34.9212 11.3187 36.4208 11.9243C37.9523 12.5618 39.2604 13.4542 40.3133 14.6016C41.3981 15.749 42.2277 17.1514 42.8339 18.8088C43.4082 20.4661 43.6954 22.3466 43.7273 24.4183ZM22.5416 24.4821C22.5416 26.1076 22.733 27.5737 23.1478 28.8805C23.5626 30.1872 24.1369 31.2709 24.9026 32.1952C25.6365 33.0876 26.5937 33.7888 27.7104 34.2669C28.7952 34.745 30.0076 35 31.3796 35C32.7515 35 33.964 34.745 35.0488 34.2669C36.1336 33.7888 37.0589 33.0876 37.8246 32.1952C38.5904 31.3028 39.1647 30.1872 39.5476 28.8805C39.9304 27.5737 40.1538 26.0757 40.1538 24.4502C40.1538 22.8247 39.9623 21.3267 39.5476 20.0199C39.1647 18.7131 38.5904 17.5976 37.8246 16.6733C37.0589 15.749 36.1336 15.0478 35.0488 14.5697C33.964 14.0916 32.7196 13.8367 31.3477 13.8367C29.9757 13.8367 28.7314 14.0916 27.6466 14.5697C26.5618 15.0478 25.6365 15.749 24.8707 16.6733C24.105 17.5657 23.5307 18.6813 23.1478 20.0199C22.7649 21.3586 22.5416 22.8247 22.5416 24.4502V24.4821Z" fill="white"/>
<path fill-rule="evenodd" clip-rule="evenodd" d="M43.7273 37.6454C43.7273 39.6852 43.4401 41.5019 42.8339 43.1593C42.2277 44.8167 41.3981 46.2509 40.3133 47.3665C39.2285 48.5458 37.9203 49.4382 36.3889 50.0438C34.8254 50.6812 33.1344 51 31.3158 51C29.4652 51 27.7742 50.6812 26.2746 50.0119C24.775 49.3745 23.4669 48.4501 22.3821 47.3027C21.2972 46.1553 20.4677 44.7529 19.8615 43.0956C19.2872 41.4701 19 39.6533 19 37.6135C19 35.5418 19.2872 33.6932 19.8934 32.0358C20.4677 30.3784 21.2972 28.9761 22.3821 27.8286C23.4669 26.6494 24.7431 25.7569 26.2746 25.1514C27.7742 24.5139 29.4971 24.2271 31.3477 24.2271C33.2301 24.2271 34.9212 24.5458 36.4208 25.1514C37.9523 25.7888 39.2604 26.6812 40.3133 27.8286C41.3981 28.9761 42.2277 30.3784 42.8339 32.0358C43.4082 33.6932 43.6954 35.5418 43.7273 37.6454ZM22.5416 37.6772C22.5416 39.3027 22.733 40.7689 23.1478 42.0756C23.5626 43.3824 24.1369 44.4661 24.9026 45.3904C25.6365 46.2828 26.5937 46.984 27.7104 47.4621C28.7952 47.9402 30.0076 48.1952 31.3796 48.1952C32.7515 48.1952 33.964 47.9402 35.0488 47.4621C36.1336 46.984 37.0589 46.2828 37.8246 45.3904C38.5904 44.498 39.1647 43.3824 39.5476 42.0756C39.9304 40.7689 40.1538 39.3027 40.1538 37.6454C40.1538 36.0199 39.9623 34.5219 39.5476 33.2151C39.1647 31.9083 38.5904 30.7928 37.8246 29.8685C37.0589 28.9442 36.1336 28.243 35.0488 27.7649C33.9321 27.2868 32.6877 27.0318 31.3158 27.0318C29.9438 27.0318 28.6995 27.2868 27.6147 27.7649C26.5299 28.243 25.6046 28.9442 24.8388 29.8685C24.0731 30.7609 23.4988 31.8764 23.1159 33.2151C22.733 34.5219 22.5097 36.0199 22.5097 37.6454V37.6772H22.5416Z" fill="white"/>
</svg>
