<svg width="207" height="143" viewBox="0 0 207 143" fill="none" xmlns="http://www.w3.org/2000/svg">
<path d="M14.0029 19.1984V17.2501H17.9806V4.66778H14.0029V2.67896H24.637V4.66778H20.6594V17.2501H24.637V19.1984H14.0029Z" fill="white"/>
<path d="M7.71176 30.2791H0V32.7549H7.71176V30.2791Z" fill="white"/>
<path d="M23.1759 30.2791H15.4641V32.7549H23.1759V30.2791Z" fill="white"/>
<path d="M38.6806 30.2791H30.9282V32.7549H38.6806V30.2791Z" fill="white"/>
<path d="M19.3201 60.5983C15.5048 60.5983 14.2466 59.1777 14.2466 55.5248V43.7948H16.9254V55.8901C16.9254 57.8789 17.8183 58.4472 19.3201 58.4472C20.7001 58.4472 21.7148 57.9195 21.7148 55.8901V43.7948H24.3936V55.5248C24.3936 59.056 22.8513 60.5983 19.3201 60.5983Z" fill="white"/>
<path d="M7.71176 71.4354H0V73.9113H7.71176V71.4354Z" fill="white"/>
<path d="M23.1759 71.4354H15.4641V73.9113H23.1759V71.4354Z" fill="white"/>
<path d="M38.6806 71.4354H30.9282V73.9113H38.6806V71.4354Z" fill="white"/>
<path d="M22.9324 101.471L22.1206 98.0207H16.5195L15.7077 101.471H12.8259L17.5342 84.9513H21.0653L25.7736 101.471H22.9324ZM19.32 86.4937L17.0471 95.8695H21.593L19.32 86.4937Z" fill="white"/>
<path d="M7.71176 112.551H0V115.027H7.71176V112.551Z" fill="white"/>
<path d="M23.1759 112.551H15.4641V115.027H23.1759V112.551Z" fill="white"/>
<path d="M38.6806 112.551H30.9282V115.027H38.6806V112.551Z" fill="white"/>
<path d="M20.9842 142.627H17.6965L12.5012 126.067H15.5453L19.32 140.882L23.1353 126.067H26.1795L20.9842 142.627Z" fill="white"/>
<path d="M84.4237 12.7042C83.6525 14.693 81.7448 15.7889 79.066 15.7889C77.1584 15.7889 75.6972 15.1801 74.8448 14.0842C74.1548 13.1912 73.9519 12.4201 73.9519 10.0659V1.2583H76.2654V10.0659C76.2654 11.6895 76.509 12.3795 76.9554 13.0695C77.4019 13.7189 78.2137 14.0842 79.269 14.0842C80.2837 14.0842 81.136 13.6783 81.7448 12.9477C82.3131 12.2577 82.4754 11.6489 82.4754 10.0659V1.2583H84.7484V9.90359C84.8295 11.2836 84.7078 12.0548 84.4237 12.7042Z" fill="white"/>
<path d="M93.8808 15.5048V8.84831C93.8808 8.03655 93.7997 7.59008 93.7185 7.34655C93.5967 7.02184 93.3532 6.85949 92.9473 6.85949C92.1761 6.85949 91.202 7.42773 90.2279 8.40184V15.4642H88.0361V5.03302H90.1873V6.4942C91.5267 5.35772 92.6632 4.83008 93.8403 4.83008C94.7738 4.83008 95.3826 5.15478 95.7073 5.92596C95.9508 6.53478 96.032 7.18419 96.032 8.56419V15.5048H93.8808Z" fill="white"/>
<path d="M100.537 2.63824C99.8068 2.63824 99.2385 2.02941 99.2385 1.29882C99.2385 0.568236 99.8068 0 100.537 0C101.227 0 101.796 0.608824 101.796 1.29882C101.796 2.07 101.227 2.63824 100.537 2.63824ZM99.4415 15.5047V5.07353H101.633V15.4641C101.633 15.5047 99.4415 15.5047 99.4415 15.5047Z" fill="white"/>
<path d="M109.467 15.5047H107.153L103.541 5.11414H105.935L108.411 13.0694L110.725 5.11414H112.957L109.467 15.5047Z" fill="white"/>
<path d="M118.031 15.7077C115.433 15.7077 113.931 13.7188 113.931 10.3906C113.931 7.02178 115.596 4.87061 118.315 4.87061C120.953 4.87061 122.374 6.73766 122.374 10.1065C122.374 10.35 122.374 10.4312 122.333 10.6747H116.245C116.286 12.8259 116.976 13.9218 118.396 13.9218C119.33 13.9218 120.344 13.4753 121.481 12.623L122.414 13.9218C120.791 15.1394 119.451 15.7077 118.031 15.7077ZM118.274 6.45355C117.097 6.45355 116.407 7.34649 116.204 9.13237H120.141C119.979 7.26531 119.411 6.45355 118.274 6.45355Z" fill="white"/>
<path d="M130.004 6.85955C128.949 6.94073 128.218 7.42779 127.163 8.68602V15.4643H124.971V5.07367H127.123V6.65661C128.259 5.35779 129.071 4.87073 130.329 4.78955V6.81896C130.207 6.85955 130.086 6.85955 130.004 6.85955Z" fill="white"/>
<path d="M134.347 15.7077C133.251 15.7077 132.358 15.5453 131.344 15.18L131.831 13.5159C132.805 13.9218 133.495 14.0841 134.388 14.0841C135.524 14.0841 136.255 13.5159 136.255 12.6635C136.255 12.0547 136.011 11.73 135.24 11.3647C134.834 11.1618 134.55 11.04 133.576 10.553C132.156 9.86296 131.587 9.09178 131.587 7.87414C131.587 6.08825 133.13 4.87061 135.484 4.87061C136.377 4.87061 137.026 4.95178 137.96 5.27649L137.554 6.90002C136.62 6.57531 136.093 6.45355 135.443 6.45355C134.469 6.45355 133.82 6.94061 133.82 7.63061C133.82 8.23943 134.063 8.48296 136.133 9.3759C137.757 10.0659 138.487 10.9588 138.487 12.3388C138.568 14.3277 136.904 15.7077 134.347 15.7077Z" fill="white"/>
<path d="M143.439 1.29882C143.439 0.527647 142.871 0 142.181 0C141.45 0 140.882 0.608824 140.882 1.29882C140.882 2.07 141.45 2.63824 142.181 2.63824C142.911 2.63824 143.439 2.07 143.439 1.29882ZM143.277 15.5047V5.07353H141.085V15.4641C141.085 15.5047 143.277 15.5047 143.277 15.5047Z" fill="white"/>
<path d="M149.162 15.7076C147.741 15.7076 147.173 14.9364 147.173 12.9476V6.61583H145.55V5.07348H147.173V2.2323H149.365V5.07348H152.165V6.61583H149.365V12.4199C149.365 13.5158 149.527 13.8811 149.974 13.8811C150.42 13.8811 150.907 13.6376 151.8 12.907L152.571 14.2058C151.191 15.2611 150.177 15.7076 149.162 15.7076Z" fill="white"/>
<path d="M159.512 15.5048V14.1248C158.416 15.1395 157.28 15.6671 156.224 15.6671C154.723 15.6671 153.708 14.4901 153.708 12.6636C153.708 11.0806 154.479 9.98477 156.022 9.37594C156.874 9.05124 157.889 8.84829 159.472 8.76712C159.472 8.72653 159.472 8.56418 159.472 8.52359C159.431 7.34653 159.39 7.22476 159.228 6.94065C158.984 6.61594 158.579 6.413 158.01 6.413C157.117 6.413 156.103 6.69712 154.804 7.34653L154.195 5.88535C155.656 5.11418 157.117 4.66771 158.416 4.66771C159.837 4.66771 160.77 5.033 161.257 5.80418C161.663 6.413 161.704 6.65653 161.704 8.483V9.01065V10.4718V15.383L159.512 15.5048ZM159.187 3.93712L155.21 1.583L156.306 0.121826L159.959 2.88183L159.187 3.93712ZM159.431 10.3501C159.35 10.3095 159.35 10.3095 159.309 10.3095C157.036 10.3906 155.94 11.1212 155.94 12.5418C155.94 13.3536 156.387 13.8406 157.077 13.8406C157.686 13.8406 158.579 13.3942 159.472 12.5418V10.3501H159.431Z" fill="white"/>
<path d="M170.755 15.5048V1.2583H173.109V15.5048H170.755Z" fill="white"/>
<path d="M182.607 15.5048V14.0436C181.348 15.1801 180.253 15.7077 179.035 15.7077C177.411 15.7077 176.721 14.7336 176.721 12.2577V5.07361H178.913V11.8518C178.913 13.2318 179.157 13.6377 179.847 13.6377C180.618 13.6377 181.511 13.1507 182.566 12.136V5.07361H184.758V15.4642C184.758 15.5048 182.607 15.5048 182.607 15.5048Z" fill="white"/>
<path d="M193.484 15.5048V14.0436C192.47 15.0583 191.333 15.586 190.237 15.586C188.695 15.586 187.721 14.4495 187.721 12.6636C187.721 10.1471 189.588 8.84831 193.444 8.80773C193.444 8.76714 193.444 8.60478 193.444 8.56419C193.403 7.34655 193.363 7.22478 193.2 6.94067C192.997 6.61596 192.592 6.41302 191.983 6.41302C191.09 6.41302 190.075 6.69714 188.817 7.34655L188.208 5.88537C189.669 5.1142 191.13 4.66772 192.429 4.66772C193.85 4.66772 194.783 5.03302 195.27 5.8042C195.676 6.41302 195.717 6.65655 195.717 8.48302V10.4718V15.383L193.484 15.5048ZM193.403 10.3501C193.322 10.3095 193.322 10.3095 193.282 10.3095C191.049 10.3907 189.913 11.1213 189.913 12.5418C189.913 13.3536 190.319 13.8407 191.009 13.8407C191.658 13.8407 192.51 13.3942 193.444 12.5418V10.3501H193.403Z" fill="white"/>
<path d="M203.51 15.5047H201.196L197.584 5.11414H199.978L202.454 13.0694L204.768 5.11414H207L203.51 15.5047Z" fill="white"/>
<path d="M79.5531 36.8135V35.4335C78.4572 36.57 77.5643 37.0165 76.306 37.0165C74.1954 37.0165 72.9778 35.1088 72.9778 31.7806C72.9778 28.2494 74.439 26.1388 76.9148 26.1388C78.0107 26.1388 78.7007 26.423 79.4719 27.1941V21.5524H81.6231V36.8135H79.5531ZM79.4719 29.1018C78.8225 28.3306 78.1325 27.9653 77.2801 27.9653C75.9813 27.9653 75.2913 29.2641 75.2913 31.74C75.2913 33.9724 75.9001 35.1088 76.9554 35.1088C77.8484 35.1088 78.6195 34.6624 79.4719 33.6477V29.1018Z" fill="white"/>
<path d="M86.2908 23.9877C85.5602 23.9877 84.9919 23.3789 84.9919 22.6483C84.9919 21.9177 85.6008 21.3495 86.2908 21.3495C86.9808 21.3495 87.549 21.9583 87.549 22.6483C87.549 23.4195 86.9808 23.9877 86.2908 23.9877ZM85.1949 36.8136V26.423H87.3866V36.8136H85.1949Z" fill="white"/>
<path d="M101.39 36.8136H99.2386L94.0027 22.5671H96.6815L100.416 33.8101L104.109 22.5671H106.463L101.39 36.8136Z" fill="white"/>
<path d="M110.765 37.0166C108.168 37.0166 106.666 35.0278 106.666 31.6996C106.666 28.3307 108.33 26.1796 111.05 26.1796C113.688 26.1796 115.068 28.0466 115.068 31.4154C115.068 31.659 115.068 31.7402 115.027 31.9837H108.939C108.98 34.1349 109.67 35.2307 111.09 35.2307C112.024 35.2307 113.038 34.7843 114.175 33.9319L115.108 35.2307C113.525 36.489 112.186 37.0166 110.765 37.0166ZM110.968 27.8031C109.791 27.8031 109.101 28.696 108.898 30.4819H112.835C112.673 28.5743 112.186 27.8031 110.968 27.8031Z" fill="white"/>
<path d="M123.51 36.8136V30.1977C123.51 29.386 123.429 28.9395 123.348 28.696C123.226 28.3713 122.983 28.2089 122.577 28.2089C121.805 28.2089 120.831 28.7772 119.898 29.7513V36.8136H117.706V26.423H119.857V27.8842C121.197 26.7477 122.333 26.2201 123.51 26.2201C124.444 26.2201 125.053 26.5448 125.377 27.316C125.621 27.9248 125.702 28.5742 125.702 29.9542V36.8948C125.743 36.8136 123.51 36.8136 123.51 36.8136Z" fill="white"/>
<path d="M132.399 37.0166C129.801 37.0166 128.3 35.0278 128.3 31.6996C128.3 28.3307 129.964 26.1796 132.683 26.1796C135.321 26.1796 136.742 28.0466 136.742 31.4154C136.742 31.659 136.742 31.7402 136.701 31.9837H130.613C130.654 34.1349 131.344 35.2307 132.764 35.2307C133.698 35.2307 134.712 34.7843 135.849 33.9319L136.782 35.2307C135.159 36.489 133.82 37.0166 132.399 37.0166ZM132.602 27.8031C131.425 27.8031 130.735 28.696 130.532 30.4819H134.469C134.347 28.5743 133.779 27.8031 132.602 27.8031Z" fill="white"/>
<path d="M138.203 36.8137V35.3119L143.155 27.9654H138.447V26.4231H145.712V27.9654L140.76 35.2713H145.834V36.8137H138.203Z" fill="white"/>
<path d="M150.461 22.6483C150.461 21.8771 149.893 21.3495 149.203 21.3495C148.472 21.3495 147.904 21.9583 147.904 22.6483C147.904 23.4195 148.513 23.9877 149.203 23.9877C149.893 23.9877 150.461 23.4195 150.461 22.6483ZM150.299 36.8136V26.423H148.107V36.8136C148.066 36.8136 150.299 36.8136 150.299 36.8136Z" fill="white"/>
<path d="M159.025 36.8136V35.3524C158.01 36.3672 156.874 36.8948 155.737 36.8948C154.195 36.8948 153.221 35.7583 153.221 33.9724C153.221 31.456 155.088 30.1572 158.944 30.1166C158.944 30.076 158.944 29.9136 158.944 29.873C158.903 28.6554 158.863 28.5336 158.7 28.2495C158.457 27.9248 158.092 27.7219 157.483 27.7219C156.59 27.7219 155.575 28.006 154.317 28.6554L153.708 27.1942C155.169 26.423 156.63 25.9766 157.929 25.9766C159.35 25.9766 160.283 26.3419 160.77 27.113C161.176 27.7219 161.217 27.9654 161.217 29.7919V31.7807V36.6919L159.025 36.8136ZM158.903 31.6589C158.822 31.6183 158.822 31.6183 158.782 31.6183C156.549 31.6995 155.413 32.4301 155.413 33.8507C155.413 34.6624 155.819 35.1495 156.509 35.1495C157.117 35.1495 158.01 34.703 158.903 33.8507V31.6589Z" fill="white"/>
</svg>
