<svg width="333" height="104" viewBox="0 0 333 104" fill="none" xmlns="http://www.w3.org/2000/svg">
<path d="M188.852 17.6127C188.525 18.6242 188.066 19.5168 187.41 20.2903C186.755 21.0638 186.034 21.6588 185.05 22.0754C184.133 22.4919 183.084 22.7299 181.904 22.7299C180.659 22.7299 179.544 22.4919 178.626 22.0159C177.709 21.5398 176.922 20.8853 176.332 19.9928L176.398 27.4306C176.398 27.4901 176.332 27.6091 176.267 27.6686C176.201 27.7281 176.07 27.7876 176.004 27.7876H173.513C173.448 27.7876 173.317 27.7281 173.251 27.6686C173.186 27.6091 173.12 27.4901 173.12 27.4306L173.251 15.3516L173.12 6.54524C173.12 6.48574 173.186 6.36674 173.251 6.30723C173.317 6.24773 173.448 6.18823 173.513 6.18823H175.939C176.004 6.18823 176.135 6.24773 176.201 6.30723C176.267 6.36674 176.332 6.48574 176.332 6.54524L176.267 8.80633C176.857 7.9138 177.643 7.19977 178.626 6.66425C179.61 6.12873 180.724 5.89072 181.97 5.89072C183.149 5.89072 184.264 6.12873 185.182 6.54524C186.099 6.96176 186.886 7.55678 187.476 8.33031C188.066 9.10384 188.59 9.93688 188.852 11.0079C189.18 12.0195 189.311 13.15 189.311 14.34C189.311 15.4706 189.18 16.6011 188.852 17.6127ZM177.381 18.9812C178.233 20.1118 179.479 20.7068 181.052 20.7068C182.756 20.7068 184.067 20.1118 184.919 18.9812C185.771 17.8507 186.165 16.3631 186.165 14.5781C186.165 12.674 185.771 11.0674 184.919 9.87737C184.067 8.68733 182.822 8.0923 181.117 8.0923C179.61 8.0923 178.43 8.62783 177.512 9.63936C176.594 10.7104 176.135 12.198 176.135 14.221C176.135 16.2441 176.529 17.8507 177.381 18.9812Z" fill="white"/>
<path d="M207.469 16.8391C207.535 16.8391 207.666 16.8986 207.731 16.9581C207.797 17.0176 207.797 17.1367 207.797 17.1962C207.535 18.8622 206.682 20.1713 205.371 21.2423C204.06 22.3134 202.225 22.8489 199.996 22.8489C198.62 22.8489 197.374 22.6109 196.325 22.1944C195.277 21.7778 194.359 21.1828 193.638 20.4688C192.917 19.7548 192.392 18.8622 191.999 17.7912C191.606 16.7796 191.475 15.5896 191.475 14.34C191.475 13.0905 191.671 11.9004 192.065 10.8889C192.458 9.81786 192.982 8.92533 193.703 8.2113C194.424 7.43777 195.277 6.90225 196.325 6.48573C197.374 6.06922 198.489 5.83121 199.8 5.83121C202.356 5.83121 204.388 6.60474 205.83 8.0923C207.272 9.63936 208.059 11.7219 208.125 14.34C208.125 14.3995 208.059 14.5186 207.993 14.5781C207.928 14.6376 207.797 14.6971 207.731 14.6971H194.621C194.687 16.6606 195.145 18.1482 196.063 19.1597C196.981 20.1713 198.292 20.7068 199.996 20.7068C201.307 20.7068 202.356 20.4093 203.143 19.8143C203.929 19.2192 204.454 18.3267 204.781 17.1367C204.781 17.0176 204.847 16.9581 204.978 16.8986C205.044 16.8391 205.175 16.7796 205.24 16.7796H207.469V16.8391ZM203.405 9.40135C202.618 8.44931 201.373 7.97329 199.8 7.97329C198.357 7.97329 197.178 8.38981 196.325 9.22284C195.473 10.0559 194.949 11.2459 194.687 12.7335H204.65C204.65 11.4839 204.192 10.3534 203.405 9.40135Z" fill="white"/>
<path d="M210.878 22.4919C210.812 22.4919 210.681 22.4324 210.615 22.3729C210.55 22.3134 210.484 22.1944 210.484 22.1349L210.615 14.1616L210.484 6.54526C210.484 6.48575 210.55 6.36675 210.615 6.30725C210.681 6.24774 210.812 6.18824 210.878 6.18824H213.303C213.369 6.18824 213.5 6.24774 213.565 6.30725C213.631 6.36675 213.696 6.48575 213.696 6.54526L213.565 9.28236C214.221 8.21132 215.073 7.37829 216.122 6.84277C217.171 6.30725 218.351 6.00974 219.596 6.00974C219.727 6.00974 219.924 6.00973 220.12 6.06924C220.317 6.06924 220.448 6.12874 220.579 6.12874C220.645 6.12874 220.776 6.18824 220.841 6.24774C220.907 6.30725 220.973 6.42625 220.973 6.48575V8.15182C220.973 8.27082 220.907 8.33033 220.841 8.38983C220.776 8.44933 220.645 8.44933 220.579 8.44933C220.448 8.44933 220.251 8.38983 220.12 8.38983C219.924 8.38983 219.793 8.38983 219.596 8.38983C218.154 8.38983 216.843 8.80635 215.728 9.63938C214.614 10.4724 213.893 11.7815 213.696 13.507L213.762 22.0754C213.762 22.1349 213.696 22.2539 213.631 22.3134C213.565 22.3729 213.434 22.4324 213.369 22.4324H210.878V22.4919Z" fill="white"/>
<path d="M227.986 15.1731L228.117 22.1349C228.117 22.1944 228.052 22.3134 227.986 22.3729C227.92 22.4324 227.789 22.4919 227.724 22.4919H225.167C225.102 22.4919 224.971 22.4324 224.905 22.3729C224.84 22.3134 224.774 22.1944 224.774 22.1349L224.905 15.1731V8.44933H222.48C222.414 8.44933 222.283 8.38983 222.218 8.33033C222.152 8.27083 222.086 8.15182 222.086 8.09232V6.60476C222.086 6.54526 222.152 6.42625 222.218 6.36675C222.283 6.30725 222.414 6.24775 222.48 6.24775H224.905V4.81969C224.905 3.92716 225.036 3.21313 225.298 2.5586C225.561 1.96358 225.954 1.42806 226.347 1.07104C226.806 0.714028 227.265 0.416516 227.855 0.238009C228.379 0.0595023 228.969 0 229.559 0C229.953 0 230.346 0 230.739 0.0595023C231.132 0.119005 231.526 0.178507 231.788 0.238009C231.854 0.238009 231.985 0.297512 232.05 0.416516C232.116 0.476019 232.181 0.595023 232.181 0.654526V2.14208C232.181 2.20159 232.116 2.32059 232.05 2.32059C231.985 2.38009 231.919 2.38009 231.854 2.38009C231.591 2.32059 231.395 2.32059 231.133 2.26109C230.87 2.20159 230.608 2.20159 230.28 2.20159C229.559 2.20159 228.969 2.4396 228.576 2.85611C228.183 3.27263 227.986 4.04616 227.986 5.0577V6.24775H231.788C231.854 6.24775 231.985 6.30725 232.05 6.36675C232.116 6.42625 232.181 6.54526 232.181 6.60476V8.09232C232.181 8.15182 232.116 8.27083 232.05 8.33033C231.985 8.38983 231.854 8.44933 231.788 8.44933H227.986V15.1731Z" fill="white"/>
<path d="M246.931 20.5283C245.489 22.0754 243.391 22.8489 240.638 22.8489C237.951 22.8489 235.853 22.0754 234.411 20.5283C232.903 18.9812 232.182 16.9582 232.182 14.3996C232.182 11.841 232.903 9.75837 234.411 8.21131C235.919 6.66425 237.951 5.89072 240.638 5.89072C243.326 5.89072 245.423 6.66425 246.931 8.21131C248.373 9.75837 249.16 11.841 249.16 14.34C249.16 16.8391 248.439 18.9217 246.931 20.5283ZM236.771 19.1002C237.623 20.2308 238.934 20.7663 240.704 20.7663C242.474 20.7663 243.719 20.2308 244.637 19.1002C245.489 17.9697 245.948 16.4226 245.948 14.3996C245.948 12.3765 245.489 10.8294 244.637 9.69887C243.785 8.56832 242.474 7.9733 240.704 7.9733C238.999 7.9733 237.688 8.56832 236.771 9.69887C235.919 10.8294 235.46 12.3765 235.46 14.3996C235.46 16.4226 235.853 17.9697 236.771 19.1002Z" fill="white"/>
<path d="M251.781 22.4919C251.716 22.4919 251.585 22.4324 251.519 22.3729C251.454 22.3134 251.388 22.1944 251.388 22.1349L251.519 14.1616L251.388 6.54526C251.388 6.48575 251.454 6.36675 251.519 6.30725C251.585 6.24774 251.716 6.18824 251.781 6.18824H254.207C254.272 6.18824 254.404 6.24774 254.469 6.30725C254.535 6.36675 254.6 6.48575 254.6 6.54526L254.469 9.28236C255.125 8.21132 255.977 7.37829 257.026 6.84277C258.074 6.30725 259.254 6.00974 260.5 6.00974C260.631 6.00974 260.828 6.00973 261.024 6.06924C261.221 6.06924 261.352 6.12874 261.483 6.12874C261.549 6.12874 261.68 6.18824 261.745 6.24774C261.811 6.30725 261.876 6.42625 261.876 6.48575V8.15182C261.876 8.27082 261.811 8.33033 261.745 8.38983C261.68 8.44933 261.549 8.44933 261.483 8.44933C261.352 8.44933 261.155 8.38983 261.024 8.38983C260.828 8.38983 260.696 8.38983 260.5 8.38983C259.058 8.38983 257.747 8.80635 256.632 9.63938C255.518 10.4724 254.797 11.7815 254.6 13.507L254.666 22.0754C254.666 22.1349 254.6 22.2539 254.535 22.3134C254.469 22.3729 254.338 22.4324 254.272 22.4324H251.781V22.4919Z" fill="white"/>
<path d="M266.596 16.1252L266.727 22.1349C266.727 22.1944 266.661 22.3134 266.596 22.3729C266.53 22.4324 266.399 22.4919 266.334 22.4919H263.777C263.712 22.4919 263.58 22.4324 263.515 22.3729C263.449 22.3134 263.384 22.1944 263.384 22.1349L263.515 16.1252L263.384 6.54528C263.384 6.48578 263.449 6.36678 263.515 6.30727C263.58 6.24777 263.712 6.18827 263.777 6.18827H266.137C266.202 6.18827 266.334 6.24777 266.399 6.30727C266.465 6.36678 266.53 6.48578 266.53 6.54528L266.399 8.92538C266.924 8.09234 267.71 7.37832 268.562 6.72379C269.48 6.12877 270.594 5.77175 271.905 5.77175C273.151 5.77175 274.265 6.06926 275.183 6.60478C276.101 7.19981 276.691 8.03284 277.084 9.16339C277.74 8.03284 278.526 7.19981 279.444 6.60478C280.362 6.00976 281.476 5.71225 282.721 5.71225C284.426 5.71225 285.802 6.24777 286.851 7.25931C287.834 8.33035 288.359 9.93692 288.359 12.1385V16.0062L288.424 22.0159C288.424 22.0754 288.359 22.1944 288.293 22.2539C288.228 22.3134 288.097 22.3729 288.031 22.3729H285.54C285.475 22.3729 285.343 22.3134 285.278 22.2539C285.212 22.1944 285.147 22.0754 285.147 22.0159L285.278 16.0062V12.2575C285.278 10.7699 284.95 9.6394 284.36 8.98488C283.705 8.33035 282.918 7.97334 281.869 7.97334C280.952 7.97334 280.034 8.33035 279.313 9.10388C278.526 9.87741 277.936 10.889 277.608 12.198V15.9467L277.74 21.9564C277.74 22.0159 277.674 22.1349 277.608 22.1944C277.543 22.2539 277.412 22.3134 277.346 22.3134H274.79C274.724 22.3134 274.593 22.2539 274.527 22.1944C274.462 22.1349 274.396 22.0159 274.396 21.9564L274.527 15.9467V12.198C274.527 10.7104 274.2 9.5799 273.61 8.92538C272.954 8.27085 272.168 7.91384 271.053 7.91384C270.004 7.91384 269.087 8.33035 268.3 9.22289C267.514 10.0559 266.924 11.3055 266.596 12.8525V16.1252Z" fill="white"/>
<path d="M291.768 22.4919C291.702 22.4919 291.571 22.4324 291.506 22.3729C291.44 22.3134 291.375 22.1943 291.375 22.1348L291.506 14.102L291.375 6.54523C291.375 6.48573 291.44 6.36672 291.506 6.30722C291.571 6.24772 291.702 6.18822 291.768 6.18822H294.259C294.324 6.18822 294.455 6.24772 294.521 6.30722C294.587 6.36672 294.652 6.48573 294.652 6.54523L294.521 14.0425L294.652 22.0753C294.652 22.1348 294.587 22.2538 294.521 22.3134C294.455 22.3729 294.324 22.4324 294.259 22.4324H291.768V22.4919ZM291.768 4.22464C291.702 4.22464 291.571 4.16514 291.506 4.10563C291.44 4.04613 291.375 3.92713 291.375 3.86762V1.42803C291.375 1.36853 291.44 1.24952 291.506 1.19002C291.571 1.13052 291.702 1.07101 291.768 1.07101H294.259C294.324 1.07101 294.455 1.13052 294.521 1.19002C294.587 1.24952 294.652 1.36853 294.652 1.42803V3.86762C294.652 3.92713 294.587 4.04613 294.521 4.10563C294.455 4.16514 294.324 4.22464 294.259 4.22464H291.768Z" fill="white"/>
<path d="M298.126 22.4919C298.061 22.4919 297.93 22.4324 297.864 22.3729C297.798 22.3134 297.733 22.1944 297.733 22.1349L297.864 15.0541L297.733 6.54529C297.733 6.48579 297.798 6.36678 297.864 6.30728C297.93 6.24778 298.061 6.18828 298.126 6.18828H300.42C300.486 6.18828 300.617 6.24778 300.683 6.30728C300.748 6.36678 300.814 6.48579 300.814 6.54529L300.683 8.92538C301.207 8.09235 301.994 7.37832 303.043 6.7238C304.026 6.06927 305.271 5.77176 306.648 5.77176C308.483 5.77176 309.925 6.30728 311.04 7.43782C312.089 8.50887 312.679 10.1154 312.679 12.2575V15.5301L312.744 22.1349C312.744 22.1944 312.679 22.3134 312.613 22.3729C312.547 22.4324 312.416 22.4919 312.351 22.4919H309.925C309.86 22.4919 309.729 22.4324 309.663 22.3729C309.598 22.3134 309.532 22.1944 309.532 22.1349L309.598 15.5301V12.436C309.598 11.008 309.27 9.93692 308.549 9.2229C307.828 8.50887 306.91 8.21136 305.796 8.21136C304.616 8.21136 303.567 8.62787 302.715 9.4609C301.863 10.2939 301.207 11.5435 300.879 13.0905V15.5301L300.945 22.1349C300.945 22.1944 300.879 22.3134 300.814 22.3729C300.748 22.4324 300.617 22.4919 300.552 22.4919H298.126Z" fill="white"/>
<path d="M329.001 26.776C327.625 28.0256 325.658 28.6801 323.102 28.6801C322.053 28.6801 321.135 28.6206 320.218 28.3826C319.3 28.2041 318.513 27.9066 317.858 27.4901C317.202 27.0736 316.612 26.5975 316.219 25.943C315.76 25.2885 315.563 24.5745 315.498 23.6819C315.498 23.6224 315.498 23.5034 315.563 23.4439C315.629 23.3844 315.76 23.3249 315.826 23.3249H318.186C318.317 23.3249 318.382 23.3844 318.513 23.4439C318.579 23.5034 318.644 23.5629 318.644 23.6819C318.775 24.634 319.3 25.348 320.152 25.824C321.004 26.3 322.053 26.538 323.233 26.538C324.741 26.538 325.986 26.1215 326.838 25.2885C327.69 24.4555 328.149 23.1464 328.149 21.3018V19.5168C327.559 20.4093 326.838 21.1233 325.855 21.5993C324.937 22.0754 323.823 22.3134 322.577 22.3134C321.332 22.3134 320.218 22.1349 319.3 21.7183C318.382 21.3018 317.53 20.7663 316.94 20.0523C316.285 19.3383 315.826 18.5052 315.498 17.4937C315.17 16.4821 315.039 15.4111 315.039 14.2806C315.039 13.15 315.236 12.079 315.563 11.0674C315.891 10.0559 316.416 9.16335 317.006 8.38982C317.661 7.61629 318.448 7.02127 319.365 6.60475C320.283 6.18824 321.332 5.95023 322.512 5.95023C323.757 5.95023 324.872 6.18824 325.789 6.66425C326.707 7.14027 327.494 7.8543 328.084 8.74684L328.018 6.54525C328.018 6.48575 328.084 6.36674 328.149 6.30724C328.215 6.24774 328.346 6.18823 328.412 6.18823H330.837C330.902 6.18823 331.034 6.24774 331.099 6.30724C331.165 6.36674 331.23 6.48575 331.23 6.54525L331.034 12.7335L331.099 21.3613C331.099 23.6819 330.444 25.467 329.001 26.776ZM319.365 18.7432C320.218 19.8143 321.529 20.3498 323.233 20.2903C324.675 20.2903 325.855 19.8143 326.773 18.8622C327.625 17.9102 328.084 16.4226 328.149 14.3996C328.149 12.4955 327.822 11.0079 327.035 9.87738C326.248 8.74684 325.134 8.15181 323.757 8.03281C323.692 8.03281 323.561 7.97331 323.299 7.97331H322.84C321.266 8.03281 320.087 8.62783 319.3 9.75838C318.513 10.8889 318.12 12.317 318.12 14.1615C318.054 16.1846 318.513 17.6722 319.365 18.7432Z" fill="white"/>
<path d="M190.295 49.4465C190.229 49.4465 190.098 49.387 190.033 49.3275C189.967 49.268 189.902 49.149 189.902 49.0895L189.967 46.7689C189.377 47.7209 188.59 48.4349 187.607 48.9705C186.624 49.506 185.51 49.744 184.264 49.744C183.084 49.744 181.97 49.506 181.052 49.0895C180.134 48.6729 179.348 48.0779 178.758 47.3044C178.168 46.5309 177.643 45.6383 177.381 44.6268C177.053 43.6152 176.922 42.4847 176.922 41.3541C176.922 40.2236 177.119 39.0931 177.447 38.022C177.775 37.0105 178.233 36.1179 178.889 35.3444C179.544 34.5709 180.265 33.9759 181.249 33.5593C182.166 33.1428 183.215 32.9048 184.395 32.9048C185.641 32.9048 186.755 33.1428 187.738 33.6188C188.722 34.0949 189.508 34.8089 190.098 35.7014L190.033 33.5593C190.033 33.4998 190.098 33.3808 190.164 33.3213C190.229 33.2618 190.36 33.2023 190.426 33.2023H192.851C192.917 33.2023 193.048 33.2618 193.114 33.3213C193.179 33.3808 193.245 33.4998 193.245 33.5593L193.114 41.1756L193.245 49.0895C193.245 49.149 193.179 49.268 193.114 49.3275C193.048 49.387 192.917 49.4465 192.851 49.4465H190.295ZM181.314 45.8168C182.166 47.0069 183.412 47.6019 185.116 47.6019C186.624 47.6019 187.869 47.0664 188.722 46.0548C189.639 45.0433 190.098 43.4962 190.098 41.4137C190.098 39.5096 189.77 37.9625 188.984 36.832C188.197 35.7014 187.148 35.1064 185.706 34.9279C185.641 34.9279 185.51 34.8684 185.247 34.8684H184.789C183.215 34.9279 182.035 35.5824 181.249 36.6535C180.462 37.784 180.134 39.2121 180.134 40.9971C180.069 43.0797 180.528 44.6268 181.314 45.8168Z" fill="white"/>
<path d="M196.391 49.4464C196.325 49.4464 196.194 49.3869 196.129 49.3274C196.063 49.2679 195.998 49.1489 195.998 49.0894L196.129 41.1161L195.998 33.4998C195.998 33.4403 196.063 33.3213 196.129 33.2618C196.194 33.2023 196.325 33.1428 196.391 33.1428H198.816C198.882 33.1428 199.013 33.2023 199.078 33.2618C199.144 33.3213 199.21 33.4403 199.21 33.4998L199.078 36.2369C199.734 35.1659 200.586 34.3328 201.635 33.7973C202.684 33.2618 203.864 32.9643 205.109 32.9643C205.24 32.9643 205.437 32.9643 205.634 33.0238C205.83 33.0238 205.961 33.0833 206.092 33.0833C206.158 33.0833 206.289 33.1428 206.355 33.2023C206.42 33.2618 206.486 33.3808 206.486 33.4403V35.1064C206.486 35.2254 206.42 35.2849 206.355 35.3444C206.289 35.4039 206.158 35.4039 206.092 35.4039C205.961 35.4039 205.765 35.3444 205.634 35.3444C205.437 35.3444 205.306 35.3444 205.109 35.3444C203.667 35.3444 202.356 35.7609 201.242 36.5939C200.127 37.427 199.406 38.736 199.21 40.4616L199.275 49.0299C199.275 49.0894 199.21 49.2084 199.144 49.2679C199.078 49.3274 198.947 49.3869 198.882 49.3869H196.391V49.4464Z" fill="white"/>
<path d="M217.498 48.9109C217.498 48.9704 217.433 49.0894 217.367 49.1489C217.302 49.2679 217.17 49.3274 217.105 49.3274C216.777 49.3869 216.384 49.5059 215.991 49.5655C215.597 49.625 215.204 49.6845 214.811 49.6845C213.5 49.6845 212.385 49.3274 211.402 48.6134C210.419 47.8994 209.96 46.6498 209.96 44.9243L210.025 35.4039H208.059C207.993 35.4039 207.862 35.3444 207.797 35.2849C207.731 35.2254 207.666 35.1064 207.666 35.0469V33.4998C207.666 33.4403 207.731 33.3213 207.797 33.2618C207.862 33.2023 207.993 33.1428 208.059 33.1428H210.025L209.96 29.3942C209.96 29.3347 210.025 29.2156 210.091 29.1561C210.156 29.0966 210.288 29.0371 210.353 29.0371H212.844C212.91 29.0371 213.041 29.0966 213.106 29.1561C213.172 29.2156 213.237 29.3347 213.237 29.3942L213.172 33.1428H217.236C217.302 33.1428 217.433 33.2023 217.498 33.2618C217.564 33.3213 217.629 33.4403 217.629 33.4998V35.1064C217.629 35.1659 217.564 35.2849 217.498 35.3444C217.433 35.4039 217.302 35.4634 217.236 35.4634H213.041L213.106 44.9243C213.106 45.8763 213.303 46.5308 213.631 46.9473C214.024 47.3044 214.548 47.4829 215.269 47.4829C215.597 47.4829 215.925 47.4829 216.253 47.4234C216.58 47.3639 216.843 47.3639 217.039 47.3044C217.105 47.3044 217.236 47.3044 217.302 47.3639C217.367 47.4234 217.433 47.4829 217.433 47.5424V48.9109H217.498Z" fill="white"/>
<path d="M233.624 46.8879C233.231 47.4829 232.706 48.0184 232.051 48.4349C231.395 48.8514 230.609 49.2084 229.691 49.387C228.773 49.625 227.79 49.744 226.741 49.744C224.447 49.744 222.546 49.2679 221.038 48.3159C219.53 47.3639 218.744 45.9953 218.678 44.0912C218.678 44.0317 218.744 43.9127 218.809 43.8532C218.875 43.7937 219.006 43.7342 219.072 43.7342H221.366C221.431 43.7342 221.562 43.7937 221.628 43.8532C221.694 43.9127 221.759 44.0317 221.759 44.0912C221.825 45.3408 222.284 46.2928 223.136 46.8879C223.988 47.4829 225.233 47.7804 226.807 47.7804C228.118 47.7804 229.166 47.5424 229.953 47.0664C230.74 46.5903 231.133 45.8763 231.133 44.9838C231.133 43.9127 230.477 43.2582 229.232 42.9607C227.986 42.6632 226.61 42.4252 225.102 42.1277C223.595 41.8897 222.218 41.4731 220.973 40.8781C219.727 40.2831 219.072 39.2121 219.072 37.546C219.072 35.9989 219.727 34.8089 221.038 33.9758C222.349 33.1428 224.053 32.7858 226.151 32.7858C228.183 32.7858 229.953 33.2023 231.33 33.9758C232.706 34.8089 233.493 35.9989 233.624 37.665C233.624 37.7245 233.624 37.8435 233.558 37.903C233.493 37.9625 233.362 38.022 233.296 38.022H231.133C231.067 38.022 230.936 37.9625 230.871 37.903C230.805 37.8435 230.74 37.784 230.74 37.665C230.609 36.6535 230.15 35.9394 229.363 35.4634C228.511 34.9874 227.528 34.7494 226.282 34.7494C225.102 34.7494 224.119 34.9874 223.398 35.4039C222.677 35.8204 222.284 36.4749 222.284 37.3675C222.284 38.379 222.939 39.0335 224.185 39.2716C225.43 39.5096 226.807 39.7476 228.314 39.9856C229.822 40.2236 231.199 40.6401 232.444 41.2351C233.689 41.8302 234.345 42.9607 234.345 44.6863C234.214 45.5788 234.017 46.2928 233.624 46.8879Z" fill="white"/>
<path d="M242.735 49.4464C242.67 49.4464 242.538 49.3869 242.473 49.3274C242.407 49.2679 242.342 49.1489 242.342 49.0894L242.473 41.0566L242.342 33.4998C242.342 33.4403 242.407 33.3213 242.473 33.2618C242.538 33.2023 242.67 33.1428 242.735 33.1428H245.226C245.292 33.1428 245.423 33.2023 245.488 33.2618C245.554 33.3213 245.619 33.4403 245.619 33.4998L245.488 41.0566L245.619 49.0894C245.619 49.1489 245.554 49.2679 245.488 49.3274C245.423 49.3869 245.292 49.4464 245.226 49.4464H242.735ZM242.735 31.1792C242.67 31.1792 242.538 31.1197 242.473 31.0602C242.407 31.0007 242.342 30.8817 242.342 30.8222V28.3826C242.342 28.3231 242.407 28.2041 242.473 28.1446C242.538 28.0851 242.67 28.0256 242.735 28.0256H245.226C245.292 28.0256 245.423 28.0851 245.488 28.1446C245.554 28.2041 245.619 28.3231 245.619 28.3826V30.8222C245.619 30.8817 245.554 31.0007 245.488 31.0602C245.423 31.1197 245.292 31.1792 245.226 31.1792H242.735Z" fill="white"/>
<path d="M249.094 49.4464C249.028 49.4464 248.897 49.3869 248.831 49.3274C248.766 49.2679 248.7 49.1489 248.7 49.0894L248.831 42.0087L248.7 33.4998C248.7 33.4403 248.766 33.3213 248.831 33.2618C248.897 33.2023 249.028 33.1428 249.094 33.1428H251.388C251.453 33.1428 251.584 33.2023 251.65 33.2618C251.716 33.3213 251.781 33.4403 251.781 33.4998L251.65 35.8799C252.174 35.0469 252.961 34.3329 254.01 33.6783C254.993 33.0238 256.239 32.7263 257.615 32.7263C259.451 32.7263 260.893 33.2618 262.007 34.3924C263.056 35.4634 263.646 37.07 263.646 39.212V42.4847L263.711 49.0894C263.711 49.1489 263.646 49.2679 263.58 49.3274C263.515 49.3869 263.384 49.4464 263.318 49.4464H260.893C260.827 49.4464 260.696 49.3869 260.631 49.3274C260.565 49.2679 260.499 49.1489 260.499 49.0894L260.565 42.4847V39.3905C260.565 37.9625 260.237 36.8915 259.516 36.1774C258.795 35.4634 257.877 35.1659 256.763 35.1659C255.583 35.1659 254.534 35.5824 253.682 36.4154C252.83 37.2485 252.174 38.498 251.847 40.0451V42.4847L251.912 49.0894C251.912 49.1489 251.847 49.2679 251.781 49.3274C251.716 49.3869 251.584 49.4464 251.519 49.4464H249.094Z" fill="white"/>
<path d="M273.217 49.4465C273.151 49.4465 273.02 49.387 272.955 49.3275C272.889 49.268 272.824 49.149 272.824 49.0895L273.02 38.2005L272.824 27.7281C272.824 27.6686 272.889 27.5496 272.955 27.4901C273.02 27.4306 273.151 27.3711 273.217 27.3711H275.774C275.839 27.3711 275.97 27.4306 276.036 27.4901C276.101 27.5496 276.167 27.6686 276.167 27.7281L275.97 38.2005L276.167 49.0895C276.167 49.149 276.101 49.268 276.036 49.3275C275.97 49.387 275.839 49.4465 275.774 49.4465H273.217Z" fill="white"/>
<path d="M289.146 48.9109C289.146 48.9704 289.081 49.0894 289.015 49.1489C288.949 49.2679 288.818 49.3274 288.753 49.3274C288.425 49.3869 288.032 49.5059 287.638 49.5655C287.245 49.625 286.852 49.6845 286.459 49.6845C285.148 49.6845 284.033 49.3274 283.05 48.6134C282.067 47.8994 281.608 46.6498 281.608 44.9243L281.673 35.4039H279.707C279.641 35.4039 279.51 35.3444 279.445 35.2849C279.379 35.2254 279.313 35.1064 279.313 35.0469V33.4998C279.313 33.4403 279.379 33.3213 279.445 33.2618C279.51 33.2023 279.641 33.1428 279.707 33.1428H281.673L281.608 29.3942C281.608 29.3347 281.673 29.2156 281.739 29.1561C281.804 29.0966 281.936 29.0371 282.001 29.0371H284.492C284.558 29.0371 284.689 29.0966 284.754 29.1561C284.82 29.2156 284.885 29.3347 284.885 29.3942L284.82 33.1428H288.884C288.95 33.1428 289.081 33.2023 289.146 33.2618C289.212 33.3213 289.277 33.4403 289.277 33.4998V35.1064C289.277 35.1659 289.212 35.2849 289.146 35.3444C289.081 35.4039 288.95 35.4634 288.884 35.4634H284.82L284.885 44.9243C284.885 45.8763 285.082 46.5308 285.41 46.9473C285.803 47.3044 286.327 47.4829 287.049 47.4829C287.376 47.4829 287.704 47.4829 288.032 47.4234C288.36 47.3639 288.622 47.3639 288.818 47.3044C288.884 47.3044 289.015 47.3044 289.081 47.3639C289.146 47.4234 289.212 47.4829 289.212 47.5424V48.9109H289.146Z" fill="white"/>
<path d="M303.894 49.4465C303.829 49.4465 303.698 49.387 303.632 49.3275C303.567 49.268 303.501 49.149 303.501 49.0895L303.567 46.7689C302.977 47.7209 302.19 48.4349 301.207 48.9705C300.224 49.506 299.109 49.744 297.864 49.744C296.684 49.744 295.569 49.506 294.652 49.0895C293.734 48.6729 292.947 48.0779 292.357 47.3044C291.767 46.5309 291.243 45.6383 290.981 44.6268C290.653 43.6152 290.522 42.4847 290.522 41.3541C290.522 40.2236 290.719 39.0931 291.046 38.022C291.374 37.0105 291.833 36.1179 292.489 35.3444C293.144 34.5709 293.865 33.9759 294.848 33.5593C295.766 33.1428 296.815 32.9048 297.995 32.9048C299.24 32.9048 300.355 33.1428 301.338 33.6188C302.321 34.0949 303.108 34.8089 303.698 35.7014L303.632 33.5593C303.632 33.4998 303.698 33.3808 303.763 33.3213C303.829 33.2618 303.96 33.2023 304.026 33.2023H306.451C306.516 33.2023 306.648 33.2618 306.713 33.3213C306.779 33.3808 306.844 33.4998 306.844 33.5593L306.713 41.1756L306.844 49.0895C306.844 49.149 306.779 49.268 306.713 49.3275C306.648 49.387 306.516 49.4465 306.451 49.4465H303.894ZM294.914 45.8168C295.766 47.0069 297.012 47.6019 298.716 47.6019C300.224 47.6019 301.469 47.0664 302.321 46.0548C303.239 45.0433 303.698 43.4962 303.698 41.4137C303.698 39.5096 303.37 37.9625 302.583 36.832C301.797 35.7014 300.748 35.1064 299.306 34.9279C299.24 34.9279 299.109 34.8684 298.847 34.8684H298.388C296.815 34.9279 295.635 35.5824 294.848 36.6535C294.062 37.784 293.734 39.2121 293.734 40.9971C293.668 43.0797 294.062 44.6268 294.914 45.8168Z" fill="white"/>
<path d="M311.368 49.4465C311.302 49.4465 311.171 49.387 311.106 49.3275C311.04 49.268 310.975 49.1489 310.975 49.0894L311.106 38.26L310.975 27.6686C310.975 27.6091 311.04 27.4901 311.106 27.4306C311.171 27.3711 311.302 27.3116 311.368 27.3116H313.793C313.859 27.3116 313.99 27.3711 314.056 27.4306C314.121 27.4901 314.187 27.6091 314.187 27.6686L313.99 38.26L314.121 49.0894C314.121 49.1489 314.056 49.268 313.99 49.3275C313.924 49.387 313.793 49.4465 313.728 49.4465H311.368Z" fill="white"/>
<path d="M324.937 54.5042C324.937 54.5637 324.872 54.6827 324.741 54.7422C324.61 54.8017 324.544 54.8612 324.413 54.8612H322.184C322.119 54.8612 322.053 54.8017 321.988 54.7422C321.922 54.6827 321.922 54.6232 321.922 54.5042L323.823 49.4465L316.809 33.4998C316.809 33.4403 316.809 33.3213 316.875 33.2618C316.94 33.2023 317.006 33.1428 317.071 33.1428H319.824C319.89 33.1428 320.021 33.2023 320.152 33.2618C320.283 33.3213 320.349 33.3808 320.349 33.4998L325.396 45.6978L329.723 33.4998C329.723 33.4403 329.788 33.3213 329.919 33.2618C330.05 33.2023 330.116 33.1428 330.247 33.1428H332.738C332.804 33.1428 332.869 33.2023 332.935 33.2618C333 33.3213 333 33.3808 333 33.4998L324.937 54.5042Z" fill="white"/>
<path d="M237.95 76.401C237.885 76.401 237.754 76.3415 237.688 76.282C237.623 76.2225 237.557 76.1035 237.557 76.044L237.688 65.4526L237.623 57.7768C236.967 58.3718 236.246 58.8478 235.394 59.2643C234.542 59.6808 233.69 60.0378 232.706 60.2759C232.641 60.2759 232.51 60.2759 232.444 60.2164C232.379 60.1568 232.313 60.0973 232.313 60.0378V58.2528C232.313 58.1933 232.379 58.0743 232.444 57.9553C232.51 57.8363 232.575 57.7768 232.706 57.7768C233.69 57.4197 234.607 57.0032 235.459 56.4082C236.312 55.8727 236.967 55.2182 237.557 54.5636C237.623 54.5041 237.688 54.3851 237.819 54.3851C237.95 54.3256 238.016 54.3256 238.147 54.3256H240.572C240.638 54.3256 240.769 54.3851 240.835 54.4446C240.9 54.5041 240.966 54.6231 240.966 54.6826L240.769 66.0476L240.966 76.1035C240.966 76.163 240.9 76.282 240.835 76.3415C240.769 76.401 240.638 76.4605 240.572 76.4605H237.95V76.401Z" fill="white"/>
<path d="M258.927 73.7829C257.288 75.8059 255.125 76.8175 252.437 76.8175C250.405 76.8175 248.766 76.3415 247.586 75.4489C246.406 74.5564 245.685 73.1878 245.423 71.4623C245.423 71.4028 245.489 71.2838 245.554 71.2243C245.62 71.1647 245.685 71.1052 245.816 71.1052H248.242C248.307 71.1052 248.438 71.1647 248.504 71.2243C248.569 71.2838 248.635 71.4028 248.635 71.4623C248.766 72.4143 249.225 73.1878 249.88 73.7234C250.536 74.2589 251.454 74.5564 252.634 74.5564C254.403 74.5564 255.715 73.8424 256.632 72.4143C257.55 70.9862 258.009 69.0227 258.009 66.4641C257.484 67.2971 256.698 67.9516 255.649 68.4276C254.6 68.9037 253.42 69.1417 252.109 69.1417C249.88 69.1417 248.045 68.4871 246.668 67.2376C245.292 65.9285 244.571 64.203 244.571 62.0609C244.571 60.9303 244.767 59.8593 245.161 58.8478C245.554 57.8362 246.144 57.0032 246.865 56.2892C247.586 55.5751 248.438 55.0396 249.487 54.6231C250.47 54.2066 251.585 54.0281 252.765 54.0281C255.452 54.0281 257.55 54.9801 259.058 56.8842C260.565 58.7883 261.352 61.5849 261.352 65.393C261.352 68.9037 260.565 71.7598 258.927 73.7829ZM249.159 65.393C249.946 66.3451 251.191 66.8211 252.765 66.8211C254.338 66.8211 255.583 66.3451 256.501 65.4525C257.419 64.56 257.878 63.3104 257.878 61.7634C257.878 60.2163 257.419 58.9073 256.567 57.8362C255.714 56.7652 254.469 56.2297 252.961 56.2297C251.388 56.2297 250.143 56.7057 249.29 57.6577C248.438 58.6098 247.979 59.9188 247.979 61.5849C247.914 63.1914 248.373 64.441 249.159 65.393Z" fill="white"/>
<path d="M277.15 74.497C275.577 76.044 273.545 76.7581 270.988 76.7581C268.563 76.7581 266.662 76.2225 265.351 75.092C264.04 73.9615 263.253 72.4739 263.057 70.6293C263.057 70.5698 263.057 70.4508 263.122 70.3913C263.188 70.3318 263.319 70.2723 263.384 70.2723H265.875C265.941 70.2723 266.072 70.3318 266.138 70.3913C266.203 70.4508 266.269 70.5698 266.269 70.6293C266.334 71.8194 266.793 72.7714 267.58 73.4854C268.366 74.1995 269.481 74.5565 270.923 74.5565C272.496 74.5565 273.741 74.021 274.659 72.9499C275.577 71.8789 276.036 70.3913 276.036 68.5467C276.036 66.7022 275.642 65.3336 274.79 64.3221C273.938 63.37 272.758 62.8345 271.185 62.8345C269.94 62.8345 268.956 63.132 268.17 63.6675C267.383 64.2031 266.859 64.9766 266.531 65.9286C266.531 66.0476 266.465 66.1071 266.334 66.1666C266.203 66.2261 266.138 66.2857 266.006 66.2857H263.909C263.843 66.2857 263.712 66.2261 263.647 66.1666C263.581 66.1071 263.516 65.9881 263.581 65.9286L264.368 54.6232C264.368 54.5637 264.433 54.4447 264.499 54.3852C264.564 54.3257 264.695 54.2662 264.761 54.2662H277.412C277.478 54.2662 277.609 54.3257 277.675 54.3852C277.74 54.4447 277.806 54.5637 277.806 54.6232V56.3488C277.806 56.4083 277.74 56.5273 277.675 56.5868C277.609 56.6463 277.478 56.7058 277.412 56.7058H267.121L266.596 62.656C267.252 61.942 268.039 61.466 268.891 61.1089C269.808 60.8114 270.792 60.6329 271.906 60.6329C272.955 60.6329 273.938 60.8114 274.921 61.1685C275.839 61.5255 276.626 62.061 277.281 62.7155C277.937 63.37 278.461 64.2031 278.854 65.1551C279.248 66.1071 279.444 67.1782 279.444 68.3682C279.576 70.9268 278.789 73.0094 277.15 74.497Z" fill="white"/>
<path d="M295.241 73.7829C293.603 75.8059 291.439 76.8175 288.752 76.8175C286.72 76.8175 285.081 76.3415 283.901 75.4489C282.721 74.5564 282 73.1878 281.738 71.4623C281.738 71.4028 281.803 71.2838 281.869 71.2243C281.935 71.1647 282 71.1052 282.131 71.1052H284.557C284.622 71.1052 284.753 71.1647 284.819 71.2243C284.884 71.2838 284.95 71.4028 284.95 71.4623C285.081 72.4143 285.54 73.1878 286.195 73.7234C286.851 74.2589 287.769 74.5564 288.949 74.5564C290.718 74.5564 292.029 73.8424 292.947 72.4143C293.865 70.9862 294.324 69.0227 294.324 66.4641C293.799 67.2971 293.013 67.9516 291.964 68.4276C290.915 68.9037 289.735 69.1417 288.424 69.1417C286.195 69.1417 284.36 68.4871 282.983 67.2376C281.607 65.9285 280.886 64.203 280.886 62.0609C280.886 60.9303 281.082 59.8593 281.476 58.8478C281.869 57.8362 282.459 57.0032 283.18 56.2892C283.901 55.5751 284.753 55.0396 285.802 54.6231C286.785 54.2066 287.9 54.0281 289.08 54.0281C291.767 54.0281 293.865 54.9801 295.373 56.8842C296.88 58.7883 297.667 61.5849 297.667 65.393C297.667 68.9037 296.88 71.7598 295.241 73.7829ZM285.474 65.393C286.261 66.3451 287.506 66.8211 289.08 66.8211C290.653 66.8211 291.898 66.3451 292.816 65.4525C293.734 64.56 294.193 63.3104 294.193 61.7634C294.193 60.2163 293.734 58.9073 292.882 57.8362C292.029 56.7652 290.784 56.2297 289.276 56.2297C287.703 56.2297 286.458 56.7057 285.605 57.6577C284.753 58.6098 284.294 59.9188 284.294 61.5849C284.229 63.1914 284.622 64.441 285.474 65.393Z" fill="white"/>
<path d="M314.646 75.8655C314.646 75.925 314.58 76.044 314.515 76.163C314.449 76.282 314.318 76.3415 314.252 76.3415C313.925 76.401 313.531 76.52 313.138 76.5795C312.745 76.6391 312.351 76.6986 311.958 76.6986C310.647 76.6986 309.533 76.3415 308.549 75.6275C307.566 74.9135 307.107 73.6639 307.107 71.9384L307.173 62.418H305.206C305.141 62.418 305.01 62.3585 304.944 62.299C304.879 62.2395 304.813 62.1205 304.813 62.061V60.5139C304.813 60.4544 304.879 60.3354 304.944 60.2759C305.01 60.2164 305.141 60.1569 305.206 60.1569H307.173L307.107 56.4083C307.107 56.3488 307.173 56.2297 307.238 56.1702C307.304 56.1107 307.435 56.0512 307.501 56.0512H309.992C310.057 56.0512 310.188 56.1107 310.254 56.1702C310.319 56.2297 310.385 56.3488 310.385 56.4083L310.319 60.1569H314.383C314.449 60.1569 314.58 60.2164 314.646 60.2759C314.711 60.3354 314.777 60.4544 314.777 60.5139V62.061C314.777 62.1205 314.711 62.2395 314.646 62.299C314.58 62.3585 314.449 62.418 314.383 62.418H310.319L310.385 71.8789C310.385 72.8309 310.581 73.4854 310.909 73.9019C311.303 74.259 311.827 74.4375 312.548 74.4375C312.876 74.4375 313.204 74.4375 313.531 74.378C313.859 74.3185 314.121 74.3185 314.318 74.259C314.383 74.259 314.515 74.259 314.58 74.3185C314.646 74.378 314.711 74.4375 314.711 74.497V75.8655H314.646Z" fill="white"/>
<path d="M329.788 74.4374C328.346 75.9845 326.248 76.758 323.495 76.758C320.808 76.758 318.71 75.9845 317.268 74.4374C315.76 72.8904 315.039 70.8673 315.039 68.3087C315.039 65.7501 315.76 63.6675 317.268 62.1205C318.775 60.5734 320.808 59.7999 323.495 59.7999C326.183 59.7999 328.28 60.5734 329.788 62.1205C331.23 63.6675 332.017 65.7501 332.017 68.2492C332.017 70.8078 331.296 72.8309 329.788 74.4374ZM319.628 73.0094C320.48 74.1399 321.791 74.6755 323.561 74.6755C325.331 74.6755 326.576 74.1399 327.494 73.0094C328.346 71.8788 328.805 70.3318 328.805 68.3087C328.805 66.2856 328.346 64.7386 327.494 63.608C326.642 62.4775 325.331 61.8824 323.561 61.8824C321.856 61.8824 320.545 62.4775 319.628 63.608C318.775 64.7386 318.317 66.2856 318.317 68.3087C318.317 70.3318 318.71 71.8788 319.628 73.0094Z" fill="white"/>
<path d="M276.035 103.356C275.97 103.356 275.839 103.296 275.773 103.237C275.708 103.177 275.642 103.058 275.642 102.999L275.773 92.4072L275.708 84.7313C275.052 85.3264 274.331 85.8024 273.479 86.2189C272.627 86.6354 271.775 86.9924 270.791 87.2304C270.726 87.2304 270.595 87.2304 270.529 87.1709C270.464 87.1114 270.398 87.0519 270.398 86.9924V85.2074C270.398 85.1479 270.464 85.0289 270.529 84.9099C270.595 84.7908 270.66 84.7313 270.791 84.7313C271.775 84.3743 272.692 83.9578 273.544 83.3628C274.397 82.8273 275.052 82.1727 275.642 81.5182C275.708 81.4587 275.773 81.3397 275.904 81.3397C276.035 81.2802 276.101 81.2802 276.232 81.2802H278.657C278.723 81.2802 278.854 81.3397 278.92 81.3992C278.985 81.4587 279.051 81.5777 279.051 81.6372L278.854 93.0022L279.051 103.058C279.051 103.118 278.985 103.237 278.92 103.296C278.854 103.356 278.723 103.415 278.657 103.415H276.035V103.356Z" fill="white"/>
<path d="M297.077 100.738C295.438 102.761 293.275 103.772 290.587 103.772C288.555 103.772 286.916 103.296 285.737 102.404C284.557 101.511 283.836 100.142 283.573 98.4169C283.573 98.3574 283.639 98.2384 283.704 98.1789C283.77 98.1194 283.836 98.0599 283.967 98.0599H286.392C286.458 98.0599 286.589 98.1194 286.654 98.1789C286.72 98.2384 286.785 98.3574 286.785 98.4169C286.916 99.3689 287.375 100.142 288.031 100.678C288.686 101.214 289.604 101.511 290.784 101.511C292.554 101.511 293.865 100.797 294.783 99.3689C295.7 97.9409 296.159 95.9773 296.159 93.4187C295.635 94.2517 294.848 94.9063 293.799 95.3823C292.751 95.8583 291.571 96.0963 290.26 96.0963C288.031 96.0963 286.195 95.4418 284.819 94.1922C283.442 92.8832 282.721 91.1576 282.721 89.0155C282.721 87.885 282.918 86.814 283.311 85.8024C283.704 84.7909 284.294 83.9578 285.015 83.2438C285.737 82.5298 286.589 81.9943 287.638 81.5778C288.621 81.1612 289.735 80.9827 290.915 80.9827C293.603 80.9827 295.7 81.9348 297.208 83.8388C298.716 85.7429 299.502 88.5395 299.502 92.3477C299.437 95.8583 298.65 98.7144 297.077 100.738ZM287.244 92.3477C288.031 93.2997 289.276 93.7757 290.85 93.7757C292.423 93.7757 293.668 93.2997 294.586 92.4072C295.504 91.5146 295.963 90.2651 295.963 88.718C295.963 87.171 295.504 85.8619 294.652 84.7909C293.799 83.7198 292.554 83.1843 291.046 83.1843C289.473 83.1843 288.227 83.6603 287.375 84.6124C286.523 85.5644 286.064 86.8735 286.064 88.5395C286.064 90.1461 286.458 91.3956 287.244 92.3477Z" fill="white"/>
<path d="M309.925 93.0022C308.68 96.1558 307.828 99.4879 307.238 102.999C307.238 103.058 307.172 103.177 307.041 103.237C306.976 103.296 306.844 103.356 306.779 103.356H304.091C304.026 103.356 303.895 103.296 303.829 103.237C303.764 103.177 303.764 103.058 303.764 102.999C304.091 101.273 304.485 99.5474 304.943 97.8219C305.402 96.0963 305.927 94.4302 306.517 92.7642C307.107 91.1576 307.762 89.551 308.483 88.004C309.204 86.4569 309.991 85.0289 310.843 83.6603H300.027C299.962 83.6603 299.83 83.6008 299.765 83.5413C299.699 83.4818 299.634 83.3628 299.634 83.3033V81.5777C299.634 81.5182 299.699 81.3992 299.765 81.3397C299.83 81.2802 299.962 81.2207 300.027 81.2207H313.924C313.989 81.2207 314.121 81.2802 314.186 81.3397C314.252 81.3992 314.317 81.5182 314.317 81.5777V83.3033C314.317 83.4223 314.317 83.5413 314.252 83.6603C314.186 83.7793 314.186 83.8983 314.121 83.9578C312.547 86.8139 311.171 89.8485 309.925 93.0022Z" fill="white"/>
<path d="M329.067 100.738C327.428 102.761 325.265 103.772 322.577 103.772C320.545 103.772 318.906 103.296 317.726 102.404C316.546 101.511 315.825 100.142 315.563 98.4169C315.563 98.3574 315.629 98.2384 315.694 98.1789C315.76 98.1194 315.825 98.0599 315.956 98.0599H318.382C318.447 98.0599 318.578 98.1194 318.644 98.1789C318.71 98.2384 318.775 98.3574 318.775 98.4169C318.906 99.3689 319.365 100.142 320.021 100.678C320.676 101.214 321.594 101.511 322.774 101.511C324.478 101.511 325.855 100.797 326.772 99.3689C327.69 97.9409 328.149 95.9773 328.149 93.4187C327.625 94.2517 326.838 94.9063 325.789 95.3823C324.74 95.8583 323.56 96.0963 322.249 96.0963C320.021 96.0963 318.185 95.4418 316.809 94.1922C315.432 92.8832 314.711 91.1576 314.711 89.0155C314.711 87.885 314.908 86.814 315.301 85.8024C315.694 84.7909 316.284 83.9578 317.005 83.2438C317.726 82.5298 318.578 81.9943 319.627 81.5778C320.611 81.1612 321.725 80.9827 322.905 80.9827C325.592 80.9827 327.69 81.9348 329.198 83.8388C330.705 85.7429 331.492 88.5395 331.492 92.3477C331.492 95.8583 330.705 98.7144 329.067 100.738ZM319.3 92.3477C320.086 93.2997 321.332 93.7757 322.905 93.7757C324.478 93.7757 325.724 93.2997 326.641 92.4072C327.559 91.5146 328.018 90.2651 328.018 88.718C328.018 87.171 327.559 85.8619 326.707 84.7909C325.855 83.7198 324.609 83.1843 323.101 83.1843C321.528 83.1843 320.283 83.6603 319.431 84.6124C318.578 85.5644 318.12 86.8735 318.12 88.5395C318.054 90.1461 318.513 91.3956 319.3 92.3477Z" fill="white"/>
<path d="M0.786614 52.6596C0.589961 52.6596 0.393307 52.6001 0.262205 52.4216C0.0655512 52.2431 0 52.1241 0 51.9455L0.393307 28.9776L0 6.72376C0 6.54526 0.0655512 6.36675 0.262205 6.24774C0.458858 6.06924 0.589961 6.00974 0.786614 6.00974H6.22736C6.42402 6.00974 6.62067 6.06924 6.75177 6.24774C6.94843 6.42625 7.01398 6.54526 7.01398 6.72376L6.62067 28.9181L7.01398 51.886C7.01398 52.0645 6.94843 52.2431 6.75177 52.3621C6.55512 52.5406 6.42402 52.6001 6.22736 52.6001H0.786614V52.6596Z" fill="white"/>
<path d="M21.3695 33.2023L21.435 51.9455C21.435 52.1241 21.3695 52.3026 21.1728 52.4216C20.9761 52.6001 20.845 52.6596 20.6484 52.6596H15.6665C15.4698 52.6596 15.2732 52.6001 15.1421 52.4216C14.9454 52.2431 14.8799 52.1241 14.8799 51.9455L15.2732 29.0371L14.8799 6.78327C14.8799 6.60476 14.9454 6.42625 15.1421 6.30725C15.3387 6.12874 15.4698 6.06924 15.6665 6.06924H22.1561C22.4183 6.06924 22.6149 6.12874 22.8771 6.24774C23.0738 6.36675 23.2704 6.48575 23.4015 6.66426L50.212 44.7458L50.1464 40.6996L50.0153 26.062L49.8187 6.72376C49.8187 6.54526 49.8842 6.36675 50.0809 6.24774C50.2775 6.06924 50.4086 6.00974 50.6053 6.00974H55.5872C55.7838 6.00974 55.9805 6.06924 56.1116 6.24774C56.3082 6.42625 56.3738 6.54526 56.3738 6.72376L55.9805 28.9776L56.3738 51.9455C56.3738 52.1241 56.3082 52.3026 56.1116 52.4216C55.9149 52.6001 55.7838 52.6596 55.5872 52.6596H48.8354C48.5732 52.6596 48.3765 52.6001 48.1143 52.4811C47.9177 52.3621 47.721 52.2431 47.5899 52.0646L21.0417 14.5186L21.1728 19.5168L21.3695 33.2023Z" fill="white"/>
<path d="M100.556 49.2679C96.6883 52.0645 91.8375 53.4926 86.0035 53.4926C78.5306 53.4926 72.631 51.3505 68.3702 47.0068C64.1094 42.6632 62.0117 36.7724 62.0117 29.2751C62.0117 25.6455 62.6017 22.3134 63.716 19.3383C64.8304 16.3631 66.4036 13.8045 68.5013 11.722C70.5334 9.63937 73.0899 8.03281 76.0397 6.90227C79.055 5.77172 82.3326 5.1767 86.0035 5.1767C88.56 5.1767 90.9854 5.47421 93.2796 6.00973C95.5739 6.54525 97.6716 7.49729 99.5726 8.74684C101.408 10.0559 103.047 11.722 104.358 13.8045C105.734 15.8871 106.718 18.3862 107.308 21.3613C107.373 21.5398 107.308 21.7183 107.176 21.8374C107.045 22.0159 106.849 22.0754 106.652 22.0754H101.605C101.408 22.0754 101.211 22.0159 101.015 21.8374C100.818 21.6588 100.687 21.5398 100.621 21.3613C99.8348 17.6127 98.1304 14.8161 95.5084 12.9715C92.8863 11.1864 89.6743 10.2939 85.8724 10.2939C80.5627 10.2939 76.433 12.0195 73.4832 15.4111C70.5334 18.8027 69.0912 23.4439 69.0912 29.2751C69.0912 35.5229 70.5989 40.2831 73.5487 43.5557C76.5641 46.8283 80.6283 48.4349 85.8724 48.4349C90.0676 48.4349 93.4763 47.4234 96.1639 45.3408C98.7859 43.2582 100.425 40.2831 101.015 36.3559C101.08 36.1774 101.146 35.9989 101.342 35.8799C101.539 35.7014 101.67 35.6419 101.867 35.6419H107.111C107.308 35.6419 107.504 35.7014 107.635 35.8799C107.766 36.0584 107.832 36.1774 107.832 36.3559C106.849 42.1277 104.423 46.4713 100.556 49.2679Z" fill="white"/>
<path d="M6.48969 85.1479L6.55524 102.582C6.55524 102.761 6.48969 102.939 6.29304 103.058C6.09639 103.237 5.96528 103.296 5.76863 103.296H0.983392C0.786738 103.296 0.590085 103.237 0.458982 103.058C0.262329 102.88 0.196777 102.761 0.196777 102.582L0.590085 80.3877L0.196777 57.4198C0.196777 57.2413 0.262329 57.0628 0.458982 56.9438C0.655636 56.7652 0.786738 56.7057 0.983392 56.7057H8.71843C8.91509 56.7057 9.11174 56.7652 9.37395 56.8843C9.63615 57.0033 9.76725 57.1818 9.8328 57.3603L26.1551 95.4418L42.0184 57.3603C42.084 57.1818 42.2151 57.0033 42.4773 56.8843C42.7395 56.7652 42.9362 56.7057 43.1328 56.7057H50.3434C50.5401 56.7057 50.7368 56.7652 50.8679 56.9438C51.0645 57.1223 51.1301 57.2413 51.1301 57.4198L50.7368 80.3877L51.1301 102.582C51.1301 102.761 51.0645 102.939 50.8679 103.058C50.6712 103.237 50.5401 103.296 50.3434 103.296H44.9682C44.7716 103.296 44.5749 103.237 44.4438 103.058C44.2472 102.88 44.1816 102.761 44.1816 102.582L44.2472 85.1479L44.3783 70.9268L44.5094 64.9171L28.7116 102.642C28.646 102.82 28.5149 102.999 28.2527 103.118C27.9905 103.237 27.7938 103.296 27.5972 103.296H23.7297C23.533 103.296 23.3364 103.237 23.0741 103.118C22.8119 102.999 22.6808 102.82 22.6153 102.642L6.22749 64.322L6.35859 71.0458L6.48969 85.1479Z" fill="white"/>
<path d="M64.2402 84.9693L64.3057 102.404C64.3057 102.582 64.2402 102.761 64.0435 102.88C63.8469 103.058 63.7158 103.118 63.5191 103.118H58.7339C58.5372 103.118 58.3406 103.058 58.2095 102.88C58.0128 102.701 57.9473 102.582 57.9473 102.404L58.3406 80.2092L57.9473 57.2412C57.9473 57.0627 58.0128 56.8842 58.2095 56.7652C58.4061 56.5867 58.5372 56.5272 58.7339 56.5272H66.4689C66.6656 56.5272 66.8622 56.5867 67.1244 56.7057C67.3866 56.8247 67.5177 57.0032 67.5833 57.1817L83.9055 95.2633L99.7689 57.1817C99.8345 57.0032 99.9656 56.8247 100.228 56.7057C100.49 56.5867 100.687 56.5272 100.883 56.5272H108.094C108.291 56.5272 108.487 56.5867 108.618 56.7652C108.815 56.9437 108.881 57.0627 108.881 57.2412L108.487 80.2092L108.881 102.404C108.881 102.582 108.815 102.761 108.618 102.88C108.422 103.058 108.291 103.118 108.094 103.118H102.719C102.522 103.118 102.325 103.058 102.194 102.88C101.998 102.701 101.932 102.582 101.932 102.404L101.998 84.9693L102.129 70.7483L102.26 64.7385L86.462 102.463C86.3965 102.642 86.2654 102.82 86.0032 102.939C85.741 103.058 85.5443 103.118 85.3477 103.118H81.4801C81.2835 103.118 81.0868 103.058 80.8246 102.939C80.5624 102.82 80.4313 102.642 80.3658 102.463L63.978 64.1435L64.1091 70.8673L64.2402 84.9693Z" fill="white"/>
<path d="M179.414 84.0768L179.479 102.82C179.479 102.999 179.414 103.177 179.217 103.296C179.021 103.475 178.889 103.534 178.693 103.534H173.711C173.514 103.534 173.318 103.475 173.187 103.296C172.99 103.118 172.924 102.999 172.924 102.82L173.318 79.9116L172.924 57.6578C172.924 57.4792 172.99 57.3007 173.187 57.1817C173.383 57.0032 173.514 56.9437 173.711 56.9437H180.201C180.463 56.9437 180.659 57.0032 180.922 57.1222C181.118 57.2412 181.315 57.3602 181.446 57.5387L208.256 95.6203L208.191 91.5741L208.06 76.9365L207.994 57.7173C207.994 57.5388 208.06 57.3602 208.256 57.2412C208.453 57.0627 208.584 57.0032 208.781 57.0032H213.763C213.959 57.0032 214.156 57.0627 214.287 57.2412C214.484 57.4197 214.549 57.5388 214.549 57.7173L214.156 79.9711L214.418 102.88C214.418 103.058 214.353 103.237 214.156 103.356C213.959 103.534 213.828 103.594 213.632 103.594H206.88C206.618 103.594 206.421 103.534 206.159 103.415C205.962 103.296 205.765 103.177 205.634 102.999L179.152 65.4526L179.283 70.4508L179.414 84.0768Z" fill="white"/>
<path fill-rule="evenodd" clip-rule="evenodd" d="M166.565 41.0566C166.565 44.8648 165.976 48.2564 164.73 51.3505C163.485 54.4446 161.78 57.1222 159.552 59.2048C157.323 61.4064 154.635 63.0725 151.489 64.203C148.277 65.3931 144.802 65.9881 141.066 65.9881C137.264 65.9881 133.79 65.3931 130.709 64.1435C127.628 62.9535 124.94 61.2279 122.712 59.0858C120.483 56.9437 118.779 54.3256 117.533 51.2315C116.353 48.1374 115.698 44.7458 115.698 40.9376C115.698 37.07 116.288 33.6188 117.533 30.5247C118.713 27.4306 120.417 24.8125 122.646 22.6704C124.875 20.4688 127.497 18.8027 130.643 17.6722C133.724 16.4821 137.264 15.9466 141.066 15.9466C144.934 15.9466 148.408 16.5416 151.489 17.6722C154.635 18.8622 157.323 20.5283 159.486 22.6704C161.715 24.8125 163.419 27.4306 164.665 30.5247C165.91 33.6783 166.5 37.189 166.565 41.0566ZM123.039 41.1756C123.039 44.2102 123.433 46.9473 124.285 49.3869C125.137 51.8265 126.317 53.8496 127.89 55.5752C129.398 57.2413 131.364 58.5503 133.659 59.4428C135.888 60.3354 138.378 60.8114 141.197 60.8114C144.016 60.8114 146.507 60.3354 148.736 59.4428C150.964 58.5503 152.865 57.2413 154.439 55.5752C156.012 53.9091 157.192 51.8265 157.978 49.3869C158.765 46.9473 159.224 44.1507 159.224 41.1161C159.224 38.0815 158.83 35.2849 157.978 32.8453C157.192 30.4057 156.012 28.3231 154.439 26.5975C152.865 24.872 150.964 23.5629 148.736 22.6704C146.441 21.7779 143.885 21.3018 141.066 21.3018C138.247 21.3018 135.691 21.7779 133.462 22.6704C131.233 23.5629 129.332 24.872 127.759 26.5975C126.186 28.2636 125.006 30.3462 124.219 32.8453C123.433 35.3444 122.974 38.0815 122.974 41.1161V41.1756H123.039Z" fill="white"/>
<path fill-rule="evenodd" clip-rule="evenodd" d="M166.565 65.7501C166.565 69.5583 165.976 72.9499 164.73 76.044C163.485 79.1381 161.78 81.8157 159.552 83.8983C157.323 86.0999 154.635 87.766 151.489 88.8965C148.277 90.0866 144.802 90.6816 141.066 90.6816C137.264 90.6816 133.79 90.0866 130.709 88.837C127.628 87.647 124.94 85.9214 122.712 83.7793C120.483 81.6372 118.779 79.0191 117.533 75.925C116.353 72.8309 115.698 69.4393 115.698 65.6906C115.698 61.823 116.288 58.3718 117.533 55.2777C118.713 52.1836 120.417 49.5655 122.646 47.4234C124.875 45.2218 127.497 43.5557 130.643 42.4252C133.724 41.2351 137.264 40.6996 141.066 40.6996C144.934 40.6996 148.408 41.2946 151.489 42.4252C154.635 43.6152 157.323 45.2813 159.486 47.4234C161.715 49.5655 163.419 52.1836 164.665 55.2777C165.91 58.3718 166.5 61.8229 166.565 65.7501ZM123.039 65.8096C123.039 68.8442 123.433 71.5813 124.285 74.0209C125.137 76.4605 126.317 78.4836 127.89 80.2092C129.398 81.8752 131.364 83.1843 133.659 84.0768C135.888 84.9694 138.378 85.4454 141.197 85.4454C144.016 85.4454 146.507 84.9694 148.736 84.0768C150.964 83.1843 152.865 81.8752 154.439 80.2092C156.012 78.5431 157.192 76.4605 157.978 74.0209C158.765 71.5813 159.224 68.8442 159.224 65.7501C159.224 62.7155 158.83 59.9189 157.978 57.4793C157.192 55.0397 156.012 52.9571 154.439 51.2315C152.865 49.506 150.964 48.1969 148.736 47.3044C146.441 46.4118 143.885 45.9358 141.066 45.9358C138.247 45.9358 135.691 46.4118 133.462 47.3044C131.233 48.1969 129.332 49.506 127.759 51.2315C126.186 52.8976 125.006 54.9802 124.219 57.4793C123.433 59.9189 122.974 62.7155 122.974 65.7501V65.8096H123.039Z" fill="white"/>
</svg>
