<svg width="361" height="128" viewBox="0 0 361 128" fill="none" xmlns="http://www.w3.org/2000/svg">
    <path d="M204.394 21.7249C204.04 22.9726 203.543 24.0736 202.833 25.0276C202.124 25.9817 201.344 26.7157 200.279 27.2295C199.287 27.7433 198.151 28.0368 196.874 28.0368C195.527 28.0368 194.32 27.7433 193.326 27.1561C192.334 26.5689 191.482 25.7616 190.844 24.6607L190.915 33.835C190.915 33.9084 190.844 34.0552 190.773 34.1286C190.702 34.202 190.56 34.2754 190.489 34.2754H187.793C187.722 34.2754 187.58 34.202 187.509 34.1286C187.439 34.0552 187.367 33.9084 187.367 33.835L187.509 18.9359L187.367 8.07345C187.367 8.00006 187.439 7.85327 187.509 7.77987C187.58 7.70648 187.722 7.63308 187.793 7.63308H190.418C190.489 7.63308 190.63 7.70648 190.702 7.77987C190.773 7.85327 190.844 8.00006 190.844 8.07345L190.773 10.8624C191.412 9.76153 192.262 8.88079 193.326 8.22024C194.391 7.55969 195.597 7.26611 196.946 7.26611C198.222 7.26611 199.428 7.55969 200.422 8.07345C201.414 8.58722 202.266 9.32116 202.905 10.2753C203.543 11.2294 204.11 12.257 204.394 13.578C204.749 14.8258 204.891 16.2203 204.891 17.6881C204.891 19.0827 204.749 20.4771 204.394 21.7249ZM191.979 23.4129C192.901 24.8075 194.25 25.5414 195.952 25.5414C197.796 25.5414 199.215 24.8075 200.137 23.4129C201.059 22.0185 201.486 20.1835 201.486 17.9818C201.486 15.6331 201.059 13.6514 200.137 12.1835C199.215 10.7157 197.868 9.98171 196.022 9.98171C194.391 9.98171 193.114 10.6423 192.121 11.89C191.127 13.2111 190.63 15.046 190.63 17.5413C190.63 20.0368 191.057 22.0185 191.979 23.4129Z" fill="white"/>
    <path d="M224.543 20.7708C224.614 20.7708 224.756 20.8442 224.826 20.9176C224.898 20.991 224.898 21.1379 224.898 21.2113C224.614 23.2663 223.691 24.881 222.272 26.2021C220.853 27.5233 218.867 28.1838 216.455 28.1838C214.965 28.1838 213.617 27.8902 212.482 27.3765C211.347 26.8626 210.354 26.1287 209.573 25.248C208.793 24.3673 208.225 23.2663 207.8 21.9452C207.374 20.6974 207.232 19.2296 207.232 17.6883C207.232 16.147 207.445 14.6791 207.871 13.4314C208.296 12.1103 208.863 11.0094 209.644 10.1287C210.424 9.17452 211.347 8.51397 212.482 8.00021C213.617 7.48645 214.824 7.19287 216.243 7.19287C219.009 7.19287 221.208 8.147 222.769 9.98187C224.329 11.8901 225.181 14.4589 225.253 17.6883C225.253 17.7616 225.181 17.9086 225.11 17.9819C225.039 18.0553 224.898 18.1287 224.826 18.1287H210.637C210.709 20.5507 211.204 22.3856 212.198 23.6332C213.192 24.881 214.61 25.5416 216.455 25.5416C217.874 25.5416 219.009 25.1746 219.861 24.4407C220.711 23.7066 221.28 22.6058 221.633 21.1379C221.633 20.991 221.705 20.9176 221.847 20.8442C221.918 20.7708 222.06 20.6974 222.13 20.6974H224.543V20.7708ZM220.144 11.5966C219.292 10.4222 217.945 9.83507 216.243 9.83507C214.681 9.83507 213.405 10.3488 212.482 11.3764C211.559 12.4039 210.992 13.8718 210.709 15.7067H221.492C221.492 14.1653 220.996 12.7709 220.144 11.5966Z" fill="white"/>
    <path d="M228.233 27.7429C228.162 27.7429 228.02 27.6696 227.948 27.5962C227.878 27.5228 227.807 27.376 227.807 27.3026L227.948 17.4677L227.807 8.07315C227.807 7.99974 227.878 7.85296 227.948 7.77957C228.02 7.70617 228.162 7.63277 228.233 7.63277H230.858C230.929 7.63277 231.071 7.70617 231.141 7.77957C231.213 7.85296 231.283 7.99974 231.283 8.07315L231.141 11.4493C231.851 10.1282 232.773 9.10067 233.909 8.44012C235.044 7.77957 236.321 7.4126 237.669 7.4126C237.81 7.4126 238.024 7.41259 238.236 7.48599C238.449 7.48599 238.591 7.55938 238.732 7.55938C238.804 7.55938 238.946 7.63277 239.016 7.70616C239.087 7.77957 239.159 7.92635 239.159 7.99974V10.0548C239.159 10.2016 239.087 10.275 239.016 10.3484C238.946 10.4218 238.804 10.4218 238.732 10.4218C238.591 10.4218 238.377 10.3484 238.236 10.3484C238.024 10.3484 237.882 10.3484 237.669 10.3484C236.108 10.3484 234.689 10.8621 233.482 11.8897C232.277 12.9172 231.496 14.5319 231.283 16.6603L231.354 27.2292C231.354 27.3026 231.283 27.4494 231.213 27.5228C231.141 27.5962 230.999 27.6696 230.929 27.6696H228.233V27.7429Z" fill="white"/>
    <path d="M246.748 18.7157L246.89 27.3029C246.89 27.3763 246.819 27.523 246.748 27.5964C246.676 27.6698 246.535 27.7432 246.464 27.7432H243.697C243.627 27.7432 243.485 27.6698 243.413 27.5964C243.343 27.523 243.272 27.3763 243.272 27.3029L243.413 18.7157V10.422H240.789C240.717 10.422 240.576 10.3487 240.505 10.2753C240.434 10.2019 240.362 10.0551 240.362 9.98168V8.14681C240.362 8.07342 240.434 7.92662 240.505 7.85323C240.576 7.77984 240.717 7.70645 240.789 7.70645H243.413V5.94497C243.413 4.84406 243.555 3.96332 243.839 3.15597C244.123 2.42203 244.549 1.76148 244.974 1.3211C245.471 0.880736 245.968 0.513762 246.606 0.293578C247.173 0.0733947 247.812 0 248.45 0C248.877 0 249.302 0 249.727 0.0733947C250.153 0.14679 250.579 0.220184 250.863 0.293578C250.934 0.293578 251.076 0.366974 251.146 0.513762C251.218 0.587158 251.288 0.733947 251.288 0.807342V2.6422C251.288 2.71561 251.218 2.86239 251.146 2.86239C251.076 2.93578 251.005 2.93578 250.934 2.93578C250.65 2.86239 250.437 2.86239 250.154 2.789C249.869 2.71561 249.586 2.71561 249.231 2.71561C248.45 2.71561 247.812 3.00919 247.386 3.52294C246.961 4.03671 246.748 4.99084 246.748 6.23855V7.70645H250.863C250.934 7.70645 251.076 7.77984 251.146 7.85323C251.218 7.92662 251.288 8.07342 251.288 8.14681V9.98168C251.288 10.0551 251.218 10.2019 251.146 10.2753C251.076 10.3487 250.934 10.422 250.863 10.422H246.748V18.7157Z" fill="white"/>
    <path d="M267.252 25.3212C265.692 27.2295 263.421 28.1836 260.441 28.1836C257.533 28.1836 255.263 27.2295 253.702 25.3212C252.07 23.4129 251.29 20.9176 251.29 17.7616C251.29 14.6056 252.07 12.0368 253.702 10.1285C255.334 8.22024 257.533 7.26611 260.441 7.26611C263.351 7.26611 265.62 8.22024 267.252 10.1285C268.813 12.0368 269.665 14.6056 269.665 17.6881C269.665 20.7707 268.884 23.3395 267.252 25.3212ZM256.256 23.5597C257.178 24.9543 258.597 25.6148 260.513 25.6148C262.429 25.6148 263.776 24.9543 264.77 23.5597C265.692 22.1652 266.188 20.2569 266.188 17.7616C266.188 15.2662 265.692 13.3579 264.77 11.9634C263.847 10.5689 262.429 9.83492 260.513 9.83492C258.668 9.83492 257.249 10.5689 256.256 11.9634C255.334 13.3579 254.837 15.2662 254.837 17.7616C254.837 20.2569 255.263 22.1652 256.256 23.5597Z" fill="white"/>
    <path d="M272.501 27.7429C272.431 27.7429 272.289 27.6696 272.217 27.5962C272.147 27.5228 272.076 27.376 272.076 27.3026L272.217 17.4677L272.076 8.07315C272.076 7.99974 272.147 7.85296 272.217 7.77957C272.289 7.70617 272.431 7.63277 272.501 7.63277H275.127C275.197 7.63277 275.34 7.70617 275.41 7.77957C275.482 7.85296 275.552 7.99974 275.552 8.07315L275.41 11.4493C276.12 10.1282 277.042 9.10067 278.178 8.44012C279.312 7.77957 280.589 7.4126 281.938 7.4126C282.079 7.4126 282.293 7.41259 282.505 7.48599C282.718 7.48599 282.86 7.55938 283.001 7.55938C283.073 7.55938 283.215 7.63277 283.285 7.70616C283.356 7.77957 283.427 7.92635 283.427 7.99974V10.0548C283.427 10.2016 283.356 10.275 283.285 10.3484C283.215 10.4218 283.073 10.4218 283.001 10.4218C282.86 10.4218 282.646 10.3484 282.505 10.3484C282.293 10.3484 282.15 10.3484 281.938 10.3484C280.377 10.3484 278.958 10.8621 277.751 11.8897C276.546 12.9172 275.765 14.5319 275.552 16.6603L275.623 27.2292C275.623 27.3026 275.552 27.4494 275.482 27.5228C275.41 27.5962 275.268 27.6696 275.197 27.6696H272.501V27.7429Z" fill="white"/>
    <path d="M288.535 19.89L288.677 27.3028C288.677 27.3762 288.606 27.523 288.535 27.5964C288.464 27.6698 288.322 27.7432 288.252 27.7432H285.484C285.414 27.7432 285.271 27.6698 285.201 27.5964C285.129 27.523 285.059 27.3762 285.059 27.3028L285.201 19.89L285.059 8.07342C285.059 8.00003 285.129 7.85325 285.201 7.77984C285.271 7.70645 285.414 7.63306 285.484 7.63306H288.039C288.109 7.63306 288.252 7.70645 288.322 7.77984C288.394 7.85325 288.464 8.00003 288.464 8.07342L288.322 11.0092C288.89 9.98168 289.741 9.10096 290.663 8.29361C291.657 7.55967 292.862 7.11929 294.281 7.11929C295.63 7.11929 296.836 7.48626 297.829 8.14681C298.823 8.88077 299.461 9.90829 299.887 11.3028C300.597 9.90829 301.447 8.88077 302.441 8.14681C303.434 7.41287 304.64 7.0459 305.987 7.0459C307.833 7.0459 309.322 7.70645 310.457 8.95416C311.521 10.2753 312.089 12.2569 312.089 14.9725V19.7432L312.16 27.1561C312.16 27.2294 312.089 27.3762 312.018 27.4496C311.948 27.523 311.806 27.5964 311.734 27.5964H309.038C308.968 27.5964 308.825 27.523 308.755 27.4496C308.683 27.3762 308.613 27.2294 308.613 27.1561L308.755 19.7432V15.1193C308.755 13.2844 308.4 11.8899 307.761 11.0826C307.052 10.2753 306.201 9.8349 305.065 9.8349C304.073 9.8349 303.079 10.2753 302.299 11.2294C301.447 12.1835 300.809 13.4313 300.454 15.0459V19.6698L300.597 27.0827C300.597 27.1561 300.525 27.3028 300.454 27.3762C300.383 27.4496 300.242 27.523 300.17 27.523H297.404C297.332 27.523 297.191 27.4496 297.119 27.3762C297.049 27.3028 296.977 27.1561 296.977 27.0827L297.119 19.6698V15.0459C297.119 13.211 296.765 11.8166 296.127 11.0092C295.417 10.2019 294.566 9.76151 293.359 9.76151C292.224 9.76151 291.231 10.2753 290.38 11.3762C289.529 12.4037 288.89 13.945 288.535 15.8532V19.89Z" fill="white"/>
    <path d="M315.78 27.7429C315.708 27.7429 315.567 27.6696 315.496 27.5962C315.425 27.5228 315.354 27.3759 315.354 27.3025L315.496 17.3942L315.354 8.07312C315.354 7.99973 315.425 7.85293 315.496 7.77954C315.567 7.70615 315.708 7.63275 315.78 7.63275H318.476C318.546 7.63275 318.688 7.70615 318.759 7.77954C318.831 7.85293 318.901 7.99973 318.901 8.07312L318.759 17.3208L318.901 27.2291C318.901 27.3025 318.831 27.4493 318.759 27.5228C318.688 27.5962 318.546 27.6696 318.476 27.6696H315.78V27.7429ZM315.78 5.21073C315.708 5.21073 315.567 5.13733 315.496 5.06393C315.425 4.99054 315.354 4.84375 315.354 4.77035V1.76118C315.354 1.68778 315.425 1.54099 315.496 1.4676C315.567 1.3942 315.708 1.3208 315.78 1.3208H318.476C318.546 1.3208 318.688 1.3942 318.759 1.4676C318.831 1.54099 318.901 1.68778 318.901 1.76118V4.77035C318.901 4.84375 318.831 4.99054 318.759 5.06393C318.688 5.13733 318.546 5.21073 318.476 5.21073H315.78Z" fill="white"/>
    <path d="M322.661 27.743C322.59 27.743 322.449 27.6696 322.377 27.5962C322.306 27.5229 322.235 27.3761 322.235 27.3027L322.377 18.5687L322.235 8.07327C322.235 7.99988 322.306 7.85308 322.377 7.77969C322.449 7.7063 322.59 7.63291 322.661 7.63291H325.143C325.215 7.63291 325.357 7.7063 325.428 7.77969C325.498 7.85308 325.57 7.99988 325.57 8.07327L325.428 11.0091C325.995 9.98153 326.847 9.10079 327.982 8.29346C329.046 7.48611 330.394 7.11914 331.884 7.11914C333.87 7.11914 335.431 7.77969 336.637 9.17419C337.773 10.4953 338.411 12.4769 338.411 15.1191V19.1558L338.482 27.3027C338.482 27.3761 338.411 27.5229 338.34 27.5962C338.269 27.6696 338.127 27.743 338.056 27.743H335.431C335.36 27.743 335.219 27.6696 335.147 27.5962C335.077 27.5229 335.005 27.3761 335.005 27.3027L335.077 19.1558V15.3393C335.077 13.5779 334.722 12.2568 333.941 11.376C333.161 10.4953 332.168 10.1283 330.962 10.1283C329.685 10.1283 328.549 10.6421 327.627 11.6696C326.705 12.6971 325.995 14.2384 325.64 16.1466V19.1558L325.712 27.3027C325.712 27.3761 325.64 27.5229 325.57 27.5962C325.498 27.6696 325.357 27.743 325.286 27.743H322.661Z" fill="white"/>
    <path d="M356.076 33.0279C354.587 34.5693 352.458 35.3766 349.692 35.3766C348.557 35.3766 347.563 35.3032 346.571 35.0096C345.577 34.7895 344.725 34.4225 344.016 33.9088C343.306 33.395 342.668 32.8078 342.242 32.0004C341.746 31.1931 341.532 30.3124 341.462 29.2114C341.462 29.138 341.462 28.9913 341.532 28.9179C341.604 28.8445 341.746 28.7711 341.817 28.7711H344.371C344.513 28.7711 344.583 28.8445 344.725 28.9179C344.797 28.9913 344.867 29.0646 344.867 29.2114C345.009 30.3858 345.577 31.2665 346.499 31.8537C347.421 32.4408 348.557 32.7344 349.834 32.7344C351.466 32.7344 352.813 32.2206 353.735 31.1931C354.657 30.1656 355.154 28.5509 355.154 26.2756V24.0739C354.516 25.1748 353.735 26.0555 352.671 26.6426C351.678 27.2299 350.472 27.5234 349.124 27.5234C347.776 27.5234 346.571 27.3032 345.577 26.7894C344.583 26.2756 343.661 25.6151 343.023 24.7344C342.314 23.8537 341.817 22.8261 341.462 21.5784C341.107 20.3307 340.965 19.0096 340.965 17.6152C340.965 16.2206 341.179 14.8995 341.532 13.6517C341.887 12.4041 342.456 11.3031 343.094 10.349C343.803 9.39489 344.655 8.66095 345.647 8.14718C346.641 7.63342 347.776 7.33984 349.053 7.33984C350.401 7.33984 351.608 7.63342 352.6 8.22057C353.594 8.80773 354.445 9.68847 355.084 10.7894L355.012 8.07379C355.012 8.00039 355.084 7.8536 355.154 7.78021C355.226 7.70681 355.367 7.63341 355.439 7.63341H358.063C358.134 7.63341 358.277 7.70681 358.347 7.78021C358.418 7.8536 358.489 8.00039 358.489 8.07379L358.277 15.7068L358.347 26.349C358.347 29.2114 357.638 31.4133 356.076 33.0279ZM345.647 23.1197C346.571 24.4408 347.989 25.1014 349.834 25.028C351.394 25.028 352.671 24.4408 353.665 23.2664C354.587 22.0922 355.084 20.2573 355.154 17.7619C355.154 15.4133 354.8 13.5784 353.949 12.1839C353.097 10.7894 351.891 10.0554 350.401 9.90866C350.33 9.90866 350.189 9.83526 349.905 9.83526H349.408C347.705 9.90866 346.429 10.6426 345.577 12.0371C344.725 13.4316 344.3 15.1931 344.3 17.4682C344.228 19.9637 344.725 21.7986 345.647 23.1197Z" fill="white"/>
    <path d="M205.956 60.9907C205.885 60.9907 205.743 60.9173 205.672 60.8439C205.601 60.7705 205.531 60.6237 205.531 60.5504L205.601 57.6879C204.962 58.8622 204.111 59.7429 203.047 60.4036C201.983 61.0641 200.777 61.3577 199.429 61.3577C198.152 61.3577 196.946 61.0641 195.952 60.5504C194.959 60.0365 194.108 59.3026 193.47 58.3485C192.831 57.3944 192.263 56.2934 191.979 55.0457C191.624 53.7979 191.482 52.4035 191.482 51.0089C191.482 49.6145 191.696 48.22 192.051 46.8989C192.406 45.6512 192.901 44.5502 193.611 43.5961C194.32 42.642 195.101 41.9081 196.166 41.3942C197.158 40.8805 198.293 40.5869 199.57 40.5869C200.919 40.5869 202.125 40.8805 203.189 41.4676C204.254 42.0549 205.104 42.9356 205.743 44.0365L205.672 41.3942C205.672 41.3208 205.743 41.174 205.814 41.1007C205.885 41.0273 206.026 40.9539 206.098 40.9539H208.722C208.794 40.9539 208.936 41.0273 209.007 41.1007C209.077 41.174 209.149 41.3208 209.149 41.3942L209.007 50.7887L209.149 60.5504C209.149 60.6237 209.077 60.7705 209.007 60.8439C208.936 60.9173 208.794 60.9907 208.722 60.9907H205.956ZM196.236 56.5136C197.158 57.9815 198.507 58.7154 200.351 58.7154C201.983 58.7154 203.33 58.0549 204.254 56.8071C205.246 55.5595 205.743 53.6512 205.743 51.0824C205.743 48.7338 205.388 46.8255 204.537 45.431C203.685 44.0365 202.55 43.3025 200.989 43.0824C200.919 43.0824 200.777 43.009 200.493 43.009H199.997C198.293 43.0824 197.016 43.8897 196.166 45.2108C195.314 46.6053 194.959 48.3668 194.959 50.5686C194.888 53.1374 195.385 55.0457 196.236 56.5136Z" fill="white"/>
    <path d="M212.554 60.9904C212.482 60.9904 212.341 60.917 212.27 60.8436C212.199 60.7703 212.128 60.6235 212.128 60.5501L212.27 50.7152L212.128 41.3207C212.128 41.2473 212.199 41.1005 212.27 41.0271C212.341 40.9537 212.482 40.8803 212.554 40.8803H215.178C215.25 40.8803 215.392 40.9537 215.462 41.0271C215.533 41.1005 215.605 41.2473 215.605 41.3207L215.462 44.6968C216.172 43.3758 217.094 42.3482 218.229 41.6876C219.365 41.0271 220.642 40.6602 221.989 40.6602C222.131 40.6602 222.344 40.6602 222.557 40.7336C222.77 40.7336 222.911 40.8069 223.053 40.8069C223.125 40.8069 223.266 40.8803 223.338 40.9537C223.408 41.0271 223.48 41.1739 223.48 41.2473V43.3024C223.48 43.4492 223.408 43.5226 223.338 43.596C223.266 43.6693 223.125 43.6693 223.053 43.6693C222.911 43.6693 222.699 43.596 222.557 43.596C222.344 43.596 222.202 43.596 221.989 43.596C220.429 43.596 219.01 44.1097 217.804 45.1372C216.597 46.1648 215.817 47.7794 215.605 49.9079L215.675 60.4767C215.675 60.5501 215.605 60.6969 215.533 60.7703C215.462 60.8436 215.32 60.917 215.25 60.917H212.554V60.9904Z" fill="white"/>
    <path d="M235.397 60.3303C235.397 60.4036 235.327 60.5504 235.256 60.6238C235.185 60.7706 235.042 60.844 234.972 60.844C234.617 60.9174 234.192 61.0642 233.766 61.1377C233.34 61.2111 232.915 61.2845 232.489 61.2845C231.07 61.2845 229.864 60.844 228.8 59.9633C227.736 59.0826 227.239 57.5412 227.239 55.4129L227.309 43.6697H225.182C225.11 43.6697 224.968 43.5963 224.898 43.5229C224.827 43.4495 224.756 43.3027 224.756 43.2294V41.321C224.756 41.2476 224.827 41.1009 224.898 41.0275C224.968 40.9541 225.11 40.8807 225.182 40.8807H227.309L227.239 36.2569C227.239 36.1835 227.309 36.0366 227.381 35.9632C227.451 35.8898 227.594 35.8164 227.664 35.8164H230.36C230.432 35.8164 230.574 35.8898 230.644 35.9632C230.715 36.0366 230.786 36.1835 230.786 36.2569L230.715 40.8807H235.114C235.185 40.8807 235.327 40.9541 235.397 41.0275C235.469 41.1009 235.539 41.2476 235.539 41.321V43.3027C235.539 43.3761 235.469 43.5229 235.397 43.5963C235.327 43.6697 235.185 43.7431 235.114 43.7431H230.574L230.644 55.4129C230.644 56.5871 230.857 57.3945 231.212 57.9082C231.638 58.3487 232.205 58.5688 232.985 58.5688C233.34 58.5688 233.695 58.5689 234.05 58.4955C234.404 58.4221 234.689 58.4221 234.901 58.3487C234.972 58.3487 235.114 58.3487 235.185 58.4221C235.256 58.4955 235.327 58.5689 235.327 58.6422V60.3303H235.397Z" fill="white"/>
    <path d="M252.85 57.835C252.425 58.5689 251.857 59.2295 251.148 59.7432C250.438 60.2569 249.587 60.6973 248.594 60.9176C247.6 61.2112 246.536 61.358 245.401 61.358C242.918 61.358 240.861 60.7707 239.229 59.5964C237.596 58.4222 236.746 56.734 236.674 54.3854C236.674 54.312 236.746 54.1652 236.816 54.0918C236.888 54.0184 237.029 53.945 237.101 53.945H239.584C239.654 53.945 239.796 54.0184 239.867 54.0918C239.939 54.1652 240.009 54.312 240.009 54.3854C240.08 55.9267 240.577 57.101 241.499 57.835C242.421 58.5689 243.769 58.9359 245.472 58.9359C246.891 58.9359 248.025 58.6423 248.877 58.0552C249.729 57.4679 250.154 56.5872 250.154 55.4864C250.154 54.1652 249.444 53.3579 248.097 52.9909C246.748 52.624 245.259 52.3304 243.627 51.9634C241.996 51.6699 240.506 51.156 239.158 50.4221C237.81 49.6882 237.101 48.3671 237.101 46.312C237.101 44.4037 237.81 42.9359 239.229 41.9083C240.647 40.8808 242.492 40.4404 244.762 40.4404C246.962 40.4404 248.877 40.9542 250.368 41.9083C251.857 42.9359 252.709 44.4037 252.85 46.4588C252.85 46.5322 252.85 46.679 252.779 46.7524C252.709 46.8258 252.567 46.8992 252.495 46.8992H250.154C250.083 46.8992 249.941 46.8258 249.871 46.7524C249.799 46.679 249.729 46.6056 249.729 46.4588C249.587 45.2111 249.09 44.3303 248.239 43.7432C247.317 43.1561 246.253 42.8625 244.904 42.8625C243.627 42.8625 242.563 43.156 241.783 43.6698C241.002 44.1835 240.577 44.9908 240.577 46.0918C240.577 47.3395 241.286 48.1468 242.635 48.4405C243.982 48.7341 245.472 49.0276 247.103 49.3212C248.735 49.6148 250.226 50.1285 251.573 50.8624C252.921 51.5965 253.631 52.9909 253.631 55.1194C253.489 56.2203 253.276 57.101 252.85 57.835Z" fill="white"/>
    <path d="M262.711 60.9904C262.641 60.9904 262.498 60.917 262.428 60.8436C262.356 60.7702 262.286 60.6234 262.286 60.5501L262.428 50.6418L262.286 41.3207C262.286 41.2473 262.356 41.1005 262.428 41.0271C262.498 40.9537 262.641 40.8803 262.711 40.8803H265.407C265.479 40.8803 265.621 40.9537 265.691 41.0271C265.762 41.1005 265.833 41.2473 265.833 41.3207L265.691 50.6418L265.833 60.5501C265.833 60.6234 265.762 60.7702 265.691 60.8436C265.621 60.917 265.479 60.9904 265.407 60.9904H262.711ZM262.711 38.4582C262.641 38.4582 262.498 38.3849 262.428 38.3115C262.356 38.2381 262.286 38.0913 262.286 38.0179V35.0087C262.286 34.9353 262.356 34.7885 262.428 34.7151C262.498 34.6418 262.641 34.5684 262.711 34.5684H265.407C265.479 34.5684 265.621 34.6418 265.691 34.7151C265.762 34.7885 265.833 34.9353 265.833 35.0087V38.0179C265.833 38.0913 265.762 38.2381 265.691 38.3115C265.621 38.3849 265.479 38.4582 265.407 38.4582H262.711Z" fill="white"/>
    <path d="M269.593 60.9905C269.522 60.9905 269.38 60.9171 269.309 60.8437C269.238 60.7704 269.167 60.6236 269.167 60.5502L269.309 51.8163L269.167 41.3208C269.167 41.2474 269.238 41.1006 269.309 41.0272C269.38 40.9538 269.522 40.8804 269.593 40.8804H272.076C272.147 40.8804 272.288 40.9538 272.36 41.0272C272.431 41.1006 272.502 41.2474 272.502 41.3208L272.36 44.2566C272.927 43.2291 273.779 42.3484 274.914 41.541C275.978 40.7337 277.326 40.3667 278.816 40.3667C280.803 40.3667 282.363 41.0272 283.569 42.4218C284.704 43.7428 285.343 45.7245 285.343 48.3667V52.4034L285.413 60.5502C285.413 60.6236 285.343 60.7704 285.272 60.8437C285.201 60.9171 285.059 60.9905 284.988 60.9905H282.363C282.292 60.9905 282.15 60.9171 282.08 60.8437C282.008 60.7704 281.937 60.6236 281.937 60.5502L282.008 52.4034V48.5868C282.008 46.8254 281.653 45.5044 280.873 44.6235C280.093 43.7428 279.099 43.3759 277.894 43.3759C276.616 43.3759 275.481 43.8896 274.559 44.9171C273.637 45.9447 272.927 47.486 272.573 49.3943V52.4034L272.643 60.5502C272.643 60.6236 272.573 60.7704 272.502 60.8437C272.431 60.9171 272.288 60.9905 272.218 60.9905H269.593Z" fill="white"/>
    <path d="M295.701 60.9912C295.63 60.9912 295.488 60.9178 295.418 60.8444C295.346 60.771 295.276 60.6242 295.276 60.5508L295.488 47.1195L295.276 34.2021C295.276 34.1287 295.346 33.9819 295.418 33.9085C295.488 33.8351 295.63 33.7617 295.701 33.7617H298.469C298.539 33.7617 298.681 33.8351 298.752 33.9085C298.823 33.9819 298.894 34.1287 298.894 34.2021L298.681 47.1195L298.894 60.5508C298.894 60.6242 298.823 60.771 298.752 60.8444C298.681 60.9178 298.539 60.9912 298.469 60.9912H295.701Z" fill="white"/>
    <path d="M312.942 60.3303C312.942 60.4036 312.871 60.5504 312.8 60.6238C312.728 60.7706 312.587 60.844 312.516 60.844C312.161 60.9174 311.736 61.0642 311.309 61.1377C310.884 61.2111 310.459 61.2845 310.033 61.2845C308.615 61.2845 307.408 60.844 306.344 59.9633C305.28 59.0826 304.783 57.5412 304.783 55.4129L304.854 43.6697H302.726C302.654 43.6697 302.513 43.5963 302.442 43.5229C302.371 43.4495 302.299 43.3027 302.299 43.2294V41.321C302.299 41.2476 302.371 41.1009 302.442 41.0275C302.513 40.9541 302.654 40.8807 302.726 40.8807H304.854L304.783 36.2569C304.783 36.1835 304.854 36.0366 304.925 35.9632C304.995 35.8898 305.138 35.8164 305.209 35.8164H307.905C307.976 35.8164 308.118 35.8898 308.188 35.9632C308.26 36.0366 308.33 36.1835 308.33 36.2569L308.26 40.8807H312.658C312.729 40.8807 312.871 40.9541 312.942 41.0275C313.013 41.1009 313.083 41.2476 313.083 41.321V43.3027C313.083 43.3761 313.013 43.5229 312.942 43.5963C312.871 43.6697 312.729 43.7431 312.658 43.7431H308.26L308.33 55.4129C308.33 56.5871 308.543 57.3945 308.898 57.9082C309.323 58.3487 309.891 58.5688 310.672 58.5688C311.026 58.5688 311.381 58.5689 311.736 58.4955C312.091 58.4221 312.374 58.4221 312.587 58.3487C312.658 58.3487 312.8 58.3487 312.871 58.4221C312.942 58.4955 313.013 58.5689 313.013 58.6422V60.3303H312.942Z" fill="white"/>
    <path d="M328.904 60.9907C328.833 60.9907 328.691 60.9173 328.62 60.8439C328.55 60.7705 328.478 60.6237 328.478 60.5504L328.55 57.6879C327.911 58.8622 327.059 59.7429 325.995 60.4036C324.932 61.0641 323.725 61.3577 322.377 61.3577C321.1 61.3577 319.894 61.0641 318.901 60.5504C317.907 60.0365 317.056 59.3026 316.417 58.3485C315.779 57.3944 315.211 56.2934 314.928 55.0457C314.573 53.7979 314.431 52.4035 314.431 51.0089C314.431 49.6145 314.644 48.22 314.998 46.8989C315.353 45.6512 315.85 44.5502 316.56 43.5961C317.269 42.642 318.049 41.9081 319.113 41.3942C320.107 40.8805 321.242 40.5869 322.519 40.5869C323.867 40.5869 325.073 40.8805 326.137 41.4676C327.201 42.0549 328.053 42.9356 328.691 44.0365L328.62 41.3942C328.62 41.3208 328.691 41.174 328.762 41.1007C328.833 41.0273 328.975 40.9539 329.046 40.9539H331.671C331.741 40.9539 331.884 41.0273 331.955 41.1007C332.026 41.174 332.096 41.3208 332.096 41.3942L331.955 50.7887L332.096 60.5504C332.096 60.6237 332.026 60.7705 331.955 60.8439C331.884 60.9173 331.741 60.9907 331.671 60.9907H328.904ZM319.185 56.5136C320.107 57.9815 321.455 58.7154 323.299 58.7154C324.932 58.7154 326.279 58.0549 327.201 56.8071C328.195 55.5595 328.691 53.6512 328.691 51.0824C328.691 48.7338 328.336 46.8255 327.485 45.431C326.634 44.0365 325.499 43.3025 323.938 43.0824C323.867 43.0824 323.725 43.009 323.441 43.009H322.944C321.242 43.0824 319.965 43.8897 319.113 45.2108C318.262 46.6053 317.907 48.3668 317.907 50.5686C317.836 53.1374 318.262 55.0457 319.185 56.5136Z" fill="white"/>
    <path d="M336.992 60.9909C336.921 60.9909 336.779 60.9175 336.709 60.8441C336.637 60.7707 336.567 60.6238 336.567 60.5504L336.709 47.1926L336.567 34.1283C336.567 34.0549 336.637 33.9082 336.709 33.8348C336.779 33.7614 336.921 33.688 336.992 33.688H339.617C339.688 33.688 339.83 33.7614 339.901 33.8348C339.972 33.9082 340.043 34.0549 340.043 34.1283L339.83 47.1926L339.972 60.5504C339.972 60.6238 339.901 60.7707 339.83 60.8441C339.759 60.9175 339.617 60.9909 339.546 60.9909H336.992Z" fill="white"/>
    <path d="M351.678 67.2296C351.678 67.303 351.607 67.4498 351.466 67.5232C351.324 67.5966 351.252 67.67 351.111 67.67H348.698C348.628 67.67 348.556 67.5966 348.486 67.5232C348.415 67.4498 348.415 67.3764 348.415 67.2296L350.472 60.9911L342.881 41.3212C342.881 41.2478 342.881 41.101 342.952 41.0276C343.023 40.9543 343.094 40.8809 343.164 40.8809H346.144C346.215 40.8809 346.357 40.9543 346.499 41.0276C346.641 41.101 346.712 41.1744 346.712 41.3212L352.175 56.3671L356.858 41.3212C356.858 41.2478 356.928 41.101 357.07 41.0276C357.212 40.9543 357.283 40.8809 357.425 40.8809H360.121C360.192 40.8809 360.263 40.9543 360.334 41.0276C360.404 41.101 360.404 41.1744 360.404 41.3212L351.678 67.2296Z" fill="white"/>
    <path d="M257.533 94.2383C257.462 94.2383 257.32 94.1649 257.249 94.0915C257.179 94.0181 257.107 93.8713 257.107 93.7979L257.249 80.7337L257.179 71.2658C256.469 71.9997 255.688 72.5868 254.766 73.1006C253.844 73.6143 252.922 74.0547 251.857 74.3483C251.787 74.3483 251.645 74.3483 251.573 74.2749C251.503 74.2014 251.432 74.128 251.432 74.0546V71.8529C251.432 71.7795 251.503 71.6327 251.573 71.4859C251.645 71.3392 251.715 71.2658 251.857 71.2658C252.922 70.8253 253.914 70.3115 254.837 69.5776C255.76 68.9171 256.469 68.1098 257.107 67.3024C257.179 67.229 257.249 67.0822 257.391 67.0822C257.533 67.0088 257.604 67.0088 257.746 67.0088H260.37C260.442 67.0088 260.584 67.0822 260.655 67.1556C260.725 67.229 260.797 67.3757 260.797 67.4491L260.584 81.4676L260.797 93.8713C260.797 93.9447 260.725 94.0915 260.655 94.1649C260.584 94.2383 260.442 94.3116 260.37 94.3116H257.533V94.2383Z" fill="white"/>
    <path d="M280.235 91.0096C278.461 93.505 276.12 94.7527 273.211 94.7527C271.012 94.7527 269.238 94.1656 267.961 93.0646C266.684 91.9637 265.903 90.2756 265.62 88.1472C265.62 88.0739 265.691 87.9271 265.762 87.8537C265.833 87.7802 265.903 87.7068 266.045 87.7068H268.671C268.741 87.7068 268.883 87.7802 268.954 87.8537C269.025 87.9271 269.096 88.0739 269.096 88.1472C269.238 89.3215 269.735 90.2756 270.444 90.9362C271.154 91.5968 272.147 91.9637 273.424 91.9637C275.339 91.9637 276.759 91.083 277.751 89.3215C278.745 87.56 279.242 85.1381 279.242 81.9821C278.673 83.0096 277.823 83.8169 276.687 84.404C275.552 84.9913 274.275 85.2848 272.856 85.2848C270.444 85.2848 268.458 84.4774 266.967 82.9362C265.478 81.3214 264.698 79.1931 264.698 76.5508C264.698 75.1563 264.91 73.8352 265.336 72.5876C265.762 71.3398 266.4 70.3123 267.181 69.4316C267.961 68.5508 268.883 67.8902 270.018 67.3765C271.082 66.8628 272.289 66.6426 273.566 66.6426C276.474 66.6426 278.745 67.8168 280.377 70.1655C282.008 72.5142 282.86 75.9637 282.86 80.6609C282.86 84.9913 282.008 88.5142 280.235 91.0096ZM269.663 80.6609C270.515 81.8353 271.863 82.4224 273.566 82.4224C275.269 82.4224 276.616 81.8353 277.61 80.7343C278.603 79.6334 279.1 78.0921 279.1 76.1839C279.1 74.2756 278.603 72.661 277.681 71.3398C276.758 70.0187 275.41 69.3582 273.778 69.3582C272.076 69.3582 270.728 69.9453 269.805 71.1196C268.883 72.294 268.386 73.9086 268.386 75.9637C268.316 77.9453 268.813 79.4866 269.663 80.6609Z" fill="white"/>
    <path d="M299.958 91.8902C298.256 93.7984 296.057 94.6792 293.289 94.6792C290.665 94.6792 288.607 94.0186 287.188 92.6242C285.769 91.2297 284.918 89.3948 284.706 87.1195C284.706 87.0461 284.706 86.8993 284.776 86.8259C284.847 86.7526 284.989 86.6792 285.059 86.6792H287.755C287.827 86.6792 287.969 86.7526 288.04 86.8259C288.11 86.8993 288.182 87.0461 288.182 87.1195C288.252 88.5875 288.749 89.7617 289.601 90.6424C290.451 91.5233 291.658 91.9636 293.219 91.9636C294.921 91.9636 296.269 91.3031 297.262 89.9819C298.256 88.6609 298.753 86.826 298.753 84.5507C298.753 82.2755 298.326 80.5874 297.404 79.3397C296.482 78.1653 295.205 77.5048 293.502 77.5048C292.155 77.5048 291.09 77.8718 290.239 78.5323C289.388 79.193 288.82 80.147 288.465 81.3213C288.465 81.4681 288.394 81.5415 288.252 81.6149C288.11 81.6883 288.04 81.7618 287.897 81.7618H285.628C285.556 81.7618 285.414 81.6883 285.344 81.6149C285.273 81.5415 285.202 81.3947 285.273 81.3213L286.124 67.3764C286.124 67.303 286.195 67.1562 286.266 67.0828C286.337 67.0094 286.478 66.936 286.55 66.936H300.242C300.313 66.936 300.455 67.0094 300.527 67.0828C300.597 67.1562 300.668 67.303 300.668 67.3764V69.5049C300.668 69.5783 300.597 69.725 300.527 69.7984C300.455 69.8718 300.313 69.9452 300.242 69.9452H289.104L288.536 77.2846C289.246 76.4039 290.098 75.8168 291.02 75.3763C292.012 75.0094 293.077 74.7892 294.283 74.7892C295.418 74.7892 296.482 75.0094 297.546 75.4499C298.539 75.8902 299.391 76.5507 300.1 77.358C300.81 78.1653 301.377 79.193 301.803 80.3672C302.229 81.5415 302.441 82.8627 302.441 84.3305C302.584 87.4865 301.732 90.0553 299.958 91.8902Z" fill="white"/>
    <path d="M319.538 91.0096C317.766 93.505 315.423 94.7527 312.515 94.7527C310.316 94.7527 308.542 94.1656 307.265 93.0646C305.988 91.9637 305.208 90.2756 304.924 88.1472C304.924 88.0739 304.994 87.9271 305.066 87.8537C305.137 87.7802 305.208 87.7068 305.349 87.7068H307.975C308.045 87.7068 308.187 87.7802 308.259 87.8537C308.329 87.9271 308.4 88.0739 308.4 88.1472C308.542 89.3215 309.039 90.2756 309.748 90.9362C310.458 91.5968 311.451 91.9637 312.729 91.9637C314.643 91.9637 316.062 91.083 317.056 89.3215C318.049 87.56 318.546 85.1381 318.546 81.9821C317.978 83.0096 317.127 83.8169 315.992 84.404C314.856 84.9913 313.579 85.2848 312.16 85.2848C309.748 85.2848 307.762 84.4774 306.272 82.9362C304.782 81.3214 304.002 79.1931 304.002 76.5508C304.002 75.1563 304.214 73.8352 304.641 72.5876C305.066 71.3398 305.704 70.3123 306.485 69.4316C307.265 68.5508 308.187 67.8902 309.323 67.3765C310.386 66.8628 311.593 66.6426 312.87 66.6426C315.778 66.6426 318.049 67.8168 319.681 70.1655C321.312 72.5142 322.164 75.9637 322.164 80.6609C322.164 84.9913 321.312 88.5142 319.538 91.0096ZM308.968 80.6609C309.819 81.8353 311.167 82.4224 312.87 82.4224C314.573 82.4224 315.92 81.8353 316.914 80.7343C317.907 79.6334 318.404 78.0921 318.404 76.1839C318.404 74.2756 317.907 72.661 316.985 71.3398C316.062 70.0187 314.715 69.3582 313.082 69.3582C311.38 69.3582 310.033 69.9453 309.109 71.1196C308.187 72.294 307.69 73.9086 307.69 75.9637C307.62 77.9453 308.045 79.4866 308.968 80.6609Z" fill="white"/>
    <path d="M340.54 93.5786C340.54 93.652 340.469 93.7988 340.398 93.9456C340.327 94.0924 340.185 94.1658 340.114 94.1658C339.76 94.2392 339.333 94.3859 338.908 94.4593C338.483 94.5328 338.056 94.6062 337.631 94.6062C336.212 94.6062 335.006 94.1658 333.941 93.2851C332.878 92.4044 332.381 90.863 332.381 88.7347L332.452 76.9915H330.323C330.253 76.9915 330.111 76.9181 330.04 76.8447C329.969 76.7713 329.898 76.6245 329.898 76.5511V74.6428C329.898 74.5694 329.969 74.4226 330.04 74.3492C330.111 74.2759 330.253 74.2025 330.323 74.2025H332.452L332.381 69.5787C332.381 69.5053 332.452 69.3584 332.523 69.285C332.594 69.2116 332.736 69.1382 332.807 69.1382H335.503C335.574 69.1382 335.715 69.2116 335.787 69.285C335.857 69.3584 335.929 69.5053 335.929 69.5787L335.857 74.2025H340.256C340.327 74.2025 340.469 74.2759 340.54 74.3492C340.611 74.4226 340.682 74.5694 340.682 74.6428V76.5511C340.682 76.6245 340.611 76.7713 340.54 76.8447C340.469 76.9181 340.327 76.9915 340.256 76.9915H335.857L335.929 88.6613C335.929 89.8355 336.141 90.6428 336.496 91.1566C336.922 91.5971 337.489 91.8172 338.27 91.8172C338.625 91.8172 338.98 91.8172 339.333 91.7438C339.688 91.6704 339.972 91.6704 340.185 91.5971C340.256 91.5971 340.398 91.597 340.469 91.6704C340.54 91.7438 340.611 91.8172 340.611 91.8906V93.5786H340.54Z" fill="white"/>
    <path d="M356.928 91.8167C355.367 93.725 353.097 94.6791 350.117 94.6791C347.209 94.6791 344.938 93.725 343.378 91.8167C341.746 89.9085 340.965 87.4131 340.965 84.2571C340.965 81.1011 341.746 78.5323 343.378 76.6241C345.009 74.7158 347.209 73.7617 350.117 73.7617C353.026 73.7617 355.296 74.7158 356.928 76.6241C358.489 78.5323 359.341 81.1011 359.341 84.1837C359.341 87.3397 358.56 89.8351 356.928 91.8167ZM345.932 90.0553C346.854 91.4497 348.273 92.1104 350.189 92.1104C352.104 92.1104 353.452 91.4497 354.445 90.0553C355.367 88.6607 355.864 86.7526 355.864 84.2571C355.864 81.7617 355.367 79.8535 354.445 78.4589C353.523 77.0645 352.104 76.3304 350.189 76.3304C348.343 76.3304 346.924 77.0645 345.932 78.4589C345.009 79.8535 344.513 81.7617 344.513 84.2571C344.513 86.7526 344.938 88.6607 345.932 90.0553Z" fill="white"/>
    <path d="M298.752 127.487C298.681 127.487 298.54 127.413 298.468 127.34C298.398 127.266 298.326 127.119 298.326 127.046L298.468 113.982L298.398 104.514C297.688 105.248 296.908 105.835 295.985 106.349C295.063 106.862 294.141 107.303 293.076 107.596C293.006 107.596 292.864 107.596 292.793 107.523C292.722 107.449 292.651 107.376 292.651 107.303V105.101C292.651 105.028 292.722 104.881 292.793 104.734C292.864 104.587 292.934 104.514 293.076 104.514C294.141 104.073 295.134 103.56 296.056 102.826C296.979 102.165 297.688 101.358 298.326 100.55C298.398 100.477 298.468 100.33 298.61 100.33C298.752 100.257 298.823 100.257 298.965 100.257H301.59C301.661 100.257 301.803 100.33 301.874 100.404C301.945 100.477 302.016 100.624 302.016 100.697L301.803 114.716L302.016 127.119C302.016 127.193 301.945 127.34 301.874 127.413C301.803 127.487 301.661 127.56 301.59 127.56H298.752V127.487Z" fill="white"/>
    <path d="M321.525 124.258C319.751 126.753 317.41 128 314.501 128C312.301 128 310.528 127.413 309.251 126.313C307.974 125.211 307.194 123.523 306.909 121.395C306.909 121.321 306.981 121.175 307.051 121.101C307.123 121.028 307.194 120.954 307.336 120.954H309.96C310.032 120.954 310.174 121.028 310.244 121.101C310.315 121.175 310.386 121.321 310.386 121.395C310.528 122.569 311.024 123.523 311.734 124.184C312.443 124.845 313.437 125.211 314.714 125.211C316.629 125.211 318.048 124.331 319.042 122.569C320.034 120.808 320.531 118.386 320.531 115.23C319.964 116.257 319.112 117.065 317.977 117.652C316.843 118.239 315.566 118.532 314.147 118.532C311.734 118.532 309.747 117.725 308.258 116.184C306.768 114.569 305.987 112.441 305.987 109.798C305.987 108.404 306.201 107.083 306.626 105.835C307.051 104.587 307.69 103.56 308.47 102.679C309.252 101.798 310.174 101.138 311.309 100.624C312.373 100.11 313.579 99.8901 314.856 99.8901C317.765 99.8901 320.034 101.065 321.667 103.413C323.299 105.762 324.149 109.211 324.149 113.909C324.079 118.239 323.227 121.762 321.525 124.258ZM310.882 113.909C311.734 115.083 313.082 115.67 314.785 115.67C316.488 115.67 317.835 115.083 318.829 113.982C319.822 112.881 320.319 111.34 320.319 109.431C320.319 107.523 319.822 105.909 318.9 104.587C317.977 103.266 316.629 102.606 314.997 102.606C313.295 102.606 311.946 103.193 311.024 104.367C310.102 105.542 309.605 107.156 309.605 109.211C309.605 111.193 310.032 112.734 310.882 113.909Z" fill="white"/>
    <path d="M335.431 114.716C334.084 118.606 333.162 122.716 332.523 127.047C332.523 127.119 332.452 127.266 332.31 127.34C332.24 127.413 332.097 127.487 332.026 127.487H329.117C329.047 127.487 328.905 127.413 328.834 127.34C328.763 127.266 328.763 127.119 328.763 127.047C329.117 124.918 329.544 122.789 330.039 120.661C330.536 118.532 331.104 116.477 331.743 114.422C332.381 112.441 333.09 110.459 333.871 108.551C334.651 106.642 335.503 104.881 336.425 103.193H324.719C324.648 103.193 324.506 103.119 324.435 103.046C324.364 102.973 324.293 102.826 324.293 102.752V100.624C324.293 100.551 324.364 100.404 324.435 100.33C324.506 100.257 324.648 100.184 324.719 100.184H339.759C339.83 100.184 339.973 100.257 340.043 100.33C340.114 100.404 340.185 100.551 340.185 100.624V102.752C340.185 102.899 340.185 103.046 340.114 103.193C340.043 103.34 340.043 103.486 339.973 103.56C338.269 107.083 336.78 110.826 335.431 114.716Z" fill="white"/>
    <path d="M356.148 124.258C354.374 126.753 352.033 128 349.124 128C346.925 128 345.151 127.413 343.874 126.313C342.597 125.211 341.817 123.523 341.533 121.395C341.533 121.321 341.604 121.175 341.675 121.101C341.746 121.028 341.817 120.954 341.958 120.954H344.584C344.654 120.954 344.796 121.028 344.868 121.101C344.939 121.175 345.009 121.321 345.009 121.395C345.151 122.569 345.648 123.523 346.358 124.184C347.067 124.845 348.06 125.211 349.337 125.211C351.182 125.211 352.672 124.331 353.664 122.569C354.658 120.808 355.155 118.386 355.155 115.23C354.588 116.257 353.736 117.065 352.6 117.652C351.465 118.239 350.188 118.532 348.769 118.532C346.358 118.532 344.371 117.725 342.881 116.184C341.391 114.569 340.611 112.441 340.611 109.798C340.611 108.404 340.824 107.083 341.249 105.835C341.675 104.587 342.313 103.56 343.094 102.679C343.874 101.798 344.796 101.138 345.931 100.624C346.996 100.11 348.202 99.8901 349.479 99.8901C352.387 99.8901 354.658 101.065 356.29 103.413C357.921 105.762 358.773 109.211 358.773 113.909C358.773 118.239 357.921 121.762 356.148 124.258ZM345.577 113.909C346.428 115.083 347.777 115.67 349.479 115.67C351.182 115.67 352.53 115.083 353.523 113.982C354.516 112.881 355.013 111.34 355.013 109.431C355.013 107.523 354.516 105.909 353.594 104.587C352.672 103.266 351.323 102.606 349.691 102.606C347.989 102.606 346.641 103.193 345.719 104.367C344.796 105.542 344.3 107.156 344.3 109.211C344.229 111.193 344.726 112.734 345.577 113.909Z" fill="white"/>
    <path d="M0.851349 64.9541C0.638512 64.9541 0.425675 64.8807 0.283783 64.6605C0.0709458 64.4403 0 64.2935 0 64.0732L0.425675 35.7429L0 8.29332C0 8.07315 0.0709458 7.85296 0.283783 7.70616C0.49662 7.48599 0.638512 7.4126 0.851349 7.4126H6.73985C6.95269 7.4126 7.16552 7.48599 7.30741 7.70616C7.52026 7.92635 7.5912 8.07315 7.5912 8.29332L7.16552 35.6695L7.5912 63.9999C7.5912 64.22 7.52026 64.4403 7.30741 64.5871C7.09458 64.8073 6.95269 64.8807 6.73985 64.8807H0.851349V64.9541Z" fill="white"/>
    <path d="M23.1282 40.954L23.199 64.0732C23.199 64.2935 23.1282 64.5137 22.9153 64.6605C22.7024 64.8807 22.5605 64.9541 22.3477 64.9541H16.9558C16.7429 64.9541 16.5302 64.8807 16.3883 64.6605C16.1754 64.4403 16.1045 64.2935 16.1045 64.0732L16.5302 35.8163L16.1045 8.36673C16.1045 8.14654 16.1754 7.92635 16.3883 7.77957C16.601 7.55938 16.7429 7.48599 16.9558 7.48599H23.9795C24.2633 7.48599 24.4761 7.55938 24.7598 7.70616C24.9727 7.85296 25.1855 7.99974 25.3274 8.21993L54.3443 55.1926L54.2733 50.2017L54.1314 32.1466L53.9186 8.29332C53.9186 8.07315 53.9895 7.85296 54.2024 7.70616C54.4152 7.48599 54.5571 7.4126 54.7699 7.4126H60.1618C60.3746 7.4126 60.5875 7.48599 60.7294 7.70616C60.9422 7.92635 61.0132 8.07315 61.0132 8.29332L60.5875 35.7429L61.0132 64.0732C61.0132 64.2935 60.9422 64.5137 60.7294 64.6605C60.5165 64.8807 60.3746 64.9541 60.1618 64.9541H52.8544C52.5706 64.9541 52.3577 64.8807 52.0739 64.7339C51.8612 64.5871 51.6483 64.4403 51.5064 64.2202L22.7734 17.9081L22.9153 24.0732L23.1282 40.954Z" fill="white"/>
    <path d="M108.832 60.7717C104.646 64.2212 99.3956 65.9827 93.0815 65.9827C84.9936 65.9827 78.6085 63.3405 73.997 57.9826C69.3856 52.6249 67.1152 45.3588 67.1152 36.111C67.1152 31.634 67.7538 27.5239 68.9598 23.8542C70.1659 20.1844 71.8686 17.0284 74.1389 14.4597C76.3382 11.8908 79.1051 9.90917 82.2977 8.51468C85.5611 7.12017 89.1085 6.38623 93.0815 6.38623C95.8484 6.38623 98.4734 6.7532 100.956 7.41375C103.439 8.0743 105.71 9.24862 107.767 10.7899C109.754 12.4046 111.528 14.4597 112.946 17.0284C114.436 19.5972 115.501 22.6798 116.139 26.3495C116.21 26.5697 116.139 26.7899 115.996 26.9368C115.855 27.157 115.642 27.2304 115.429 27.2304H109.967C109.754 27.2304 109.54 27.157 109.328 26.9368C109.115 26.7165 108.973 26.5697 108.902 26.3495C108.051 21.7257 106.206 18.2762 103.369 16.0009C100.531 13.799 97.0544 12.6982 92.9396 12.6982C87.1929 12.6982 82.7234 14.8267 79.5308 19.0101C76.3382 23.1936 74.7774 28.9184 74.7774 36.111C74.7774 43.8175 76.4091 49.6891 79.6017 53.7258C82.8652 57.7625 87.2639 59.7442 92.9396 59.7442C97.48 59.7442 101.169 58.4965 104.078 55.9277C106.916 53.3588 108.69 49.6891 109.328 44.845C109.399 44.6248 109.47 44.4047 109.682 44.2579C109.895 44.0377 110.037 43.9643 110.25 43.9643H115.926C116.139 43.9643 116.351 44.0377 116.493 44.2579C116.635 44.4781 116.706 44.6248 116.706 44.845C115.642 51.9644 113.017 57.3221 108.832 60.7717Z" fill="white"/>
    <path d="M7.02466 105.028L7.09561 126.533C7.09561 126.753 7.02466 126.973 6.81183 127.12C6.599 127.341 6.4571 127.413 6.24426 127.413H1.06522C0.85238 127.413 0.639543 127.341 0.497651 127.12C0.284814 126.9 0.213867 126.753 0.213867 126.533L0.639543 99.1565L0.213867 70.8261C0.213867 70.606 0.284814 70.3858 0.497651 70.239C0.710489 70.0187 0.85238 69.9453 1.06522 69.9453H9.43682C9.64966 69.9453 9.8625 70.0187 10.1463 70.1656C10.4301 70.3124 10.572 70.5326 10.6429 70.7527L28.3085 117.725L45.4772 70.7527C45.5482 70.5326 45.6901 70.3124 45.9739 70.1656C46.2577 70.0187 46.4706 69.9453 46.6834 69.9453H54.4874C54.7002 69.9453 54.9131 70.0187 55.055 70.239C55.2678 70.4592 55.3388 70.606 55.3388 70.8261L54.9131 99.1565L55.3388 126.533C55.3388 126.753 55.2678 126.973 55.055 127.12C54.8421 127.341 54.7002 127.413 54.4874 127.413H48.6698C48.457 127.413 48.2441 127.341 48.1023 127.12C47.8895 126.9 47.8185 126.753 47.8185 126.533L47.8895 105.028L48.0314 87.4867L48.1732 80.0739L31.0753 126.607C31.0044 126.826 30.8625 127.047 30.5787 127.194C30.2949 127.341 30.082 127.413 29.8692 127.413H25.6835C25.4706 127.413 25.2578 127.341 24.9739 127.194C24.6901 127.047 24.5482 126.826 24.4773 126.607L6.74088 79.3398L6.88277 87.6335L7.02466 105.028Z" fill="white"/>
    <path d="M69.5276 104.808L69.5985 126.313C69.5985 126.533 69.5276 126.753 69.3147 126.9C69.1019 127.12 68.96 127.194 68.7471 127.194H63.5681C63.3552 127.194 63.1425 127.12 63.0006 126.9C62.7877 126.679 62.7168 126.533 62.7168 126.313L63.1425 98.9363L62.7168 70.6058C62.7168 70.3856 62.7877 70.1655 63.0006 70.0187C63.2134 69.7985 63.3552 69.7251 63.5681 69.7251H71.9397C72.1526 69.7251 72.3654 69.7985 72.6491 69.9453C72.9329 70.0921 73.0748 70.3122 73.1458 70.5324L90.8113 117.505L107.98 70.5324C108.051 70.3122 108.193 70.0921 108.477 69.9453C108.761 69.7985 108.974 69.7251 109.186 69.7251H116.99C117.204 69.7251 117.416 69.7985 117.557 70.0187C117.771 70.2388 117.842 70.3856 117.842 70.6058L117.416 98.9363L117.842 126.313C117.842 126.533 117.771 126.753 117.557 126.9C117.345 127.12 117.204 127.194 116.99 127.194H111.173C110.96 127.194 110.747 127.12 110.605 126.9C110.393 126.679 110.321 126.533 110.321 126.313L110.393 104.808L110.534 87.2665L110.676 79.8535L93.5781 126.386C93.5073 126.607 93.3654 126.826 93.0816 126.973C92.7978 127.12 92.5849 127.194 92.3721 127.194H88.1863C87.9735 127.194 87.7606 127.12 87.4768 126.973C87.193 126.826 87.0511 126.607 86.9803 126.386L69.2438 79.1196L69.3857 87.4133L69.5276 104.808Z" fill="white"/>
    <path d="M194.179 103.707L194.25 126.827C194.25 127.047 194.179 127.267 193.966 127.414C193.754 127.634 193.611 127.707 193.399 127.707H188.007C187.794 127.707 187.582 127.634 187.44 127.414C187.227 127.194 187.155 127.047 187.155 126.827L187.582 98.5696L187.155 71.1201C187.155 70.8998 187.227 70.6796 187.44 70.5328C187.652 70.3127 187.794 70.2393 188.007 70.2393H195.031C195.315 70.2393 195.527 70.3127 195.811 70.4594C196.024 70.6062 196.237 70.753 196.379 70.9732L225.395 117.946L225.325 112.955L225.183 94.8999L225.111 71.1935C225.111 70.9733 225.183 70.753 225.395 70.6062C225.608 70.386 225.75 70.3127 225.963 70.3127H231.355C231.567 70.3127 231.781 70.386 231.922 70.6062C232.136 70.8264 232.206 70.9733 232.206 71.1935L231.781 98.643L232.064 126.901C232.064 127.12 231.994 127.341 231.781 127.488C231.567 127.707 231.426 127.781 231.213 127.781H223.906C223.622 127.781 223.409 127.707 223.125 127.56C222.912 127.414 222.699 127.267 222.557 127.047L193.896 80.7348L194.038 86.8999L194.179 103.707Z" fill="white"/>
    <path fill-rule="evenodd" clip-rule="evenodd" d="M180.273 50.6415C180.273 55.3388 179.635 59.5223 178.287 63.3388C176.939 67.1553 175.094 70.458 172.683 73.0269C170.27 75.7425 167.361 77.7976 163.956 79.192C160.48 80.66 156.719 81.3939 152.675 81.3939C148.561 81.3939 144.801 80.66 141.466 79.1186C138.132 77.6508 135.222 75.5223 132.811 72.8801C130.399 70.2379 128.554 67.0085 127.206 63.192C125.929 59.3755 125.22 55.1921 125.22 50.4947C125.22 45.7241 125.858 41.4672 127.206 37.6507C128.483 33.8342 130.327 30.6048 132.74 27.9626C135.152 25.247 137.99 23.1919 141.395 21.7974C144.729 20.3295 148.561 19.6689 152.675 19.6689C156.862 19.6689 160.622 20.4029 163.956 21.7974C167.361 23.2653 170.27 25.3204 172.611 27.9626C175.024 30.6048 176.868 33.8342 178.217 37.6507C179.564 41.5406 180.203 45.8709 180.273 50.6415ZM133.165 50.7883C133.165 54.5314 133.591 57.9076 134.513 60.9167C135.436 63.9259 136.713 66.4214 138.415 68.5499C140.047 70.605 142.175 72.2196 144.659 73.3204C147.071 74.4214 149.766 75.0086 152.817 75.0086C155.868 75.0086 158.564 74.4214 160.977 73.3204C163.388 72.2196 165.445 70.605 167.149 68.5499C168.851 66.4948 170.129 63.9259 170.979 60.9167C171.831 57.9076 172.328 54.458 172.328 50.7149C172.328 46.9718 171.901 43.5223 170.979 40.5131C170.129 37.5039 168.851 34.9351 167.149 32.8066C165.445 30.6782 163.388 29.0635 160.977 27.9626C158.493 26.8617 155.726 26.2745 152.675 26.2745C149.624 26.2745 146.858 26.8617 144.446 27.9626C142.033 29.0635 139.976 30.6782 138.273 32.8066C136.571 34.8617 135.294 37.4305 134.442 40.5131C133.591 43.5957 133.095 46.9718 133.095 50.7149V50.7883H133.165Z" fill="white"/>
    <path fill-rule="evenodd" clip-rule="evenodd" d="M180.273 81.1018C180.273 85.7991 179.635 89.9826 178.287 93.7991C176.939 97.6156 175.094 100.918 172.683 103.487C170.27 106.203 167.361 108.258 163.956 109.652C160.48 111.12 156.719 111.854 152.675 111.854C148.561 111.854 144.801 111.12 141.466 109.579C138.132 108.111 135.222 105.983 132.811 103.34C130.399 100.698 128.554 97.4688 127.206 93.6523C125.929 89.8358 125.22 85.6524 125.22 81.0284C125.22 76.2578 125.858 72.0009 127.206 68.1844C128.483 64.3679 130.327 61.1385 132.74 58.4963C135.152 55.7807 137.99 53.7256 141.395 52.3311C144.729 50.8632 148.561 50.2026 152.675 50.2026C156.862 50.2026 160.622 50.9366 163.956 52.3311C167.361 53.799 170.27 55.8541 172.611 58.4963C175.024 61.1385 176.868 64.3679 178.217 68.1844C179.564 72.0009 180.203 76.2577 180.273 81.1018ZM133.165 81.1752C133.165 84.9183 133.591 88.2945 134.513 91.3036C135.436 94.3128 136.713 96.8083 138.415 98.9368C140.047 100.992 142.175 102.606 144.659 103.707C147.071 104.808 149.766 105.395 152.817 105.395C155.868 105.395 158.564 104.808 160.977 103.707C163.388 102.606 165.445 100.992 167.149 98.9368C168.851 96.8817 170.129 94.3128 170.979 91.3036C171.831 88.2945 172.328 84.9183 172.328 81.1018C172.328 77.3587 171.901 73.9092 170.979 70.9C170.129 67.8908 168.851 65.322 167.149 63.1935C165.445 61.0651 163.388 59.4504 160.977 58.3495C158.493 57.2485 155.726 56.6614 152.675 56.6614C149.624 56.6614 146.858 57.2485 144.446 58.3495C142.033 59.4504 139.976 61.0651 138.273 63.1935C136.571 65.2486 135.294 67.8174 134.442 70.9C133.591 73.9092 133.095 77.3587 133.095 81.1018V81.1752H133.165Z" fill="white"/>
    </svg>
    