<?xml version="1.0" encoding="utf-8"?>
<!-- Generator: Adobe Illustrator 24.1.0, SVG Export Plug-In . SVG Version: 6.00 Build 0)  -->
<svg version="1.1" id="Layer_1" xmlns="http://www.w3.org/2000/svg" xmlns:xlink="http://www.w3.org/1999/xlink" x="0px" y="0px"
	 viewBox="0 0 17.7 17.7" style="enable-background:new 0 0 17.7 17.7;" xml:space="preserve">
<style type="text/css">
	.st0{fill:#FFFFFF;}
</style>
<path class="st0" d="M17.6,3.4l-3.3-3.3C14.2,0,14.1,0,14,0l-3.9,0.2c-0.1,0-0.2,0-0.2,0.1L0.1,10c-0.1,0.1-0.1,0.4,0,0.5l7,7
	c0.1,0.1,0.2,0.1,0.3,0.1c0.1,0,0.2,0,0.3-0.1l9.7-9.7c0.1-0.1,0.1-0.1,0.1-0.2l0.2-3.9C17.7,3.6,17.6,3.5,17.6,3.4z M16.7,7.4
	l-9.4,9.3l-6.5-6.5l9.4-9.3l3.6-0.2l3.1,3.1L16.7,7.4z M12.7,3c-0.5,0.5-0.5,1.4,0,2c0.3,0.3,0.6,0.4,1,0.4c0.4,0,0.7-0.1,1-0.4
	c0.5-0.5,0.5-1.4,0-2C14.1,2.4,13.3,2.4,12.7,3z M14.2,3.5c0.3,0.3,0.3,0.7,0,0.9c-0.3,0.3-0.7,0.3-0.9,0c-0.3-0.3-0.3-0.7,0-0.9
	c0,0,0,0,0,0h0C13.5,3.2,13.9,3.2,14.2,3.5z"/>
</svg>
