<svg
  width={'100%'}
  height={600}
  version="1.1"
  id="Livello_1"
  // xmlns="http://www.w3.org/2000/svg"
  // xmlns:xlink="http://www.w3.org/1999/xlink"
  x="0px"
  fill="#FFFFFF;"
  y="0px"
  viewBox="0 0 566.9 226.8"
>
  {/* <style type="text/css">
.st0{fill:#FFFFFF;}
.st1{fill-rule:evenodd;clip-rule:evenodd;fill:#FFFFFF;}
</style> */}
  <g>
    <g>
      <path
        className="st0"
        d="M317.5,57c-0.5,1.7-1.2,3.2-2.2,4.5c-1,1.3-2.1,2.3-3.6,3c-1.4,0.7-3,1.1-4.8,1.1c-1.9,0-3.6-0.4-5-1.2
c-1.4-0.8-2.6-1.9-3.5-3.4l0.1,12.5c0,0.1-0.1,0.3-0.2,0.4c-0.1,0.1-0.3,0.2-0.4,0.2h-3.8c-0.1,0-0.3-0.1-0.4-0.2
c-0.1-0.1-0.2-0.3-0.2-0.4l0.2-20.3l-0.2-14.8c0-0.1,0.1-0.3,0.2-0.4c0.1-0.1,0.3-0.2,0.4-0.2h3.7c0.1,0,0.3,0.1,0.4,0.2
c0.1,0.1,0.2,0.3,0.2,0.4l-0.1,3.8c0.9-1.5,2.1-2.7,3.6-3.6c1.5-0.9,3.2-1.3,5.1-1.3c1.8,0,3.5,0.4,4.9,1.1c1.4,0.7,2.6,1.7,3.5,3
c0.9,1.3,1.7,2.7,2.1,4.5c0.5,1.7,0.7,3.6,0.7,5.6C318.2,53.4,318,55.2,317.5,57z M300,59.2c1.3,1.9,3.2,2.9,5.6,2.9
c2.6,0,4.6-1,5.9-2.9c1.3-1.9,1.9-4.4,1.9-7.4c0-3.2-0.6-5.9-1.9-7.9c-1.3-2-3.2-3-5.8-3c-2.3,0-4.1,0.9-5.5,2.6
c-1.4,1.8-2.1,4.3-2.1,7.7C298.1,54.7,298.7,57.3,300,59.2z"
      />
      <path
        className="st0"
        d="M345.9,55.6c0.1,0,0.3,0.1,0.4,0.2c0.1,0.1,0.1,0.3,0.1,0.4c-0.4,2.8-1.7,5-3.7,6.8c-2,1.8-4.8,2.7-8.2,2.7
c-2.1,0-4-0.4-5.6-1.1c-1.6-0.7-3-1.7-4.1-2.9c-1.1-1.2-1.9-2.7-2.5-4.5c-0.6-1.7-0.8-3.7-0.8-5.8c0-2.1,0.3-4.1,0.9-5.8
c0.6-1.8,1.4-3.3,2.5-4.5c1.1-1.3,2.4-2.2,4-2.9c1.6-0.7,3.3-1.1,5.3-1.1c3.9,0,7,1.3,9.2,3.8c2.2,2.6,3.4,6.1,3.5,10.5
c0,0.1-0.1,0.3-0.2,0.4c-0.1,0.1-0.3,0.2-0.4,0.2h-20c0.1,3.3,0.8,5.8,2.2,7.5c1.4,1.7,3.4,2.6,6,2.6c2,0,3.6-0.5,4.8-1.5
c1.2-1,2-2.5,2.5-4.5c0-0.2,0.1-0.3,0.3-0.4c0.1-0.1,0.3-0.2,0.4-0.2H345.9z M339.7,43.1c-1.2-1.6-3.1-2.4-5.5-2.4
c-2.2,0-4,0.7-5.3,2.1c-1.3,1.4-2.1,3.4-2.5,5.9h15.2C341.6,46.6,340.9,44.7,339.7,43.1z"
      />
      <path
        className="st0"
        d="M351.2,65.1c-0.1,0-0.3-0.1-0.4-0.2c-0.1-0.1-0.2-0.3-0.2-0.4l0.2-13.4l-0.2-12.8c0-0.1,0.1-0.3,0.2-0.4
c0.1-0.1,0.3-0.2,0.4-0.2h3.7c0.1,0,0.3,0.1,0.4,0.2c0.1,0.1,0.2,0.3,0.2,0.4l-0.2,4.6c1-1.8,2.3-3.2,3.9-4.1
c1.6-0.9,3.4-1.4,5.3-1.4c0.2,0,0.5,0,0.8,0.1c0.3,0,0.5,0.1,0.7,0.1c0.1,0,0.3,0.1,0.4,0.2c0.1,0.1,0.2,0.3,0.2,0.4v2.8
c0,0.2-0.1,0.3-0.2,0.4c-0.1,0.1-0.3,0.1-0.4,0.1c-0.2,0-0.5-0.1-0.7-0.1c-0.3,0-0.5,0-0.8,0c-2.2,0-4.2,0.7-5.9,2.1
c-1.7,1.4-2.8,3.6-3.1,6.5l0.1,14.4c0,0.1-0.1,0.3-0.2,0.4c-0.1,0.1-0.3,0.2-0.4,0.2H351.2z"
      />
      <path
        className="st0"
        d="M377.2,52.8l0.2,11.7c0,0.1-0.1,0.3-0.2,0.4c-0.1,0.1-0.3,0.2-0.4,0.2h-3.9c-0.1,0-0.3-0.1-0.4-0.2
c-0.1-0.1-0.2-0.3-0.2-0.4l0.2-11.7V41.5h-3.7c-0.1,0-0.3-0.1-0.4-0.2c-0.1-0.1-0.2-0.3-0.2-0.4v-2.5c0-0.1,0.1-0.3,0.2-0.4
c0.1-0.1,0.3-0.2,0.4-0.2h3.7v-2.4c0-1.5,0.2-2.7,0.6-3.8c0.4-1,1-1.9,1.6-2.5c0.7-0.6,1.4-1.1,2.3-1.4c0.8-0.3,1.7-0.4,2.6-0.4
c0.6,0,1.2,0,1.8,0.1c0.6,0.1,1.2,0.2,1.6,0.3c0.1,0,0.3,0.1,0.4,0.3c0.1,0.1,0.2,0.3,0.2,0.4v2.5c0,0.1-0.1,0.3-0.2,0.3
c-0.1,0.1-0.3,0.1-0.4,0.1c-0.4-0.1-0.7-0.1-1.1-0.2c-0.4-0.1-0.8-0.1-1.3-0.1c-1.1,0-2,0.4-2.6,1.1c-0.6,0.7-0.9,2-0.9,3.7v2h5.8
c0.1,0,0.3,0.1,0.4,0.2c0.1,0.1,0.2,0.3,0.2,0.4V41c0,0.1-0.1,0.3-0.2,0.4c-0.1,0.1-0.3,0.2-0.4,0.2h-5.8V52.8z"
      />
      <path
        className="st0"
        d="M406.1,61.8c-2.2,2.6-5.4,3.9-9.6,3.9c-4.1,0-7.3-1.3-9.5-3.9c-2.3-2.6-3.4-6-3.4-10.3
c0-4.3,1.1-7.8,3.4-10.4c2.3-2.6,5.4-3.9,9.5-3.9c4.1,0,7.3,1.3,9.6,3.9c2.2,2.6,3.4,6.1,3.4,10.3S408.4,59.2,406.1,61.8z
M390.6,59.4c1.3,1.9,3.3,2.8,6,2.8c2.7,0,4.6-0.9,6-2.8c1.3-1.9,2-4.5,2-7.9s-0.7-6-2-7.9c-1.3-1.9-3.3-2.9-6-2.9
c-2.6,0-4.6,1-6,2.9c-1.3,1.9-2,4.5-2,7.9S389.2,57.6,390.6,59.4z"
      />
      <path
        className="st0"
        d="M413.5,65.1c-0.1,0-0.3-0.1-0.4-0.2c-0.1-0.1-0.2-0.3-0.2-0.4l0.2-13.4l-0.2-12.8c0-0.1,0.1-0.3,0.2-0.4
c0.1-0.1,0.3-0.2,0.4-0.2h3.7c0.1,0,0.3,0.1,0.4,0.2c0.1,0.1,0.2,0.3,0.2,0.4l-0.2,4.6c1-1.8,2.3-3.2,3.9-4.1
c1.6-0.9,3.4-1.4,5.3-1.4c0.2,0,0.5,0,0.8,0.1c0.3,0,0.5,0.1,0.7,0.1c0.1,0,0.3,0.1,0.4,0.2c0.1,0.1,0.2,0.3,0.2,0.4v2.8
c0,0.2-0.1,0.3-0.2,0.4c-0.1,0.1-0.3,0.1-0.4,0.1c-0.2,0-0.5-0.1-0.7-0.1c-0.3,0-0.5,0-0.8,0c-2.2,0-4.2,0.7-5.9,2.1
c-1.7,1.4-2.8,3.6-3.1,6.5l0.1,14.4c0,0.1-0.1,0.3-0.2,0.4c-0.1,0.1-0.3,0.2-0.4,0.2H413.5z"
      />
      <path
        className="st0"
        d="M436.1,54.5l0.2,10.1c0,0.1-0.1,0.3-0.2,0.4c-0.1,0.1-0.3,0.2-0.4,0.2h-3.9c-0.1,0-0.3-0.1-0.4-0.2
c-0.1-0.1-0.2-0.3-0.2-0.4l0.2-10.1l-0.2-16.1c0-0.1,0.1-0.3,0.2-0.4c0.1-0.1,0.3-0.2,0.4-0.2h3.6c0.1,0,0.3,0.1,0.4,0.2
c0.1,0.1,0.2,0.3,0.2,0.4l-0.2,4c0.8-1.4,2-2.6,3.3-3.7c1.4-1,3.1-1.6,5.1-1.6c1.9,0,3.6,0.5,5,1.4c1.4,1,2.3,2.4,2.9,4.3
c1-1.9,2.2-3.3,3.6-4.3c1.4-1,3.1-1.5,5-1.5c2.6,0,4.7,0.9,6.3,2.6c1.5,1.8,2.3,4.5,2.3,8.2v6.5l0.1,10.1c0,0.1-0.1,0.3-0.2,0.4
c-0.1,0.1-0.3,0.2-0.4,0.2h-3.8c-0.1,0-0.3-0.1-0.4-0.2c-0.1-0.1-0.2-0.3-0.2-0.4l0.2-10.1v-6.3c0-2.5-0.5-4.4-1.4-5.5
c-1-1.1-2.2-1.7-3.8-1.7c-1.4,0-2.8,0.6-3.9,1.9c-1.2,1.3-2.1,3-2.6,5.2v6.3l0.2,10.1c0,0.1-0.1,0.3-0.2,0.4
c-0.1,0.1-0.3,0.2-0.4,0.2h-3.9c-0.1,0-0.3-0.1-0.4-0.2c-0.1-0.1-0.2-0.3-0.2-0.4l0.2-10.1v-6.3c0-2.5-0.5-4.4-1.4-5.5
c-1-1.1-2.2-1.7-3.9-1.7c-1.6,0-3,0.7-4.2,2.2c-1.2,1.4-2.1,3.5-2.6,6.1V54.5z"
      />
      <path
        className="st0"
        d="M474.5,65.1c-0.1,0-0.3-0.1-0.4-0.2c-0.1-0.1-0.2-0.3-0.2-0.4l0.2-13.5l-0.2-12.7c0-0.1,0.1-0.3,0.2-0.4
c0.1-0.1,0.3-0.2,0.4-0.2h3.8c0.1,0,0.3,0.1,0.4,0.2c0.1,0.1,0.2,0.3,0.2,0.4L478.7,51l0.2,13.5c0,0.1-0.1,0.3-0.2,0.4
c-0.1,0.1-0.3,0.2-0.4,0.2H474.5z M474.5,34.4c-0.1,0-0.3-0.1-0.4-0.2c-0.1-0.1-0.2-0.3-0.2-0.4v-4.1c0-0.1,0.1-0.3,0.2-0.4
c0.1-0.1,0.3-0.2,0.4-0.2h3.8c0.1,0,0.3,0.1,0.4,0.2c0.1,0.1,0.2,0.3,0.2,0.4v4.1c0,0.1-0.1,0.3-0.2,0.4c-0.1,0.1-0.3,0.2-0.4,0.2
H474.5z"
      />
      <path
        className="st0"
        d="M484.2,65.1c-0.1,0-0.3-0.1-0.4-0.2c-0.1-0.1-0.2-0.3-0.2-0.4l0.2-11.9l-0.2-14.3c0-0.1,0.1-0.3,0.2-0.4
c0.1-0.1,0.3-0.2,0.4-0.2h3.5c0.1,0,0.3,0.1,0.4,0.2c0.1,0.1,0.2,0.3,0.2,0.4l-0.2,4c0.8-1.4,2-2.6,3.6-3.7
c1.5-1.1,3.4-1.6,5.5-1.6c2.8,0,5,0.9,6.7,2.8c1.6,1.8,2.5,4.5,2.5,8.1v5.5l0.1,11.1c0,0.1-0.1,0.3-0.2,0.4
c-0.1,0.1-0.3,0.2-0.4,0.2h-3.7c-0.1,0-0.3-0.1-0.4-0.2c-0.1-0.1-0.2-0.3-0.2-0.4l0.1-11.1v-5.2c0-2.4-0.5-4.2-1.6-5.4
c-1.1-1.2-2.5-1.7-4.2-1.7c-1.8,0-3.4,0.7-4.7,2.1c-1.3,1.4-2.3,3.5-2.8,6.1v4.1l0.1,11.1c0,0.1-0.1,0.3-0.2,0.4
c-0.1,0.1-0.3,0.2-0.4,0.2H484.2z"
      />
      <path
        className="st0"
        d="M531.4,72.3c-2.1,2.1-5.1,3.2-9,3.2c-1.6,0-3-0.1-4.4-0.5c-1.4-0.3-2.6-0.8-3.6-1.5c-1-0.7-1.9-1.5-2.5-2.6
c-0.7-1.1-1-2.3-1.1-3.8c0-0.1,0-0.3,0.1-0.4c0.1-0.1,0.3-0.2,0.4-0.2h3.6c0.2,0,0.3,0.1,0.5,0.2c0.1,0.1,0.2,0.2,0.2,0.4
c0.2,1.6,1,2.8,2.3,3.6c1.3,0.8,2.9,1.2,4.7,1.2c2.3,0,4.2-0.7,5.5-2.1s2-3.6,2-6.7v-3c-0.9,1.5-2,2.7-3.5,3.5
c-1.4,0.8-3.1,1.2-5,1.2c-1.9,0-3.6-0.3-5-1c-1.4-0.7-2.7-1.6-3.6-2.8c-1-1.2-1.7-2.6-2.2-4.3c-0.5-1.7-0.7-3.5-0.7-5.4
c0-1.9,0.3-3.7,0.8-5.4c0.5-1.7,1.3-3.2,2.2-4.5c1-1.3,2.2-2.3,3.6-3c1.4-0.7,3-1.1,4.8-1.1c1.9,0,3.6,0.4,5,1.2
c1.4,0.8,2.6,2,3.5,3.5l-0.1-3.7c0-0.1,0.1-0.3,0.2-0.4c0.1-0.1,0.3-0.2,0.4-0.2h3.7c0.1,0,0.3,0.1,0.4,0.2
c0.1,0.1,0.2,0.3,0.2,0.4l-0.2,10.3l0.1,14.5C534.5,67.1,533.5,70.2,531.4,72.3z M516.6,58.9c1.3,1.8,3.3,2.7,5.9,2.6
c2.2,0,4-0.8,5.4-2.4c1.3-1.6,2-4.1,2.1-7.5c0-3.2-0.5-5.7-1.7-7.6c-1.2-1.9-2.9-2.9-5-3.1c-0.1,0-0.3-0.1-0.7-0.1h-0.7
c-2.4,0.1-4.2,1.1-5.4,3c-1.2,1.9-1.8,4.3-1.8,7.4C514.7,54.5,515.3,57.1,516.6,58.9z"
      />
      <path
        className="st0"
        d="M319.7,110.4c-0.1,0-0.3-0.1-0.4-0.2c-0.1-0.1-0.2-0.3-0.2-0.4l0.1-3.9c-0.9,1.6-2.1,2.8-3.6,3.7
c-1.5,0.9-3.2,1.3-5.1,1.3c-1.8,0-3.5-0.4-4.9-1.1c-1.4-0.7-2.6-1.7-3.5-3s-1.7-2.8-2.1-4.5c-0.5-1.7-0.7-3.6-0.7-5.5
s0.3-3.8,0.8-5.6c0.5-1.7,1.2-3.2,2.2-4.5c1-1.3,2.1-2.3,3.6-3c1.4-0.7,3-1.1,4.8-1.1c1.9,0,3.6,0.4,5.1,1.2
c1.5,0.8,2.7,2,3.6,3.5l-0.1-3.6c0-0.1,0.1-0.3,0.2-0.4c0.1-0.1,0.3-0.2,0.4-0.2h3.7c0.1,0,0.3,0.1,0.4,0.2
c0.1,0.1,0.2,0.3,0.2,0.4l-0.2,12.8l0.2,13.3c0,0.1-0.1,0.3-0.2,0.4c-0.1,0.1-0.3,0.2-0.4,0.2H319.7z M306,104.4
c1.3,2,3.2,3,5.8,3c2.3,0,4.2-0.9,5.5-2.6c1.4-1.7,2.1-4.3,2.1-7.8c0-3.2-0.5-5.8-1.7-7.7c-1.2-1.9-2.8-2.9-5-3.2
c-0.1,0-0.3-0.1-0.7-0.1h-0.7c-2.4,0.1-4.2,1.2-5.4,3c-1.2,1.9-1.7,4.3-1.7,7.3C304.1,99.7,304.8,102.4,306,104.4z"
      />
      <path
        className="st0"
        d="M329.1,110.4c-0.1,0-0.3-0.1-0.4-0.2c-0.1-0.1-0.2-0.3-0.2-0.4l0.2-13.4l-0.2-12.8c0-0.1,0.1-0.3,0.2-0.4
c0.1-0.1,0.3-0.2,0.4-0.2h3.7c0.1,0,0.3,0.1,0.4,0.2c0.1,0.1,0.2,0.3,0.2,0.4l-0.2,4.6c1-1.8,2.3-3.2,3.9-4.1
c1.6-0.9,3.4-1.4,5.3-1.4c0.2,0,0.5,0,0.8,0.1c0.3,0,0.5,0.1,0.7,0.1c0.1,0,0.3,0.1,0.4,0.2c0.1,0.1,0.2,0.3,0.2,0.4v2.8
c0,0.2-0.1,0.3-0.2,0.4c-0.1,0.1-0.3,0.1-0.4,0.1c-0.2,0-0.5-0.1-0.7-0.1c-0.3,0-0.5,0-0.8,0c-2.2,0-4.2,0.7-5.9,2.1
c-1.7,1.4-2.8,3.6-3.1,6.5l0.1,14.4c0,0.1-0.1,0.3-0.2,0.4c-0.1,0.1-0.3,0.2-0.4,0.2H329.1z"
      />
      <path
        className="st0"
        d="M361.2,109.5c0,0.1-0.1,0.3-0.2,0.4c-0.1,0.2-0.3,0.3-0.4,0.3c-0.5,0.1-1.1,0.3-1.7,0.4
c-0.6,0.1-1.2,0.2-1.8,0.2c-2,0-3.7-0.6-5.2-1.8c-1.5-1.2-2.2-3.3-2.2-6.2l0.1-16h-3c-0.1,0-0.3-0.1-0.4-0.2
c-0.1-0.1-0.2-0.3-0.2-0.4v-2.6c0-0.1,0.1-0.3,0.2-0.4c0.1-0.1,0.3-0.2,0.4-0.2h3l-0.1-6.3c0-0.1,0.1-0.3,0.2-0.4
c0.1-0.1,0.3-0.2,0.4-0.2h3.8c0.1,0,0.3,0.1,0.4,0.2c0.1,0.1,0.2,0.3,0.2,0.4l-0.1,6.3h6.2c0.1,0,0.3,0.1,0.4,0.2
c0.1,0.1,0.2,0.3,0.2,0.4v2.6c0,0.1-0.1,0.3-0.2,0.4c-0.1,0.1-0.3,0.2-0.4,0.2h-6.2l0.1,15.9c0,1.6,0.3,2.7,0.8,3.4
c0.6,0.6,1.4,0.9,2.5,0.9c0.5,0,1,0,1.5-0.1c0.5-0.1,0.9-0.1,1.2-0.2c0.1,0,0.3,0,0.4,0.1c0.1,0.1,0.2,0.2,0.2,0.3V109.5z"
      />
      <path
        className="st0"
        d="M385.8,106.2c-0.6,1-1.4,1.9-2.4,2.6c-1,0.7-2.2,1.3-3.6,1.6c-1.4,0.4-2.9,0.6-4.5,0.6
c-3.5,0-6.4-0.8-8.7-2.4c-2.3-1.6-3.5-3.9-3.6-7.1c0-0.1,0.1-0.3,0.2-0.4c0.1-0.1,0.3-0.2,0.4-0.2h3.5c0.1,0,0.3,0.1,0.4,0.2
c0.1,0.1,0.2,0.3,0.2,0.4c0.1,2.1,0.8,3.7,2.1,4.7c1.3,1,3.2,1.5,5.6,1.5c2,0,3.6-0.4,4.8-1.2c1.2-0.8,1.8-2,1.8-3.5
c0-1.8-1-2.9-2.9-3.4c-1.9-0.5-4-0.9-6.3-1.4c-2.3-0.4-4.4-1.1-6.3-2.1c-1.9-1-2.9-2.8-2.9-5.6c0-2.6,1-4.6,3-6c2-1.4,4.6-2,7.8-2
c3.1,0,5.8,0.7,7.9,2c2.1,1.4,3.3,3.4,3.5,6.2c0,0.1,0,0.3-0.1,0.4c-0.1,0.1-0.3,0.2-0.4,0.2h-3.3c-0.1,0-0.3-0.1-0.4-0.2
c-0.1-0.1-0.2-0.2-0.2-0.4c-0.2-1.7-0.9-2.9-2.1-3.7c-1.3-0.8-2.8-1.2-4.7-1.2c-1.8,0-3.3,0.4-4.4,1.1c-1.1,0.7-1.7,1.8-1.7,3.3
c0,1.7,1,2.8,2.9,3.2c1.9,0.4,4,0.8,6.3,1.2c2.3,0.4,4.4,1.1,6.3,2.1c1.9,1,2.9,2.9,2.9,5.8C386.7,103.9,386.4,105.1,385.8,106.2z
"
      />
      <path
        className="st0"
        d="M399.7,110.4c-0.1,0-0.3-0.1-0.4-0.2c-0.1-0.1-0.2-0.3-0.2-0.4l0.2-13.5l-0.2-12.7c0-0.1,0.1-0.3,0.2-0.4
c0.1-0.1,0.3-0.2,0.4-0.2h3.8c0.1,0,0.3,0.1,0.4,0.2c0.1,0.1,0.2,0.3,0.2,0.4l-0.2,12.6l0.2,13.5c0,0.1-0.1,0.3-0.2,0.4
c-0.1,0.1-0.3,0.2-0.4,0.2H399.7z M399.8,79.7c-0.1,0-0.3-0.1-0.4-0.2c-0.1-0.1-0.2-0.3-0.2-0.4v-4.1c0-0.1,0.1-0.3,0.2-0.4
c0.1-0.1,0.3-0.2,0.4-0.2h3.8c0.1,0,0.3,0.1,0.4,0.2c0.1,0.1,0.2,0.3,0.2,0.4v4.1c0,0.1-0.1,0.3-0.2,0.4c-0.1,0.1-0.3,0.2-0.4,0.2
H399.8z"
      />
      <path
        className="st0"
        d="M409.5,110.4c-0.1,0-0.3-0.1-0.4-0.2c-0.1-0.1-0.2-0.3-0.2-0.4l0.2-11.9l-0.2-14.3c0-0.1,0.1-0.3,0.2-0.4
c0.1-0.1,0.3-0.2,0.4-0.2h3.5c0.1,0,0.3,0.1,0.4,0.2c0.1,0.1,0.2,0.3,0.2,0.4l-0.2,4c0.8-1.4,2-2.6,3.6-3.7
c1.5-1.1,3.4-1.6,5.5-1.6c2.8,0,5,0.9,6.7,2.8c1.6,1.8,2.5,4.5,2.5,8.1v5.5l0.1,11.1c0,0.1-0.1,0.3-0.2,0.4
c-0.1,0.1-0.3,0.2-0.4,0.2h-3.7c-0.1,0-0.3-0.1-0.4-0.2c-0.1-0.1-0.2-0.3-0.2-0.4l0.1-11.1v-5.2c0-2.4-0.5-4.2-1.6-5.4
c-1.1-1.2-2.5-1.7-4.2-1.7c-1.8,0-3.4,0.7-4.7,2.1c-1.3,1.4-2.3,3.5-2.8,6.1v4.1l0.1,11.1c0,0.1-0.1,0.3-0.2,0.4
c-0.1,0.1-0.3,0.2-0.4,0.2H409.5z"
      />
      <path
        className="st0"
        d="M446.2,110.4c-0.1,0-0.3-0.1-0.4-0.2c-0.1-0.1-0.2-0.3-0.2-0.4l0.3-18.3l-0.3-17.6c0-0.1,0.1-0.3,0.2-0.4
c0.1-0.1,0.3-0.2,0.4-0.2h3.9c0.1,0,0.3,0.1,0.4,0.2c0.1,0.1,0.2,0.3,0.2,0.4l-0.3,17.6l0.3,18.3c0,0.1-0.1,0.3-0.2,0.4
c-0.1,0.1-0.3,0.2-0.4,0.2H446.2z"
      />
      <path
        className="st0"
        d="M470.5,109.5c0,0.1-0.1,0.3-0.2,0.4c-0.1,0.2-0.3,0.3-0.4,0.3c-0.5,0.1-1.1,0.3-1.7,0.4
c-0.6,0.1-1.2,0.2-1.8,0.2c-2,0-3.7-0.6-5.2-1.8c-1.5-1.2-2.2-3.3-2.2-6.2l0.1-16h-3c-0.1,0-0.3-0.1-0.4-0.2
c-0.1-0.1-0.2-0.3-0.2-0.4v-2.6c0-0.1,0.1-0.3,0.2-0.4c0.1-0.1,0.3-0.2,0.4-0.2h3l-0.1-6.3c0-0.1,0.1-0.3,0.2-0.4
c0.1-0.1,0.3-0.2,0.4-0.2h3.8c0.1,0,0.3,0.1,0.4,0.2c0.1,0.1,0.2,0.3,0.2,0.4l-0.1,6.3h6.2c0.1,0,0.3,0.1,0.4,0.2
c0.1,0.1,0.2,0.3,0.2,0.4v2.6c0,0.1-0.1,0.3-0.2,0.4c-0.1,0.1-0.3,0.2-0.4,0.2h-6.2l0.1,15.9c0,1.6,0.3,2.7,0.8,3.4
c0.6,0.6,1.4,0.9,2.5,0.9c0.5,0,1,0,1.5-0.1c0.5-0.1,0.9-0.1,1.2-0.2c0.1,0,0.3,0,0.4,0.1c0.1,0.1,0.2,0.2,0.2,0.3V109.5z"
      />
      <path
        className="st0"
        d="M493,110.4c-0.1,0-0.3-0.1-0.4-0.2c-0.1-0.1-0.2-0.3-0.2-0.4l0.1-3.9c-0.9,1.6-2.1,2.8-3.6,3.7
c-1.5,0.9-3.2,1.3-5.1,1.3c-1.8,0-3.5-0.4-4.9-1.1c-1.4-0.7-2.6-1.7-3.5-3c-0.9-1.3-1.7-2.8-2.1-4.5c-0.5-1.7-0.7-3.6-0.7-5.5
s0.3-3.8,0.8-5.6c0.5-1.7,1.2-3.2,2.2-4.5c1-1.3,2.1-2.3,3.6-3c1.4-0.7,3-1.1,4.8-1.1c1.9,0,3.6,0.4,5.1,1.2
c1.5,0.8,2.7,2,3.6,3.5l-0.1-3.6c0-0.1,0.1-0.3,0.2-0.4c0.1-0.1,0.3-0.2,0.4-0.2h3.7c0.1,0,0.3,0.1,0.4,0.2
c0.1,0.1,0.2,0.3,0.2,0.4l-0.2,12.8l0.2,13.3c0,0.1-0.1,0.3-0.2,0.4c-0.1,0.1-0.3,0.2-0.4,0.2H493z M479.3,104.4
c1.3,2,3.2,3,5.8,3c2.3,0,4.2-0.9,5.5-2.6c1.4-1.7,2.1-4.3,2.1-7.8c0-3.2-0.5-5.8-1.7-7.7c-1.2-1.9-2.8-2.9-5-3.2
c-0.1,0-0.3-0.1-0.7-0.1h-0.7c-2.4,0.1-4.2,1.2-5.4,3c-1.2,1.9-1.7,4.3-1.7,7.3C477.4,99.7,478,102.4,479.3,104.4z"
      />
      <path
        className="st0"
        d="M504.4,110.4c-0.1,0-0.3-0.1-0.4-0.2c-0.1-0.1-0.2-0.3-0.2-0.4l0.2-18.2l-0.2-17.8c0-0.1,0.1-0.3,0.2-0.4
c0.1-0.1,0.3-0.2,0.4-0.2h3.7c0.1,0,0.3,0.1,0.4,0.2c0.1,0.1,0.2,0.3,0.2,0.4l-0.2,17.7l0.2,18.2c0,0.1-0.1,0.3-0.2,0.4
c-0.1,0.1-0.3,0.2-0.4,0.2H504.4z"
      />
      <path
        className="st0"
        d="M525.2,118.9c0,0.1-0.1,0.3-0.3,0.4c-0.2,0.1-0.3,0.2-0.5,0.2H521c-0.1,0-0.2-0.1-0.3-0.2
c-0.1-0.1-0.1-0.2-0.1-0.4l2.9-8.5l-10.7-26.8c0-0.1,0-0.3,0.1-0.4c0.1-0.1,0.2-0.2,0.3-0.2h4.2c0.1,0,0.3,0.1,0.5,0.2
c0.2,0.1,0.3,0.2,0.3,0.4l7.7,20.5l6.6-20.5c0-0.1,0.1-0.3,0.3-0.4c0.2-0.1,0.3-0.2,0.5-0.2h3.8c0.1,0,0.2,0.1,0.3,0.2
c0.1,0.1,0.1,0.2,0.1,0.4L525.2,118.9z"
      />
      <path
        className="st0"
        d="M392.4,155.7c-0.1,0-0.3-0.1-0.4-0.2c-0.1-0.1-0.2-0.3-0.2-0.4l0.2-17.8l-0.1-12.9c-1,1-2.1,1.8-3.4,2.5
c-1.3,0.7-2.6,1.3-4.1,1.7c-0.1,0-0.3,0-0.4-0.1c-0.1-0.1-0.2-0.2-0.2-0.3v-3c0-0.1,0.1-0.3,0.2-0.5c0.1-0.2,0.2-0.3,0.4-0.3
c1.5-0.6,2.9-1.3,4.2-2.3c1.3-0.9,2.3-2,3.2-3.1c0.1-0.1,0.2-0.3,0.4-0.3c0.2-0.1,0.3-0.1,0.5-0.1h3.7c0.1,0,0.3,0.1,0.4,0.2
c0.1,0.1,0.2,0.3,0.2,0.4l-0.3,19.1l0.3,16.9c0,0.1-0.1,0.3-0.2,0.4c-0.1,0.1-0.3,0.2-0.4,0.2H392.4z"
      />
      <path
        className="st0"
        d="M424.4,151.3c-2.5,3.4-5.8,5.1-9.9,5.1c-3.1,0-5.6-0.8-7.4-2.3c-1.8-1.5-2.9-3.8-3.3-6.7
c0-0.1,0.1-0.3,0.2-0.4c0.1-0.1,0.2-0.2,0.4-0.2h3.7c0.1,0,0.3,0.1,0.4,0.2c0.1,0.1,0.2,0.3,0.2,0.4c0.2,1.6,0.9,2.9,1.9,3.8
c1,0.9,2.4,1.4,4.2,1.4c2.7,0,4.7-1.2,6.1-3.6c1.4-2.4,2.1-5.7,2.1-10c-0.8,1.4-2,2.5-3.6,3.3c-1.6,0.8-3.4,1.2-5.4,1.2
c-3.4,0-6.2-1.1-8.3-3.2c-2.1-2.2-3.2-5.1-3.2-8.7c0-1.9,0.3-3.7,0.9-5.4c0.6-1.7,1.5-3.1,2.6-4.3c1.1-1.2,2.4-2.1,4-2.8
c1.5-0.7,3.2-1,5-1c4.1,0,7.3,1.6,9.6,4.8c2.3,3.2,3.5,7.9,3.5,14.3C428.1,143.1,426.9,147.9,424.4,151.3z M409.5,137.2
c1.2,1.6,3.1,2.4,5.5,2.4c2.4,0,4.3-0.8,5.7-2.3c1.4-1.5,2.1-3.6,2.1-6.2c0-2.6-0.7-4.8-2-6.6c-1.3-1.8-3.2-2.7-5.5-2.7
c-2.4,0-4.3,0.8-5.6,2.4c-1.3,1.6-2,3.8-2,6.6C407.6,133.5,408.3,135.6,409.5,137.2z"
      />
      <path
        className="st0"
        d="M452.3,152.6c-2.4,2.6-5.5,3.8-9.4,3.8c-3.7,0-6.6-0.9-8.6-2.8c-2-1.9-3.2-4.4-3.5-7.5c0-0.1,0-0.3,0.1-0.4
c0.1-0.1,0.3-0.2,0.4-0.2h3.8c0.1,0,0.3,0.1,0.4,0.2c0.1,0.1,0.2,0.3,0.2,0.4c0.1,2,0.8,3.6,2,4.8c1.2,1.2,2.9,1.8,5.1,1.8
c2.4,0,4.3-0.9,5.7-2.7c1.4-1.8,2.1-4.3,2.1-7.4c0-3.1-0.6-5.4-1.9-7.1c-1.3-1.6-3.1-2.5-5.5-2.5c-1.9,0-3.4,0.5-4.6,1.4
c-1.2,0.9-2,2.2-2.5,3.8c0,0.2-0.1,0.3-0.3,0.4c-0.2,0.1-0.3,0.2-0.5,0.2h-3.2c-0.1,0-0.3-0.1-0.4-0.2c-0.1-0.1-0.2-0.3-0.1-0.4
l1.2-19c0-0.1,0.1-0.3,0.2-0.4c0.1-0.1,0.3-0.2,0.4-0.2h19.3c0.1,0,0.3,0.1,0.4,0.2c0.1,0.1,0.2,0.3,0.2,0.4v2.9
c0,0.1-0.1,0.3-0.2,0.4c-0.1,0.1-0.3,0.2-0.4,0.2h-15.7l-0.8,10c1-1.2,2.2-2,3.5-2.6c1.4-0.5,2.9-0.8,4.6-0.8
c1.6,0,3.1,0.3,4.6,0.9c1.4,0.6,2.6,1.5,3.6,2.6c1,1.1,1.8,2.5,2.4,4.1c0.6,1.6,0.9,3.4,0.9,5.4
C455.9,146.6,454.7,150,452.3,152.6z"
      />
      <path
        className="st0"
        d="M479.8,151.3c-2.5,3.4-5.8,5.1-9.9,5.1c-3.1,0-5.6-0.8-7.4-2.3c-1.8-1.5-2.9-3.8-3.3-6.7
c0-0.1,0.1-0.3,0.2-0.4c0.1-0.1,0.2-0.2,0.4-0.2h3.7c0.1,0,0.3,0.1,0.4,0.2c0.1,0.1,0.2,0.3,0.2,0.4c0.2,1.6,0.9,2.9,1.9,3.8
c1,0.9,2.4,1.4,4.2,1.4c2.7,0,4.7-1.2,6.1-3.6c1.4-2.4,2.1-5.7,2.1-10c-0.8,1.4-2,2.5-3.6,3.3c-1.6,0.8-3.4,1.2-5.4,1.2
c-3.4,0-6.2-1.1-8.3-3.2c-2.1-2.2-3.2-5.1-3.2-8.7c0-1.9,0.3-3.7,0.9-5.4c0.6-1.7,1.5-3.1,2.6-4.3c1.1-1.2,2.4-2.1,4-2.8
c1.5-0.7,3.2-1,5-1c4.1,0,7.3,1.6,9.6,4.8c2.3,3.2,3.5,7.9,3.5,14.3C483.5,143.1,482.3,147.9,479.8,151.3z M464.9,137.2
c1.2,1.6,3.1,2.4,5.5,2.4c2.4,0,4.3-0.8,5.7-2.3c1.4-1.5,2.1-3.6,2.1-6.2c0-2.6-0.7-4.8-2-6.6c-1.3-1.8-3.2-2.7-5.5-2.7
c-2.4,0-4.3,0.8-5.6,2.4c-1.3,1.6-2,3.8-2,6.6C463,133.5,463.7,135.6,464.9,137.2z"
      />
      <path
        className="st0"
        d="M509.4,154.8c0,0.1-0.1,0.3-0.2,0.5c-0.1,0.2-0.3,0.3-0.4,0.3c-0.5,0.1-1.1,0.3-1.7,0.4
c-0.6,0.1-1.2,0.2-1.8,0.2c-2,0-3.7-0.6-5.2-1.8c-1.5-1.2-2.2-3.3-2.2-6.2l0.1-16h-3c-0.1,0-0.3-0.1-0.4-0.2
c-0.1-0.1-0.2-0.3-0.2-0.4V129c0-0.1,0.1-0.3,0.2-0.4c0.1-0.1,0.3-0.2,0.4-0.2h3l-0.1-6.3c0-0.1,0.1-0.3,0.2-0.4
c0.1-0.1,0.3-0.2,0.4-0.2h3.8c0.1,0,0.3,0.1,0.4,0.2c0.1,0.1,0.2,0.3,0.2,0.4l-0.1,6.3h6.2c0.1,0,0.3,0.1,0.4,0.2
c0.1,0.1,0.2,0.3,0.2,0.4v2.6c0,0.1-0.1,0.3-0.2,0.4c-0.1,0.1-0.3,0.2-0.4,0.2h-6.2l0.1,15.9c0,1.6,0.3,2.7,0.8,3.4
c0.6,0.6,1.4,0.9,2.5,0.9c0.5,0,1,0,1.5-0.1c0.5-0.1,0.9-0.1,1.2-0.2c0.1,0,0.3,0,0.4,0.1c0.1,0.1,0.2,0.2,0.2,0.3V154.8z"
      />
      <path
        className="st0"
        d="M532.5,152.4c-2.2,2.6-5.4,3.9-9.6,3.9c-4.1,0-7.3-1.3-9.5-3.9c-2.3-2.6-3.4-6-3.4-10.3
c0-4.3,1.1-7.8,3.4-10.4c2.3-2.6,5.4-3.9,9.5-3.9c4.1,0,7.3,1.3,9.6,3.9c2.2,2.6,3.4,6.1,3.4,10.3
C535.9,146.3,534.8,149.8,532.5,152.4z M517,150c1.3,1.9,3.3,2.8,6,2.8c2.7,0,4.6-0.9,6-2.8c1.3-1.9,2-4.5,2-7.9s-0.7-6-2-7.9
c-1.3-1.9-3.3-2.9-6-2.9c-2.6,0-4.6,1-6,2.9c-1.3,1.9-2,4.5-2,7.9S515.7,148.2,517,150z"
      />
      <path
        className="st0"
        d="M450.5,201c-0.1,0-0.3-0.1-0.4-0.2c-0.1-0.1-0.2-0.3-0.2-0.4l0.2-17.8l-0.1-12.9c-1,1-2.1,1.8-3.4,2.5
c-1.3,0.7-2.6,1.3-4.1,1.7c-0.1,0-0.3,0-0.4-0.1c-0.1-0.1-0.2-0.2-0.2-0.3v-3c0-0.1,0.1-0.3,0.2-0.5c0.1-0.2,0.2-0.3,0.4-0.3
c1.5-0.6,2.9-1.3,4.2-2.3c1.3-0.9,2.3-2,3.2-3.1c0.1-0.1,0.2-0.3,0.4-0.3c0.2-0.1,0.3-0.1,0.5-0.1h3.7c0.1,0,0.3,0.1,0.4,0.2
c0.1,0.1,0.2,0.3,0.2,0.4l-0.3,19.1l0.3,16.9c0,0.1-0.1,0.3-0.2,0.4c-0.1,0.1-0.3,0.2-0.4,0.2H450.5z"
      />
      <path
        className="st0"
        d="M482.6,196.6c-2.5,3.4-5.8,5.1-9.9,5.1c-3.1,0-5.6-0.8-7.4-2.3c-1.8-1.5-2.9-3.8-3.3-6.7
c0-0.1,0.1-0.3,0.2-0.4c0.1-0.1,0.2-0.2,0.4-0.2h3.7c0.1,0,0.3,0.1,0.4,0.2c0.1,0.1,0.2,0.3,0.2,0.4c0.2,1.6,0.9,2.9,1.9,3.8
c1,0.9,2.4,1.4,4.2,1.4c2.7,0,4.7-1.2,6.1-3.6c1.4-2.4,2.1-5.7,2.1-10c-0.8,1.4-2,2.5-3.6,3.3c-1.6,0.8-3.4,1.2-5.4,1.2
c-3.4,0-6.2-1.1-8.3-3.2c-2.1-2.2-3.2-5.1-3.2-8.7c0-1.9,0.3-3.7,0.9-5.4c0.6-1.7,1.5-3.1,2.6-4.3c1.1-1.2,2.4-2.1,4-2.8
c1.5-0.7,3.2-1,5-1c4.1,0,7.3,1.6,9.6,4.8c2.3,3.2,3.5,7.9,3.5,14.3C486.3,188.4,485,193.2,482.6,196.6z M467.7,182.5
c1.2,1.6,3.1,2.4,5.5,2.4c2.4,0,4.3-0.8,5.7-2.3c1.4-1.5,2.1-3.6,2.1-6.2c0-2.6-0.7-4.8-2-6.6c-1.3-1.8-3.2-2.7-5.5-2.7
c-2.4,0-4.3,0.8-5.6,2.4c-1.3,1.6-2,3.8-2,6.6C465.8,178.8,466.4,180.9,467.7,182.5z"
      />
      <path
        className="st0"
        d="M502.2,183.6c-1.9,5.3-3.2,10.9-4.1,16.8c0,0.1-0.1,0.3-0.3,0.4c-0.1,0.1-0.3,0.2-0.4,0.2h-4.1
c-0.1,0-0.3-0.1-0.4-0.2c-0.1-0.1-0.1-0.3-0.1-0.4c0.5-2.9,1.1-5.8,1.8-8.7c0.7-2.9,1.5-5.7,2.4-8.5c0.9-2.7,1.9-5.4,3-8
c1.1-2.6,2.3-5,3.6-7.3h-16.5c-0.1,0-0.3-0.1-0.4-0.2c-0.1-0.1-0.2-0.3-0.2-0.4v-2.9c0-0.1,0.1-0.3,0.2-0.4
c0.1-0.1,0.3-0.2,0.4-0.2h21.2c0.1,0,0.3,0.1,0.4,0.2c0.1,0.1,0.2,0.3,0.2,0.4v2.9c0,0.2,0,0.4-0.1,0.6s-0.1,0.4-0.2,0.5
C506.2,173.2,504.1,178.3,502.2,183.6z"
      />
      <path
        className="st0"
        d="M531.4,196.6c-2.5,3.4-5.8,5.1-9.9,5.1c-3.1,0-5.6-0.8-7.4-2.3c-1.8-1.5-2.9-3.8-3.3-6.7
c0-0.1,0.1-0.3,0.2-0.4c0.1-0.1,0.2-0.2,0.4-0.2h3.7c0.1,0,0.3,0.1,0.4,0.2c0.1,0.1,0.2,0.3,0.2,0.4c0.2,1.6,0.9,2.9,1.9,3.8
c1,0.9,2.4,1.4,4.2,1.4c2.6,0,4.7-1.2,6.1-3.6c1.4-2.4,2.1-5.7,2.1-10c-0.8,1.4-2,2.5-3.6,3.3c-1.6,0.8-3.4,1.2-5.4,1.2
c-3.4,0-6.2-1.1-8.3-3.2c-2.1-2.2-3.2-5.1-3.2-8.7c0-1.9,0.3-3.7,0.9-5.4c0.6-1.7,1.5-3.1,2.6-4.3c1.1-1.2,2.4-2.1,4-2.8
c1.5-0.7,3.2-1,5-1c4.1,0,7.3,1.6,9.6,4.8c2.3,3.2,3.5,7.9,3.5,14.3C535.1,188.4,533.9,193.2,531.4,196.6z M516.5,182.5
c1.2,1.6,3.1,2.4,5.5,2.4c2.4,0,4.3-0.8,5.7-2.3c1.4-1.5,2.1-3.6,2.1-6.2c0-2.6-0.7-4.8-2-6.6c-1.3-1.8-3.2-2.7-5.5-2.7
c-2.4,0-4.3,0.8-5.6,2.4c-1.3,1.6-2,3.8-2,6.6C514.6,178.8,515.3,180.9,516.5,182.5z"
      />
    </g>
    <g>
      <path
        className="st0"
        d="M30.6,115.8c-0.3,0-0.6-0.1-0.8-0.4c-0.3-0.3-0.4-0.5-0.4-0.8L30,75.9l-0.6-37.3c0-0.3,0.1-0.6,0.4-0.8
c0.3-0.3,0.5-0.4,0.8-0.4h8.3c0.3,0,0.6,0.1,0.8,0.4c0.3,0.3,0.4,0.5,0.4,0.8l-0.6,37.3l0.6,38.6c0,0.3-0.1,0.6-0.4,0.8
c-0.3,0.3-0.5,0.4-0.8,0.4H30.6z"
      />
      <path
        className="st0"
        d="M62,83.1l0.1,31.5c0,0.3-0.1,0.6-0.4,0.8c-0.3,0.3-0.5,0.4-0.8,0.4h-7.6c-0.3,0-0.6-0.1-0.8-0.4
c-0.3-0.3-0.4-0.5-0.4-0.8l0.6-38.5L52,38.7c0-0.3,0.1-0.6,0.4-0.8c0.3-0.3,0.5-0.4,0.8-0.4h9.9c0.4,0,0.7,0.1,1.1,0.3
c0.3,0.2,0.6,0.4,0.8,0.7l40.9,64l-0.1-6.8l-0.2-24.6l-0.1-32.3c0-0.3,0.1-0.6,0.4-0.8c0.3-0.3,0.5-0.4,0.8-0.4h7.6
c0.3,0,0.6,0.1,0.8,0.4c0.3,0.3,0.4,0.5,0.4,0.8L115,76.1l0.4,38.5c0,0.3-0.1,0.6-0.4,0.8c-0.3,0.3-0.5,0.4-0.8,0.4h-10.3
c-0.4,0-0.7-0.1-1.1-0.3c-0.3-0.2-0.6-0.4-0.8-0.7L61.6,51.8l0.2,8.4L62,83.1z"
      />
      <path
        className="st0"
        d="M182.9,110.2c-5.9,4.7-13.3,7.1-22.2,7.1c-11.4,0-20.4-3.6-26.9-10.9c-6.5-7.3-9.7-17.2-9.7-29.8
c0-6.1,0.9-11.7,2.6-16.7c1.7-5,4.1-9.3,7.3-12.8c3.1-3.5,7-6.2,11.5-8.1c4.6-1.9,9.6-2.9,15.2-2.9c3.9,0,7.6,0.5,11.1,1.4
c3.5,0.9,6.7,2.5,9.6,4.6c2.8,2.2,5.3,5,7.3,8.5c2.1,3.5,3.6,7.7,4.5,12.7c0.1,0.3,0,0.6-0.2,0.8c-0.2,0.3-0.5,0.4-0.8,0.4h-7.8
c-0.3,0-0.6-0.1-0.9-0.4c-0.3-0.3-0.5-0.5-0.6-0.8c-1.2-6.3-3.8-11-7.8-14.1c-4-3-8.9-4.5-14.7-4.5c-8.1,0-14.4,2.9-18.9,8.6
c-4.5,5.7-6.7,13.5-6.7,23.3c0,10.5,2.3,18.5,6.8,24c4.6,5.5,10.8,8.2,18.8,8.2c6.4,0,11.6-1.7,15.7-5.2c4-3.5,6.5-8.5,7.4-15.1
c0.1-0.3,0.2-0.6,0.5-0.8c0.3-0.3,0.5-0.4,0.8-0.4h8c0.3,0,0.6,0.1,0.8,0.4c0.2,0.3,0.3,0.5,0.3,0.8
C192.4,98.2,188.8,105.4,182.9,110.2z"
      />
      <path
        className="st0"
        d="M39.3,170.4l0.1,29.3c0,0.3-0.1,0.6-0.4,0.8c-0.3,0.3-0.5,0.4-0.8,0.4h-7.3c-0.3,0-0.6-0.1-0.8-0.4
c-0.3-0.3-0.4-0.5-0.4-0.8l0.6-37.3l-0.6-38.6c0-0.3,0.1-0.6,0.4-0.8c0.3-0.3,0.5-0.4,0.8-0.4h11.8c0.3,0,0.6,0.1,1,0.3
c0.4,0.2,0.6,0.5,0.7,0.8l24.9,64l24.2-64c0.1-0.3,0.3-0.6,0.7-0.8c0.4-0.2,0.7-0.3,1-0.3h11c0.3,0,0.6,0.1,0.8,0.4
c0.3,0.3,0.4,0.5,0.4,0.8l-0.6,38.6l0.6,37.3c0,0.3-0.1,0.6-0.4,0.8c-0.3,0.3-0.5,0.4-0.8,0.4h-8.2c-0.3,0-0.6-0.1-0.8-0.4
c-0.3-0.3-0.4-0.5-0.4-0.8l0.1-29.3l0.2-23.9l0.2-10.1l-24.1,63.4c-0.1,0.3-0.3,0.6-0.7,0.8c-0.4,0.2-0.7,0.3-1,0.3h-5.9
c-0.3,0-0.6-0.1-1-0.3c-0.4-0.2-0.6-0.5-0.7-0.8l-25-64.4l0.2,11.3L39.3,170.4z"
      />
      <path
        className="st0"
        d="M127.4,170.2l0.1,29.3c0,0.3-0.1,0.6-0.4,0.8c-0.3,0.3-0.5,0.4-0.8,0.4H119c-0.3,0-0.6-0.1-0.8-0.4
c-0.3-0.3-0.4-0.5-0.4-0.8l0.6-37.3l-0.6-38.6c0-0.3,0.1-0.6,0.4-0.8c0.3-0.3,0.5-0.4,0.8-0.4h11.8c0.3,0,0.6,0.1,1,0.3
c0.4,0.2,0.6,0.5,0.7,0.8l24.9,64l24.2-64c0.1-0.3,0.3-0.6,0.7-0.8c0.4-0.2,0.7-0.3,1-0.3h11c0.3,0,0.6,0.1,0.8,0.4
c0.3,0.3,0.4,0.5,0.4,0.8l-0.6,38.6l0.6,37.3c0,0.3-0.1,0.6-0.4,0.8c-0.3,0.3-0.5,0.4-0.8,0.4H186c-0.3,0-0.6-0.1-0.8-0.4
c-0.3-0.3-0.4-0.5-0.4-0.8l0.1-29.3l0.2-23.9l0.2-10.1l-24.1,63.4c-0.1,0.3-0.3,0.6-0.7,0.8c-0.4,0.2-0.7,0.3-1,0.3h-5.9
c-0.3,0-0.6-0.1-1-0.3c-0.4-0.2-0.6-0.5-0.7-0.8l-25-64.4l0.2,11.3L127.4,170.2z"
      />
      <path
        className="st0"
        d="M303.1,168.6l0.1,31.5c0,0.3-0.1,0.6-0.4,0.8c-0.3,0.3-0.5,0.4-0.8,0.4h-7.6c-0.3,0-0.6-0.1-0.8-0.4
c-0.3-0.3-0.4-0.5-0.4-0.8l0.6-38.5l-0.6-37.4c0-0.3,0.1-0.6,0.4-0.8c0.3-0.3,0.5-0.4,0.8-0.4h9.9c0.4,0,0.7,0.1,1.1,0.3
c0.3,0.2,0.6,0.4,0.8,0.7l40.9,64l-0.1-6.8l-0.2-24.6l-0.1-32.3c0-0.3,0.1-0.6,0.4-0.8c0.3-0.3,0.5-0.4,0.8-0.4h7.6
c0.3,0,0.6,0.1,0.8,0.4c0.3,0.3,0.4,0.5,0.4,0.8l-0.6,37.4l0.4,38.5c0,0.3-0.1,0.6-0.4,0.8c-0.3,0.3-0.5,0.4-0.8,0.4H345
c-0.4,0-0.7-0.1-1.1-0.3c-0.3-0.2-0.6-0.4-0.8-0.7l-40.4-63.1l0.2,8.4L303.1,168.6z"
      />
    </g>
    <path
      className="st1 first-circle"

      fillRule="evenodd"
      clipRule="evenodd"
      ref={firstORef}
      d="M283.5,96.4c0,6.4-0.9,12.1-2.8,17.3c-1.9,5.2-4.5,9.7-7.9,13.2c-3.4,3.7-7.5,6.5-12.3,8.4
c-4.9,2-10.2,3-15.9,3c-5.8,0-11.1-1-15.8-3.1c-4.7-2-8.8-4.9-12.2-8.5c-3.4-3.6-6-8-7.9-13.2c-1.8-5.2-2.8-10.9-2.8-17.3
c0-6.5,0.9-12.3,2.8-17.5c1.8-5.2,4.4-9.6,7.8-13.2c3.4-3.7,7.4-6.5,12.2-8.4c4.7-2,10.1-2.9,15.9-2.9c5.9,0,11.2,1,15.9,2.9
c4.8,2,8.9,4.8,12.2,8.4c3.4,3.6,6,8,7.9,13.2C282.5,83.9,283.4,89.8,283.5,96.4L283.5,96.4z M217.1,96.5c0,5.1,0.6,9.7,1.9,13.8
c1.3,4.1,3.1,7.5,5.5,10.4c2.3,2.8,5.3,5,8.8,6.5c3.4,1.5,7.2,2.3,11.5,2.3c4.3,0,8.1-0.8,11.5-2.3c3.4-1.5,6.3-3.7,8.7-6.5
c2.4-2.8,4.2-6.3,5.4-10.4c1.2-4.1,1.9-8.8,1.9-13.9c0-5.1-0.6-9.8-1.9-13.9c-1.2-4.1-3-7.6-5.4-10.5c-2.4-2.9-5.3-5.1-8.7-6.6
c-3.5-1.5-7.4-2.3-11.7-2.3c-4.3,0-8.2,0.8-11.6,2.3c-3.4,1.5-6.3,3.7-8.7,6.6c-2.4,2.8-4.2,6.3-5.4,10.5
c-1.2,4.2-1.9,8.8-1.9,13.9V96.5z"
    />
    <path
      className="st1 second-circle"
      ref={secondORef}
      style={{ transform: 'translateY(30px)' }}
      d="M283.5,137.8c0,6.4-0.9,12.1-2.8,17.3c-1.9,5.2-4.5,9.7-7.9,13.2c-3.4,3.7-7.5,6.5-12.3,8.4
c-4.9,2-10.2,3-15.9,3c-5.8,0-11.1-1-15.8-3.1c-4.7-2-8.8-4.9-12.2-8.5c-3.4-3.6-6-8-7.9-13.2c-1.8-5.2-2.8-10.9-2.8-17.2
c0-6.5,0.9-12.3,2.8-17.5c1.8-5.2,4.4-9.6,7.8-13.2c3.4-3.7,7.4-6.5,12.2-8.4c4.7-2,10.1-2.9,15.9-2.9c5.9,0,11.2,1,15.9,2.9
c4.8,2,8.9,4.8,12.2,8.4c3.4,3.6,6,8,7.9,13.2C282.5,125.4,283.4,131.2,283.5,137.8L283.5,137.8z M217.1,138
c0,5.1,0.6,9.7,1.9,13.8c1.3,4.1,3.1,7.5,5.5,10.4c2.3,2.8,5.3,5,8.8,6.5c3.4,1.5,7.2,2.3,11.5,2.3c4.3,0,8.1-0.8,11.5-2.3
c3.4-1.5,6.3-3.7,8.7-6.5c2.4-2.8,4.2-6.3,5.4-10.4c1.2-4.1,1.9-8.7,1.9-13.9c0-5.1-0.6-9.8-1.9-13.9c-1.2-4.1-3-7.6-5.4-10.5
c-2.4-2.9-5.3-5.1-8.7-6.6c-3.5-1.5-7.4-2.3-11.7-2.3c-4.3,0-8.2,0.8-11.6,2.3c-3.4,1.5-6.3,3.7-8.7,6.6c-2.4,2.8-4.2,6.3-5.4,10.5
c-1.2,4.1-1.9,8.8-1.9,13.9V138z"
    />
  </g>

  {/* <path
    ref={firstORef}
    className={'first-circle'}
    fillRule="evenodd"
    clipRule="evenodd"
    d="M899.351 221.765C899.351 242.335 896.171 260.655 889.443 277.367C882.721 294.08 873.515 308.543 861.485 319.792C849.45 331.684 834.936 340.683 817.95 346.79C800.607 353.218 781.844 356.432 761.672 356.432C741.143 356.432 722.386 353.218 705.75 346.468C689.115 340.041 674.601 330.72 662.571 319.149C650.536 307.579 641.335 293.437 634.608 276.725C628.236 260.012 624.7 241.692 624.7 221.123C624.7 200.232 627.885 181.59 634.608 164.878C640.979 148.165 650.18 134.024 662.215 122.453C674.25 110.561 688.407 101.562 705.394 95.4556C722.029 89.0273 741.143 86.1348 761.672 86.1348C782.557 86.1348 801.314 89.3487 817.95 95.4556C834.936 101.883 849.45 110.883 861.129 122.453C873.164 134.024 882.364 148.165 889.092 164.878C895.814 181.912 899 200.875 899.351 221.765ZM664.337 222.408C664.337 238.799 666.464 253.584 671.064 266.761C675.665 279.939 682.036 290.866 690.529 300.187C698.671 309.186 709.287 316.257 721.678 321.078C733.714 325.899 747.158 328.47 762.379 328.47C777.6 328.47 791.05 325.899 803.085 321.078C815.115 316.257 825.379 309.186 833.878 300.187C842.371 291.188 848.742 279.939 852.986 266.761C857.236 253.584 859.714 238.478 859.714 222.087C859.714 205.696 857.587 190.59 852.986 177.412C848.742 164.235 842.371 152.986 833.878 143.665C825.379 134.345 815.115 127.274 803.085 122.453C790.693 117.632 776.893 115.061 761.672 115.061C746.451 115.061 732.65 117.632 720.615 122.453C708.579 127.274 698.315 134.345 689.822 143.665C681.329 152.665 674.957 163.914 670.708 177.412C666.464 190.911 663.986 205.696 663.986 222.087V222.408H664.337Z"
    fill="white"
  />
  <path
    ref={secondORef}
    className={'second-circle'}
    fillRule="evenodd"
    clipRule="evenodd"
    style={{ transform: 'translateY(80px)' }}
    d="M899.351 355.146C899.351 375.716 896.171 394.036 889.443 410.748C882.721 427.461 873.515 441.924 861.485 453.173C849.45 465.065 834.936 474.064 817.95 480.17C800.607 486.599 781.844 489.813 761.672 489.813C741.143 489.813 722.386 486.599 705.75 479.849C689.115 473.421 674.601 464.101 662.571 452.53C650.536 440.96 641.335 426.818 634.608 410.105C628.236 393.393 624.7 375.073 624.7 354.825C624.7 333.934 627.885 315.293 634.608 298.58C640.979 281.867 650.18 267.726 662.215 256.155C674.25 244.264 688.407 235.264 705.394 229.158C722.029 222.73 741.143 219.837 761.672 219.837C782.557 219.837 801.314 223.051 817.95 229.158C834.936 235.586 849.45 244.585 861.129 256.155C873.164 267.726 882.364 281.867 889.092 298.58C895.814 315.293 899 333.934 899.351 355.146ZM664.337 355.468C664.337 371.859 666.464 386.643 671.064 399.821C675.665 412.998 682.036 423.926 690.529 433.246C698.671 442.245 709.287 449.316 721.678 454.137C733.714 458.958 747.158 461.529 762.379 461.529C777.6 461.529 791.05 458.958 803.085 454.137C815.115 449.316 825.379 442.245 833.878 433.246C842.371 424.247 848.742 412.998 852.986 399.821C857.236 386.643 859.714 371.859 859.714 355.146C859.714 338.755 857.587 323.649 852.986 310.472C848.742 297.294 842.371 286.045 833.878 276.725C825.379 267.404 815.115 260.333 803.085 255.513C790.693 250.691 776.893 248.12 761.672 248.12C746.451 248.12 732.65 250.691 720.615 255.513C708.579 260.333 698.315 267.404 689.822 276.725C681.329 285.724 674.957 296.973 670.708 310.472C666.464 323.649 663.986 338.755 663.986 355.146V355.468H664.337Z"
    fill="white"
  /> */}
</svg>
