<svg width="24" height="24" viewBox="0 0 24 24" fill="none" xmlns="http://www.w3.org/2000/svg">
<circle cx="12" cy="12" r="11.5" stroke="#FCFCFC"/>
<path d="M12.304 7.736C12.4 7.736 12.48 7.656 12.48 7.56V6.328C12.48 6.232 12.4 6.152 12.304 6.152H11.168C11.072 6.152 10.992 6.232 10.992 6.328V7.56C10.992 7.656 11.072 7.736 11.168 7.736H12.304ZM12.304 17C12.4 17 12.48 16.92 12.48 16.824L12.432 12.744L12.48 8.936C12.48 8.84 12.4 8.76 12.304 8.76H11.152C11.056 8.76 10.976 8.84 10.976 8.936L11.024 12.76L10.976 16.824C10.976 16.92 11.056 17 11.152 17H12.304Z" fill="#FCFCFC"/>
</svg>
