<?xml version="1.0" encoding="utf-8"?>
<!-- Generator: Adobe Illustrator 24.1.0, SVG Export Plug-In . SVG Version: 6.00 Build 0)  -->
<svg version="1.1" xmlns="http://www.w3.org/2000/svg" xmlns:xlink="http://www.w3.org/1999/xlink" x="0px" y="0px"
	 viewBox="0 0 17.3 18.9" style="enable-background:new 0 0 17.3 18.9;" xml:space="preserve">
<style type="text/css">
	.st0{fill:#FFFFFF;}
</style>
<g id="Layer_2">
</g>
<g id="Raggruppa_190">
	<path class="st0" d="M6,0v2.4H3.3v2.4H0v14.2h11.3v-2.4h3.3v-2.4h2.7V0H6z M16.3,13.2h-1.7h-0.5h-0.5h-2.3h-0.5h-0.5H7V5.7V5.2V4.7
		V3.4V2.9V2.4V1h9.3V13.2z M13.6,15.5h-2.3h-0.5h-0.5H4.3V5.7V5.2V4.7V3.4H6v1.4v0.5v0.5v8.5h4.3h0.5h0.5h2.3V15.5z M10.3,17.9H1
		V5.7h2.3v10.8h7.1V17.9z"/>
</g>
</svg>
