<svg width="159" height="48" viewBox="0 0 159 48" fill="none" xmlns="http://www.w3.org/2000/svg">
<g clip-path="url(#clip0_251_2)">
<path fill-rule="evenodd" clip-rule="evenodd" d="M20.2537 7.68116C20.2537 8.43638 20.2578 10.3683 20.2537 11.0684C20.2483 11.3265 20.3426 11.5766 20.5166 11.7663C20.586 11.8422 20.6663 11.9072 20.7549 11.9592C20.8111 11.9973 20.8753 12.0219 20.9425 12.0309C21.0214 12.0421 21.1011 12.0468 21.1808 12.0447C21.3122 12.0376 21.4409 12.0045 21.5596 11.9473C21.6782 11.89 21.7845 11.8098 21.8724 11.7112C22.3243 11.2117 23.2884 10.1754 23.6991 9.72894C23.8211 9.5939 23.6924 9.57739 23.5896 9.58007C22.6783 9.78381 21.8532 10.2696 21.2301 10.9691C21.2284 9.78555 20.9483 8.61918 20.4126 7.56546C20.3399 7.48828 20.2537 7.49095 20.2537 7.68116ZM19.4773 7.56546C18.9439 8.61914 18.671 9.78671 18.6816 10.9691C18.0569 10.2708 17.2318 9.78537 16.3207 9.58007C16.2167 9.57739 16.0853 9.5939 16.2043 9.72894C16.6152 10.1754 17.5793 11.2117 18.0353 11.7112C18.1191 11.8079 18.2213 11.8866 18.3359 11.9429C18.4504 11.9993 18.5749 12.032 18.7022 12.0392C18.7894 12.0459 18.8771 12.0431 18.9637 12.0309C19.0309 12.0219 19.0952 11.9973 19.1514 11.9592C19.2343 11.9127 19.3099 11.8542 19.3759 11.7856C19.5569 11.5917 19.6557 11.3344 19.6511 11.0684C19.6511 10.3683 19.6525 8.43638 19.6525 7.68116C19.6566 7.49095 19.5471 7.48828 19.4773 7.56546ZM12.3193 24.9044C12.3472 24.6042 12.2629 24.3042 12.0829 24.0632C11.9029 23.8221 11.64 23.6572 11.3457 23.6007C11.2645 23.5976 11.1836 23.5903 11.1032 23.5787C8.45482 23.3247 5.88111 22.5533 3.52624 21.3077C3.51482 21.301 3.50153 21.2984 3.48846 21.3002C3.4754 21.302 3.46329 21.3081 3.45405 21.3176C3.44481 21.327 3.43895 21.3393 3.43739 21.3525C3.43584 21.3657 3.43868 21.379 3.44547 21.3904C3.78189 21.8276 4.19898 22.1953 4.67387 22.4735C6.29079 23.4696 8.06085 24.1886 9.91183 24.6011C10.7065 24.7574 11.5109 24.8587 12.3193 24.9044ZM14.283 27.9388C14.3102 27.658 14.2674 27.3747 14.1584 27.1147C14.0966 26.8958 13.9629 26.7043 13.7791 26.5717C13.4981 26.3423 13.1551 26.2031 12.7945 26.1721C10.0459 25.9958 7.40167 25.0466 5.16271 23.4326C5.04492 23.3473 5.00383 23.4051 5.09428 23.5181C5.48228 24.044 5.92736 24.5247 6.42126 24.9513C7.96235 26.1408 9.76981 26.9319 11.6853 27.2553C12.0865 27.327 12.4932 27.3793 12.8945 27.4123C12.9862 27.4178 13.0465 27.4123 13.0588 27.4427C13.0802 27.4998 13.0787 27.563 13.0546 27.6191C13.0218 28.0187 12.9985 28.4211 12.9985 28.8234C12.9867 30.7477 13.4582 32.6437 14.3693 34.3356C14.71 34.8918 15.113 35.4069 15.5703 35.8707C15.6675 35.9809 15.725 35.9477 15.6635 35.821C14.4514 33.3846 13.9717 30.6454 14.283 27.9388ZM16.5727 30.0388C16.5782 29.9617 16.585 29.8762 16.5891 29.8019C16.5826 29.503 16.4664 29.217 16.2629 28.9992C16.0593 28.7814 15.7829 28.6471 15.4868 28.6222H15.4621C15.3658 29.4167 15.3269 30.2171 15.3457 31.0173C15.4368 32.8923 15.852 34.7371 16.5727 36.4687C16.7678 36.9803 17.062 37.4478 17.4382 37.844C17.4902 37.8853 17.5519 37.844 17.5354 37.7888C16.6956 35.2979 16.3681 32.6611 16.5727 30.0388ZM19.1336 30.6618L19.1678 30.3586C19.2343 29.8926 19.1996 29.4177 19.066 28.9667C18.9324 28.5156 18.7031 28.099 18.394 27.7458C17.408 26.6159 15.762 26.5222 15.1101 25.8055C14.4611 25.0835 14.7158 23.2672 13.7202 22.2283C13.0664 21.5432 12.17 21.146 11.2265 21.1231L10.9512 21.1148C8.16257 21.0895 5.40442 20.5282 2.8251 19.4613C2.73198 19.4199 2.62106 19.5053 2.69637 19.6128C3.14794 20.1494 3.72821 20.5611 4.38219 20.8088C6.56383 21.624 8.84658 22.1331 11.1662 22.3219C12.8273 22.4046 13.5546 23.8791 13.9311 25.1606C14.0397 25.5628 14.2263 25.9394 14.4802 26.2686C14.7624 26.5974 15.1075 26.8654 15.495 27.0569C16.711 27.6494 18.1764 28.5809 17.9654 30.2042C17.673 32.4801 17.7349 34.788 18.1489 37.0447C18.2701 37.7246 18.5651 38.361 19.0048 38.8913C19.0979 38.985 19.202 38.8913 19.1801 38.7921C18.624 36.1124 18.6081 33.3477 19.1336 30.6618ZM11.3087 19.1028C10.7116 19.2376 10.1249 19.4154 9.55313 19.6348C9.53065 19.6457 9.51179 19.6629 9.49881 19.6843C9.48584 19.7057 9.47932 19.7305 9.48003 19.7555C9.48074 19.7806 9.48866 19.805 9.50283 19.8256C9.517 19.8463 9.53681 19.8623 9.55986 19.8719C10.355 20.1519 11.2072 20.2267 12.0385 20.0896C12.7041 19.8305 12.5575 18.7254 12.2112 18.2567C10.672 16.0186 9.79802 13.3856 9.69139 10.6659C9.68733 10.5227 9.62296 10.5227 9.58861 10.6659C9.4136 11.2889 9.30977 11.9299 9.27912 12.5765C9.30063 14.9059 10.0068 17.1767 11.3087 19.1028ZM11.6756 15.0516C12.0384 15.7611 12.4484 16.4452 12.9026 17.0992C13.1532 16.9372 13.3351 16.6874 13.413 16.3982C13.4909 16.109 13.4594 15.8009 13.3244 15.5338C13.2807 15.4704 13.2382 15.3987 13.1943 15.3354C11.7741 13.1311 10.8052 10.6639 10.3446 8.07811C10.3322 8.02011 10.2597 8.01193 10.2323 8.07529C10.0963 8.60135 10.0646 9.14923 10.1391 9.6876C10.3499 11.5494 10.8693 13.3625 11.6756 15.0516ZM14.2104 14.5968C14.5509 15.2178 14.6843 15.9325 14.5909 16.6356C14.4974 17.3386 14.1821 17.9929 13.6914 18.5021C12.7603 19.8305 13.9051 21.5144 13.8476 20.5306C13.7709 19.0781 15.5922 18.2265 15.8387 16.5067C15.9058 16.0488 15.8812 15.582 15.7665 15.1338C15.6517 14.6856 15.449 14.265 15.1704 13.8967L15.0157 13.6817C13.3376 11.513 12.0939 9.03707 11.3538 6.39129C11.3494 6.36804 11.3371 6.34705 11.319 6.33195C11.3008 6.31686 11.2781 6.3086 11.2545 6.3086C11.231 6.3086 11.2082 6.31686 11.1901 6.33195C11.172 6.34705 11.1596 6.36804 11.1552 6.39129C11.0137 7.06841 11.0477 7.77077 11.2538 8.43088C11.9496 10.6145 12.9447 12.6898 14.2104 14.5968ZM27.702 18.2567C27.3597 18.7254 27.2117 19.8305 27.8786 20.0896C28.71 20.2267 29.5622 20.1518 30.3573 19.8719C30.3802 19.8618 30.3997 19.8452 30.4134 19.8242C30.4271 19.8031 30.4344 19.7785 30.4344 19.7533C30.4344 19.7282 30.4271 19.7036 30.4134 19.6825C30.3997 19.6615 30.3802 19.6449 30.3573 19.6348C29.7867 19.4147 29.2009 19.2369 28.6045 19.1028C29.9081 17.1775 30.6144 14.9062 30.634 12.5765C30.6049 11.9299 30.502 11.2888 30.3272 10.6659C30.297 10.5227 30.2286 10.5227 30.2231 10.6659C30.1167 13.3859 29.2421 16.019 27.702 18.2567ZM26.5901 15.5338C26.4545 15.797 26.4205 16.1014 26.4946 16.3884C26.5686 16.6753 26.7456 16.9246 26.9913 17.0882C27.4609 16.4445 27.8776 15.7633 28.2375 15.0516C29.0445 13.3626 29.5647 11.5495 29.7766 9.6876C29.85 9.14904 29.8175 8.60122 29.6809 8.07529C29.6534 8.01193 29.5823 8.02011 29.5726 8.07811C29.1081 10.6634 28.1381 13.1302 26.7188 15.3354L26.5901 15.5338ZM26.0628 20.5306C26.008 21.5144 27.1583 19.8305 26.2217 18.5021C25.7305 17.9933 25.4147 17.339 25.321 16.6359C25.2273 15.9327 25.3606 15.2179 25.7013 14.5968C26.9695 12.6911 27.9652 10.6155 28.6593 8.43088C28.8685 7.77125 28.9015 7.06784 28.7551 6.39129C28.7515 6.36826 28.7399 6.34726 28.7224 6.33209C28.7048 6.31692 28.6824 6.30859 28.6592 6.30859C28.6361 6.30859 28.6137 6.31692 28.5961 6.33209C28.5785 6.34726 28.5669 6.36826 28.5634 6.39129C27.821 9.03775 26.5745 11.5138 24.8933 13.6817L24.7399 13.8967C24.4611 14.2649 24.2585 14.6855 24.1442 15.1338C24.0299 15.5821 24.0061 16.049 24.0744 16.5067C24.3181 18.2265 26.1422 19.0781 26.0628 20.5306ZM19.8744 46.4346C9.68452 46.4346 1.39673 36.3695 1.39673 24.0003C1.39673 11.6286 9.68452 1.56549 19.8744 1.56549C30.0656 1.56549 38.3547 11.6286 38.3547 24.0003C38.3547 36.3695 30.0656 46.4346 19.8744 46.4346ZM19.8744 0.881958C9.31754 0.881958 0.731201 11.2531 0.731201 24.0003C0.731201 36.7498 9.31754 47.1181 19.8744 47.1181C30.4326 47.1181 39.0188 36.7498 39.0188 24.0003C39.0188 11.2531 30.4326 0.881958 19.8744 0.881958ZM16.1948 23.8461C15.9954 23.8325 15.8021 23.7711 15.631 23.667C15.46 23.563 15.3161 23.4193 15.2115 23.2479C15.1438 23.4536 15.1249 23.6724 15.1563 23.8868C15.1877 24.1012 15.2685 24.3052 15.3922 24.4825C15.516 24.6598 15.6793 24.8056 15.8691 24.908C16.0588 25.0104 16.2698 25.0667 16.4851 25.0725C16.3315 24.71 16.2337 24.3263 16.1948 23.9343V23.8461ZM16.2207 22.9668C16.2454 22.614 16.2495 22.1896 16.2606 21.8535C15.978 21.8121 15.7065 21.7148 15.4615 21.5672C15.2166 21.4196 15.0032 21.2247 14.8336 20.9936C14.3405 21.7928 14.9061 22.7877 16.2207 22.9668ZM23.6416 23.9149C23.606 24.3078 23.507 24.6922 23.3486 25.0531C23.5622 25.0458 23.7711 24.9879 23.9584 24.8843C24.1457 24.7806 24.3061 24.634 24.4267 24.4564C24.5472 24.2788 24.6245 24.0751 24.6523 23.8618C24.6801 23.6485 24.6576 23.4316 24.5866 23.2287C24.4899 23.3985 24.3531 23.5416 24.1882 23.6454C24.0234 23.7493 23.8356 23.8106 23.6416 23.8239V23.9149ZM25.0028 20.9797C24.6552 21.4385 24.145 21.7446 23.5787 21.8341C23.591 22.1621 23.5965 22.6004 23.6183 22.9476C24.933 22.7684 25.4959 21.7708 25.0028 20.9797ZM20.8781 18.9816C23.5459 20.5222 24.5209 19.1028 24.5209 19.1028C24.5209 19.1028 25.4959 20.277 23.8183 20.729C23.2501 20.8696 22.6563 20.8689 22.0885 20.7267C21.5206 20.5846 20.9957 20.3054 20.5591 19.9132C20.0319 19.5191 19.9195 18.4331 20.8781 18.9816ZM22.3079 17.587C22.716 17.8895 23.1795 18.1077 23.6718 18.2292C23.6718 18.2292 23.639 19.3041 22.1106 18.7144C21.5724 18.5021 19.9387 17.5843 20.2154 17.1929C20.6782 16.5452 21.4807 17.0662 22.3079 17.587ZM18.9623 18.9816C16.2934 20.5222 15.358 19.1028 15.358 19.1028C15.358 19.1028 14.3433 20.277 16.0195 20.729C16.5872 20.8706 17.1808 20.8703 17.7484 20.7281C18.316 20.5859 18.8404 20.3061 19.2759 19.9132C19.8074 19.5191 19.9195 18.4331 18.9623 18.9816ZM17.5313 17.587C17.133 17.8823 16.6835 18.1001 16.2057 18.2292C16.2057 18.2292 16.2003 19.3041 17.7285 18.7144C18.2681 18.5021 19.8991 17.5843 19.6224 17.1929C19.1568 16.5452 18.3584 17.0662 17.5313 17.587ZM22.9994 23.4656C22.9569 23.0082 22.8967 22.1814 22.8775 21.7404C22.3027 21.704 21.742 21.5457 21.2322 21.2759C20.7224 21.0061 20.2751 20.631 19.9195 20.175C19.5641 20.6311 19.1169 21.0064 18.6071 21.2762C18.0973 21.546 17.5366 21.7042 16.9617 21.7404C16.9451 22.1814 16.885 23.0082 16.8384 23.4656C16.8016 23.8857 16.8503 24.309 16.9817 24.7094C17.1131 25.1099 17.3244 25.4791 17.6025 25.7945C17.8884 26.1365 18.2407 26.416 18.6378 26.6159C18.6707 26.6296 18.7089 26.6434 18.7474 26.6573L18.9364 26.7399C19.039 26.7978 19.102 26.8805 19.2075 26.9548C19.4225 27.0865 19.6693 27.1561 19.9209 27.1561C20.1726 27.1561 20.4194 27.0865 20.6344 26.9548C20.7183 26.8752 20.8091 26.8033 20.9056 26.7399L21.0931 26.6573C21.1329 26.6434 21.1672 26.6296 21.2014 26.6159C21.5987 26.4163 21.9511 26.1367 22.2367 25.7945C22.516 25.4799 22.7279 25.1107 22.8591 24.71C22.9903 24.3093 23.0381 23.8857 22.9994 23.4656ZM21.3876 23.124C20.67 23.124 20.5221 22.909 20.5221 22.909C20.5843 22.7291 20.7016 22.5738 20.8571 22.4653C21.0127 22.3569 21.1984 22.3009 21.3876 22.3055C21.574 22.2974 21.7591 22.3397 21.9238 22.4279C22.0885 22.5161 22.2268 22.6469 22.3243 22.8069C22.3023 22.8841 22.3612 23.124 21.3876 23.124ZM19.9333 25.88C19.7107 25.8796 19.4923 25.8194 19.3007 25.7055C19.109 25.5916 18.9511 25.4282 18.8433 25.2323C19.5648 25.089 20.3072 25.089 21.0287 25.2323C20.9204 25.429 20.7616 25.5929 20.569 25.7068C20.3763 25.8207 20.1568 25.8805 19.9333 25.88ZM18.4543 23.124C17.4765 23.124 17.5368 22.8841 17.5163 22.8069C17.6138 22.6463 17.7525 22.5149 17.9177 22.4267C18.083 22.3385 18.2688 22.2966 18.4557 22.3055C18.6447 22.3022 18.8301 22.3586 18.9855 22.4669C19.141 22.5752 19.2589 22.7298 19.3224 22.909C19.3224 22.909 19.1678 23.124 18.4543 23.124ZM19.9333 24.05C20.2496 24.05 20.5002 24.1795 20.5002 24.287C20.5002 24.3917 20.2496 24.524 19.9333 24.524C19.6238 24.524 19.3759 24.3917 19.3759 24.287C19.3759 24.1795 19.6238 24.05 19.9333 24.05ZM30.0122 24.6011C31.8609 24.1866 33.6288 23.4677 35.2447 22.4735C35.7182 22.1966 36.1329 21.8286 36.465 21.3904C36.4923 21.3353 36.443 21.2775 36.3895 21.3077C34.035 22.5529 31.4618 23.3243 28.814 23.5787C28.7332 23.5897 28.651 23.598 28.5716 23.6007C28.2771 23.6571 28.0141 23.8219 27.8338 24.063C27.6535 24.304 27.5689 24.604 27.5965 24.9044C28.4076 24.8581 29.2147 24.7568 30.0122 24.6011ZM24.2525 35.821C24.1922 35.9477 24.2525 35.9809 24.3456 35.8707C24.8029 35.4073 25.2054 34.8921 25.5451 34.3356C26.4586 32.6446 26.9307 30.748 26.9174 28.8234C26.9174 28.4211 26.8927 28.0187 26.8611 27.6191C26.8398 27.5625 26.8379 27.5004 26.8557 27.4427C26.8708 27.4123 26.9283 27.4178 27.02 27.4123C27.4267 27.3793 27.8297 27.327 28.2292 27.2553C30.1467 26.9317 31.9564 26.1407 33.5001 24.9513C33.9924 24.5256 34.4349 24.0447 34.8188 23.5181C34.9119 23.4051 34.8682 23.3473 34.7559 23.4326C32.5162 25.0463 29.8716 25.9954 27.1227 26.1721C26.7618 26.2035 26.4185 26.3427 26.1367 26.5717C25.9524 26.703 25.8196 26.8951 25.7615 27.1147C25.6488 27.3737 25.6044 27.6576 25.6327 27.9388C25.9468 30.6455 25.467 33.3854 24.2525 35.821ZM22.3845 37.7888C22.364 37.844 22.4284 37.8853 22.479 37.844C22.855 37.4482 23.1484 36.9806 23.3418 36.4687C24.4174 34.0044 24.8015 31.2907 24.4524 28.6222H24.4304C24.1338 28.6463 23.8565 28.7802 23.6524 28.9981C23.4482 29.2161 23.3317 29.5025 23.3253 29.8019C23.3321 29.8762 23.3376 29.9617 23.3418 30.0388C23.5456 32.6607 23.2199 35.2969 22.3845 37.7888ZM20.7358 38.7921C20.7166 38.8913 20.818 38.985 20.9111 38.8913C21.3497 38.3602 21.6445 37.7242 21.7669 37.0447C22.1818 34.7881 22.2442 32.4802 21.9517 30.2042C21.7355 28.5809 23.2062 27.6494 24.4195 27.0569C24.8076 26.8659 25.1532 26.5977 25.4356 26.2686C25.6907 25.9403 25.877 25.5634 25.9833 25.1606C26.3614 23.8791 27.0899 22.4046 28.7496 22.3219C31.0692 22.133 33.352 21.6238 35.5337 20.8088C36.1879 20.5615 36.7682 20.1498 37.2194 19.6128C37.292 19.5053 37.1825 19.4199 37.0907 19.4613C34.511 20.5285 31.7523 21.0897 28.9632 21.1148L28.6893 21.1231C27.7453 21.1457 26.8484 21.543 26.1942 22.2283C25.2028 23.2672 25.4548 25.0835 24.8071 25.8055C24.1525 26.5222 22.5119 26.6159 21.5273 27.7458C21.2163 28.0981 20.9854 28.5143 20.8506 28.9655C20.7158 29.4168 20.6804 29.8921 20.7467 30.3586L20.7836 30.6618C21.3107 33.3476 21.2944 36.1127 20.7358 38.7921ZM32.1841 37.312C32.17 37.2997 32.1531 37.2913 32.1349 37.2875C32.1167 37.2836 32.0978 37.2845 32.08 37.29C31.9713 37.3142 31.8594 37.3207 31.7487 37.3093C31.272 37.2486 30.8366 37.2183 30.3573 37.1604C30.4241 36.9586 30.4342 36.7421 30.3863 36.5349C30.3384 36.3277 30.2345 36.1379 30.0861 35.9864C29.9953 35.9143 29.8905 35.8619 29.7785 35.8326C29.6665 35.8033 29.5497 35.7976 29.4354 35.816C29.3212 35.8344 29.2119 35.8764 29.1146 35.9394C29.0173 36.0024 28.934 36.0851 28.8701 36.1821C28.7332 36.3447 28.6085 36.5238 28.4729 36.692C28.3908 36.7857 28.2155 36.9676 28.1444 37.0309C28.0834 37.072 28.0281 37.1211 27.98 37.177C27.9654 37.1878 27.9533 37.2018 27.9448 37.218C27.9363 37.2342 27.9315 37.2521 27.9308 37.2704C27.9302 37.2887 27.9336 37.3069 27.941 37.3237C27.9483 37.3404 27.9593 37.3553 27.9732 37.3672C28.0416 37.436 28.0978 37.3892 28.18 37.2928C28.3209 37.1549 28.3442 37.1769 28.4703 37.29L30.5901 39.2522L30.9079 38.7756L29.9438 37.8853L29.9849 37.833C30.0353 37.7798 30.079 37.7206 30.1149 37.6566L31.1831 37.7723C31.535 37.8191 31.8021 37.9046 32.076 37.5849C32.1485 37.5022 32.2197 37.3478 32.1841 37.312ZM29.7602 36.4962C29.8519 36.5545 29.929 36.6332 29.9857 36.7262C30.0424 36.8192 30.0771 36.9241 30.0871 37.0327C30.0972 37.1414 30.0823 37.2509 30.0437 37.3528C30.0051 37.4548 29.9437 37.5464 29.8643 37.6207C29.8335 37.6567 29.8005 37.6908 29.7657 37.7228L28.7674 36.7995C28.7304 36.7663 28.714 36.736 28.7688 36.6726L28.8783 36.5431C28.9215 36.4658 28.9834 36.4007 29.0582 36.3539C29.1331 36.3071 29.2185 36.2801 29.3065 36.2754C29.3945 36.2708 29.4822 36.2885 29.5615 36.3271C29.6409 36.3658 29.7092 36.4239 29.7602 36.4962ZM4.40127 31.2295C4.29616 30.907 4.2829 30.5615 4.36298 30.2318L4.69715 30.2593C4.5969 30.5405 4.57884 30.8446 4.64512 31.1358C4.78605 31.5464 5.07507 31.7725 5.42564 31.6484C5.60092 31.5822 5.65575 31.3839 5.69263 31.1661C5.72522 30.8234 5.79083 30.4846 5.88853 30.1547C5.93617 30.0135 6.01557 29.8853 6.12056 29.7801C6.22555 29.675 6.35327 29.5956 6.49376 29.5483C6.97853 29.3746 7.4497 29.7522 7.63592 30.309C7.70541 30.5536 7.75577 30.8033 7.78653 31.0558C7.56609 31.1496 7.403 31.2075 7.2688 31.2515C7.20584 31.2792 7.13054 31.2983 7.09492 31.1909C7.07304 31.1193 7.08258 31.0614 7.30723 30.9319C7.403 30.8794 7.47424 30.703 7.36205 30.3724C7.24692 30.0168 7.00321 29.7909 6.66764 29.9093C6.43627 29.9919 6.40471 30.5515 6.38143 30.7692C6.37017 31.0257 6.31505 31.2784 6.21849 31.5161C6.16373 31.6299 6.08678 31.7316 5.9922 31.8149C5.89762 31.8983 5.78735 31.9616 5.66795 32.0012C5.5343 32.0414 5.39377 32.0529 5.25542 32.0351C5.11706 32.0173 4.98394 31.9706 4.86462 31.8979C4.74531 31.8252 4.64244 31.7281 4.56264 31.613C4.48283 31.4979 4.42786 31.3672 4.40127 31.2295ZM9.10524 34.2336C9.07649 34.2391 9.04368 34.2335 8.93136 34.2474L8.87106 34.0131L8.44111 33.1119L5.79542 34.4596L5.50234 33.9745L8.1974 32.5964C8.08227 32.3318 7.85496 31.8688 7.85496 31.8688C7.72483 31.6016 7.69201 31.698 7.50439 31.7531C7.41955 31.7751 7.3291 31.789 7.29769 31.7256C7.2524 31.6263 7.29489 31.5906 7.37846 31.5437C7.48251 31.4885 7.61531 31.4279 7.74544 31.3673C7.89885 31.2928 7.95088 31.3673 8.0001 31.4886C8.05899 31.6263 8.11242 31.7476 8.1974 31.946C8.44659 32.5304 8.73139 33.1091 9.00259 33.6824C9.06008 33.7854 9.12504 33.8839 9.19695 33.9773C9.2135 34.0075 9.23537 34.0296 9.24631 34.0517C9.26124 34.0801 9.26458 34.1133 9.25563 34.1441C9.24668 34.175 9.22613 34.2011 9.19835 34.217C9.17054 34.2343 9.13723 34.2402 9.10524 34.2336ZM11.1224 37.1604C11.0918 37.1339 11.0543 37.1167 11.0143 37.1108C10.9742 37.105 10.9334 37.1107 10.8965 37.1274L7.92339 37.9707L7.6578 37.6869C8.30145 36.5237 8.70951 35.7632 9.26005 34.8206C9.3024 34.7489 9.33942 34.7075 9.2888 34.6277C9.19148 34.4871 9.20256 34.443 9.25725 34.3961C9.31895 34.3466 9.39691 34.3659 9.45174 34.4485C9.53361 34.5956 9.62321 34.7382 9.72014 34.8758C9.74956 34.9303 9.76153 34.9926 9.75443 35.0543C9.74733 35.1159 9.72149 35.1739 9.68046 35.2202L8.30958 37.527L10.7322 36.827C10.8868 36.7802 10.5774 36.4907 10.7061 36.3887C10.7664 36.3392 10.8267 36.3695 10.8868 36.4577C10.9521 36.5726 11.0235 36.6839 11.1006 36.7912C11.1662 36.8822 11.2293 36.9482 11.3182 37.0529C11.3894 37.1329 11.3854 37.2128 11.3251 37.2625C11.284 37.29 11.2457 37.279 11.1224 37.1604ZM13.2095 40.7957C13.3437 40.6106 13.4396 40.4001 13.4913 40.1769C13.5431 39.9538 13.5496 39.7224 13.5107 39.4966C13.4717 39.2708 13.3879 39.0552 13.2644 38.8626C13.1409 38.6701 12.9801 38.5045 12.7917 38.3758C12.596 38.2188 12.4658 38.1224 12.3521 38.0369C12.2535 37.968 12.1577 37.8991 12.0673 37.822C11.9698 37.745 11.8787 37.6602 11.7948 37.5684C11.7474 37.5116 11.6971 37.4573 11.6442 37.4057C11.631 37.3928 11.6153 37.3829 11.598 37.3767C11.5806 37.3704 11.5622 37.368 11.5439 37.3696C11.5256 37.3712 11.5078 37.3767 11.4918 37.3858C11.4758 37.3949 11.4619 37.4074 11.4511 37.4223C11.3894 37.5022 11.4621 37.5574 11.5442 37.6291C11.692 37.7613 11.6647 37.7888 11.5661 37.9267L9.79951 40.2775C10.0312 40.425 10.2473 40.5958 10.4446 40.7874C10.5205 40.8739 10.6014 40.9558 10.6869 41.0328C10.8582 41.2044 11.065 41.336 11.2925 41.4182C11.52 41.5005 11.7626 41.5314 12.0033 41.5088C12.244 41.4862 12.4768 41.4106 12.6853 41.2873C12.8937 41.1641 13.0727 40.9963 13.2095 40.7957ZM12.6917 40.4759C12.1824 41.154 11.5428 41.4269 10.8567 40.8756C10.7083 40.7626 10.5749 40.6311 10.4596 40.4843C10.4035 40.4099 10.4117 40.3988 10.4842 40.2941L12.0193 38.2519C12.0892 38.1609 12.1303 38.1609 12.207 38.2271L12.5411 38.4972C12.7015 38.6014 12.8357 38.7416 12.9334 38.9067C13.031 39.0718 13.0894 39.2574 13.104 39.449C13.1186 39.6405 13.0889 39.8329 13.0174 40.0111C12.9459 40.1892 12.8344 40.3483 12.6917 40.4759ZM15.054 40.2114C14.9828 40.1867 14.9623 40.2749 14.9308 40.3382L13.6723 42.9178L13.1601 42.7001L14.4391 40.0792C14.5241 39.9083 14.5104 39.9413 14.3762 39.8366C14.3132 39.7897 14.2227 39.7484 14.2666 39.6657C14.3049 39.583 14.3762 39.5693 14.4693 39.6272C14.5761 39.6932 14.7706 39.8091 14.8664 39.8586C14.9936 39.9255 15.1243 39.9853 15.2581 40.0378C15.2775 40.0431 15.2955 40.0526 15.3109 40.0657C15.3263 40.0787 15.3386 40.0951 15.3469 40.1135C15.3553 40.1319 15.3595 40.152 15.3593 40.1722C15.3591 40.1925 15.3545 40.2125 15.3457 40.2307C15.3129 40.2941 15.2307 40.272 15.054 40.2114ZM18.8049 41.2146C18.7642 41.2214 18.7255 41.237 18.6915 41.2603C18.6574 41.2836 18.6288 41.3141 18.6077 41.3497L16.7535 43.9955L16.3715 43.9431C16.1796 42.6174 16.0373 41.7988 15.8948 40.6992C15.888 40.622 15.8934 40.5669 15.8045 40.5394C15.6414 40.4953 15.625 40.4484 15.6414 40.3796C15.645 40.3604 15.653 40.3423 15.6648 40.3268C15.6766 40.3114 15.6919 40.2989 15.7094 40.2906C15.727 40.2822 15.7462 40.2782 15.7656 40.2788C15.785 40.2794 15.804 40.2846 15.8209 40.2941C15.9511 40.3464 16.1729 40.4099 16.2879 40.4484C16.4262 40.5063 16.448 40.6193 16.4646 40.7433L16.7905 43.3973L18.2571 41.2752C18.3474 41.1401 17.9339 41.1155 17.9709 40.9556C17.9942 40.8756 18.0517 40.8619 18.1531 40.8922C18.4065 40.9406 18.6634 40.9682 18.9212 40.9748C19.0267 40.9748 19.0733 41.0161 19.0595 41.1098C19.0473 41.1733 18.9842 41.1953 18.8049 41.2146ZM23.1953 40.5973C23.0091 40.6855 22.9967 40.7433 23.0623 40.9969C23.1404 41.2945 23.7868 43.7584 23.7868 43.7584L23.2008 43.9128L22.5626 41.3965L21.9135 43.9073L21.6479 43.9982L20.1701 41.7988L20.3399 44.3069L19.8264 44.4611L19.6402 41.5894C19.6197 41.2945 19.5758 41.2312 19.4046 41.2146C19.2609 41.2008 19.2006 41.1623 19.1882 41.0878C19.1678 40.9638 19.2704 40.9473 19.3238 40.9446C19.4649 40.9417 19.8306 40.9582 19.9525 40.9501C20.0016 40.9435 20.0515 40.9528 20.095 40.9765C20.1385 41.0003 20.1735 41.0373 20.1948 41.0823L21.7108 43.4085L22.3982 40.7515C22.4102 40.6988 22.4364 40.6504 22.4738 40.6115C22.5112 40.5727 22.5585 40.5449 22.6105 40.5311C22.7338 40.5008 23.0391 40.3822 23.1665 40.3464C23.2172 40.3327 23.3418 40.3272 23.3596 40.4374C23.3718 40.5201 23.3171 40.5394 23.1953 40.5973ZM27.8896 37.7558C27.8432 37.8772 27.836 38.0103 27.8691 38.1361L28.5182 41.132L28.2237 41.391C27.1583 40.6441 26.4462 40.2362 25.5752 39.605C25.5109 39.5555 25.4753 39.5141 25.3987 39.5637C25.2562 39.6547 25.2137 39.6409 25.1754 39.5803C25.1638 39.5645 25.1561 39.546 25.1529 39.5266C25.1497 39.5072 25.1511 39.4873 25.1569 39.4685C25.1628 39.4497 25.173 39.4325 25.1866 39.4184C25.2003 39.4043 25.2171 39.3936 25.2356 39.3873C25.3589 39.3212 25.5574 39.1999 25.6602 39.1365C25.7916 39.0622 25.8875 39.1255 25.9916 39.1999L28.1252 40.6992L27.5609 38.1802C27.5309 38.0175 27.2295 38.318 27.1447 38.1829C27.1008 38.1085 27.1337 38.0534 27.2214 37.9983C27.4308 37.8332 27.6218 37.6456 27.791 37.4388C27.803 37.422 27.8191 37.4086 27.8378 37.3997C27.8564 37.3909 27.877 37.387 27.8975 37.3884C27.9181 37.3898 27.9379 37.3964 27.9553 37.4076C27.9726 37.4189 27.9867 37.4344 27.9964 37.4527C28.0183 37.4912 27.9691 37.6042 27.8896 37.7558ZM33.1455 34.0352C32.9607 33.9135 32.7366 33.868 32.5194 33.908C32.3022 33.948 32.1086 34.0705 31.9786 34.2501C31.9963 34.09 31.9674 33.9283 31.8954 33.7845C31.8235 33.6406 31.7116 33.5209 31.5734 33.4398C31.4704 33.3923 31.3592 33.3658 31.246 33.3619C31.1328 33.358 31.0199 33.3767 30.914 33.4169C30.808 33.4571 30.7111 33.5181 30.6287 33.5963C30.5463 33.6745 30.4801 33.7684 30.434 33.8724C30.3409 34.0296 30.2669 34.195 30.1683 34.3576C30.097 34.4803 30.0164 34.5973 29.9272 34.7075C29.8784 34.7618 29.8327 34.8188 29.7904 34.8784C29.7792 34.8943 29.7713 34.9124 29.7673 34.9315C29.7633 34.9506 29.7632 34.9703 29.7671 34.9894C29.7709 35.0085 29.7786 35.0266 29.7897 35.0426C29.8008 35.0587 29.815 35.0722 29.8315 35.0825C29.8904 35.1183 29.9191 35.1045 30.0122 34.9611C30.1245 34.7957 30.1519 34.8206 30.2916 34.9061L30.3984 34.9804L32.7346 36.4936C32.7346 36.4936 32.9318 36.1049 32.9797 36.0278C33.0797 35.8707 33.1783 35.8072 33.2797 35.6308C33.4683 35.3997 33.5598 35.1036 33.5347 34.8056C33.5096 34.5075 33.37 34.2311 33.1455 34.0352ZM31.3706 33.9828C31.4468 34.0169 31.514 34.0684 31.567 34.1332C31.6201 34.198 31.6574 34.2742 31.6761 34.356C31.6948 34.4377 31.6944 34.5228 31.6749 34.6043C31.6554 34.6859 31.6173 34.7618 31.5637 34.8261L31.4639 34.9943L30.5407 34.3934C30.4723 34.3466 30.445 34.3328 30.482 34.2666L30.5271 34.1922C30.5626 34.1164 30.6144 34.0496 30.6788 33.9965C30.7432 33.9434 30.8185 33.9055 30.8993 33.8854C30.9801 33.8653 31.0644 33.8637 31.1459 33.8805C31.2274 33.8974 31.3042 33.9323 31.3706 33.9828ZM32.8949 34.5478C32.9723 34.5886 33.0405 34.6451 33.0951 34.7138C33.1497 34.7825 33.1895 34.8618 33.2121 34.9468C33.2346 35.0318 33.2393 35.1205 33.226 35.2075C33.2127 35.2944 33.1815 35.3776 33.1346 35.4517C33.0512 35.5894 32.9513 35.7162 32.8373 35.8294C32.8059 35.8624 32.8059 35.8624 32.7743 35.843L31.6582 35.1183L31.7513 34.9639C32.1102 34.3714 32.5156 34.3024 32.8949 34.5478ZM31.7623 31.7835C31.7404 31.8607 31.8266 31.8827 31.8843 31.9102L34.4492 33.1504L34.2574 33.6934L31.6501 32.4283C31.4829 32.3485 31.5186 32.3567 31.4214 32.5027C31.3803 32.5689 31.3433 32.6599 31.2611 32.6212C31.1789 32.5827 31.1625 32.5082 31.2119 32.4145C31.2803 32.2961 31.383 32.0949 31.4282 31.9929C31.472 31.8882 31.5392 31.7118 31.587 31.5822C31.6254 31.4802 31.6924 31.4472 31.7691 31.4857C31.8294 31.5161 31.8144 31.6016 31.7623 31.7835ZM35.2749 31.1248C35.1701 31.4425 34.9801 31.7248 34.7257 31.9405L34.482 31.7118C34.7236 31.544 34.9119 31.3095 35.0243 31.0366C35.1544 30.6231 35.0572 30.262 34.6984 30.1463C34.5258 30.083 34.3642 30.2152 34.2067 30.364C33.9856 30.6182 33.7377 30.8474 33.4673 31.0476C33.3462 31.1308 33.2073 31.184 33.0618 31.2027C32.9163 31.2214 32.7685 31.2051 32.6306 31.1551C32.3952 31.0409 32.2138 30.8384 32.1252 30.591C32.0366 30.3437 32.0479 30.0713 32.1567 29.8322C32.2454 29.5942 32.3511 29.3629 32.4731 29.1403C32.7018 29.2065 32.8661 29.2617 32.9975 29.3057C33.0674 29.3306 33.1346 29.3609 33.103 29.4683C33.0797 29.5373 33.0386 29.5758 32.7826 29.5455C32.6743 29.5235 32.5182 29.6145 32.4114 29.9506C32.3019 30.309 32.3662 30.6451 32.699 30.7555C32.9346 30.8382 33.2878 30.4082 33.4262 30.2483C33.5824 30.0505 33.7743 29.884 33.9918 29.7577C34.1019 29.7006 34.2225 29.6668 34.3462 29.6583C34.4698 29.6497 34.5938 29.6667 34.7107 29.7082C34.8417 29.762 34.9607 29.8418 35.0604 29.9428C35.1601 30.0438 35.2387 30.1639 35.2913 30.2961C35.3439 30.4283 35.3696 30.5698 35.3668 30.7121C35.364 30.8545 35.3327 30.9948 35.2749 31.1248Z" fill="white"/>
<path d="M67.6253 22.7132C67.6253 26.2713 64.3702 28.3631 60.8945 28.3631C58.9623 28.3425 57.0658 27.8367 55.3772 26.8915L55.7729 26.0757C57.3092 27.0654 59.0732 27.6397 60.8945 27.7431C63.6361 27.7431 66.2148 26.1556 66.2148 23.3334C66.2148 21.5007 64.8398 20.7565 63.0912 20.0069C61.6642 19.4032 60.0524 18.6618 58.583 17.9453C57.6661 17.5821 56.887 16.9361 56.3576 16.0998C55.8282 15.2636 55.5755 14.2801 55.6359 13.2904C55.5867 10.6797 57.3094 7.80237 62.097 7.80237C63.5426 7.85054 64.9817 8.01927 66.3996 8.30683C66.4571 9.41468 66.4846 10.5447 66.4846 11.4183C66.4846 11.7856 66.4846 11.8435 66.286 11.8435C66.1162 11.8435 66.0354 11.7856 65.8081 10.429C65.6136 9.32648 64.1593 8.42254 61.897 8.42254C59.7183 8.42254 56.9123 9.8943 56.9123 12.5765C56.9123 17.4878 67.6253 15.9362 67.6253 22.7132ZM78.2561 20.7978H72.8797L75.6802 14.244L78.2561 20.7978ZM83.123 27.8836L76.6483 12.0942C76.6258 12.0356 76.5864 11.9852 76.5351 11.9493C76.4839 11.9135 76.4231 11.8939 76.3607 11.8931H74.4929L74.8038 12.5463C74.9022 12.7007 74.959 12.8782 74.9683 13.0614C74.9777 13.2446 74.9394 13.4271 74.8572 13.5908L68.64 28.082L69.9958 27.8836L72.573 21.5282H78.5656L81.2291 28.1372L83.123 27.8836ZM95.1218 16.2476C95.1218 19.158 92.9774 21.1616 89.7236 21.1616C89.0169 21.1616 88.0804 20.6546 88.0804 20.3734C88.0804 20.3155 88.1693 20.1446 88.2556 20.1446C88.6794 20.3229 89.1269 20.4372 89.5839 20.4837C90.0817 20.5476 90.5874 20.496 91.0623 20.3328C91.5372 20.1695 91.9686 19.8989 92.3235 19.5419C92.6783 19.1848 92.9472 18.7507 93.1094 18.2728C93.2716 17.7949 93.323 17.286 93.2594 16.7851C93.2594 14.1917 92.1324 12.7337 88.3678 12.7337C87.6887 12.7337 87.5709 12.8742 87.5709 13.6018V27.8836L85.7057 28.1069V13.9959C85.7057 12.8743 85.6509 12.5628 84.3459 12.505C83.8433 12.4801 83.8132 12.2872 83.8132 12.1412C83.8085 12.1034 83.8126 12.065 83.8251 12.0291C83.8376 11.9931 83.8581 11.9605 83.8851 11.9338C83.9121 11.9072 83.9449 11.8871 83.9809 11.8753C84.0169 11.8634 84.0551 11.86 84.0925 11.8655C84.4174 11.8866 84.7401 11.9327 85.058 12.0033C85.7141 12.095 86.3758 12.1411 87.0382 12.1412C87.9982 12.1412 89.499 12.0308 90.4631 12.0308C91.6335 11.9806 92.7769 12.394 93.6478 13.1823C94.5188 13.9707 95.0479 15.0711 95.1218 16.2476ZM102.011 12.2349C102.011 12.3781 101.784 12.6042 101.05 12.7199C100.486 12.8026 100.431 13.4227 100.431 13.9574V27.9085L98.5591 28.082V13.9574C98.5591 13.3951 98.4714 12.8026 97.9976 12.7199C97.061 12.5463 96.9185 12.3781 96.9185 12.2349C96.9185 12.0667 96.9734 11.984 97.2582 12.0088C97.9375 12.0667 99.011 12.1219 99.5506 12.1219C100.087 12.1219 100.993 12.0667 101.675 12.0088C101.954 11.984 102.011 12.0667 102.011 12.2349ZM112.928 19.69L112.945 20.3155H107.966V26.1032C107.966 27.032 107.993 27.2304 108.702 27.3461C109.31 27.4456 109.925 27.4936 110.54 27.4895C111.439 27.502 112.337 27.4541 113.23 27.3461C113.621 27.2608 114.018 27.4013 114.191 26.3595C114.388 25.282 114.588 25.2268 114.725 25.2268C114.898 25.2268 114.898 25.282 114.898 25.5658C114.898 26.1583 114.869 26.8638 114.84 27.6025C114.813 28.1647 114.702 28.1924 114.191 28.1647C113.454 28.1372 112.181 28.082 111.162 28.0545C110.287 28.027 108.387 27.9993 107.656 27.9993L106.096 28.1069V13.9876C106.096 12.8577 106.009 12.5463 104.71 12.494C104.205 12.4663 104.205 12.2927 104.205 12.1522C104.2 12.1126 104.204 12.0723 104.216 12.0341C104.228 11.996 104.248 11.961 104.275 11.9316C104.302 11.9022 104.335 11.879 104.371 11.8638C104.408 11.8486 104.448 11.8416 104.487 11.8435C104.81 11.8647 105.131 11.9117 105.446 11.984C106.064 12.0772 106.689 12.1233 107.314 12.1219C108.053 12.1219 110.173 12.0942 111.05 12.0667C112.064 12.0392 112.661 12.0088 113.399 11.984C113.905 11.9537 114.018 11.9537 114.046 12.5215C114.079 13.2519 114.106 13.9876 114.106 14.5803C114.106 14.864 114.106 14.922 113.936 14.922C113.793 14.922 113.597 14.864 113.399 13.792C113.23 12.7447 112.828 12.8577 112.438 12.7722C112.137 12.7319 111.834 12.7144 111.53 12.7199H108.559C108.135 12.7199 107.966 12.8301 107.966 13.1113V19.69H112.928ZM132.395 12.1219C132.395 12.2624 132.362 12.4663 131.848 12.494C130.549 12.5463 130.494 12.8577 130.494 13.9876V27.8836L129.39 28.1069L119.259 14.2137H119.233V27.8561L118.357 28.1069V13.9876C118.357 12.8577 118.303 12.5463 116.996 12.494C116.486 12.4663 116.486 12.2624 116.486 12.1219C116.486 11.9261 116.577 11.8131 116.744 11.8435C117.705 11.9537 119.513 12.0088 120.223 12.0667C120.282 12.1522 120.366 12.2349 120.449 12.3533L129.586 25.1138V13.9876C129.586 12.8577 129.533 12.5463 128.232 12.494C127.722 12.4663 127.692 12.2624 127.692 12.1219C127.688 12.0837 127.692 12.0451 127.705 12.009C127.718 11.9728 127.738 11.94 127.765 11.9132C127.793 11.8863 127.826 11.8661 127.862 11.854C127.898 11.8419 127.937 11.8383 127.974 11.8435C128.371 11.8435 129.67 12.0667 130.152 12.0667C130.604 12.0667 131.737 11.8435 132.104 11.8435C132.143 11.8381 132.182 11.8415 132.218 11.8534C132.255 11.8653 132.288 11.8854 132.316 11.9122C132.344 11.9389 132.366 11.9717 132.379 12.008C132.393 12.0443 132.398 12.0832 132.395 12.1219ZM133.123 27.6439C132.981 27.6439 132.921 27.5887 132.921 27.4757C132.912 27.4298 132.916 27.3825 132.93 27.3382C132.945 27.2939 132.97 27.254 133.004 27.2222L142.72 12.8879H135.202C134.643 12.9166 134.107 13.1243 133.674 13.4806C133.653 13.4761 133.633 13.4672 133.615 13.4545C133.598 13.4418 133.583 13.4256 133.573 13.4069C133.562 13.3882 133.555 13.3675 133.553 13.346C133.55 13.3245 133.552 13.3027 133.559 13.2821L133.789 12.2101C133.818 12.0667 133.872 11.9537 133.983 11.9537C134.708 12.1144 135.451 12.171 136.191 12.1219H144.796L144.939 12.6317L135.529 26.5167C137.231 26.5 142.578 26.6958 144.924 26.9328L150.627 13.657C150.709 13.4928 150.746 13.3099 150.736 13.1266C150.725 12.9432 150.667 12.7659 150.567 12.6124L150.26 11.9592H152.123C152.185 11.9583 152.246 11.9772 152.297 12.0134C152.349 12.0495 152.387 12.1009 152.407 12.1604L158.888 27.947L156.992 28.2005L154.037 20.864L151.452 14.3074L148.647 20.8557L145.76 27.947C143.257 27.5529 134.523 27.1588 133.123 27.6439ZM147.92 20.8172H154.568V21.542H147.92V20.8172Z" fill="white"/>
<path d="M118.566 40.0377C118.266 40.0377 117.634 39.8944 117.127 39.9247L116.447 39.9716V34.3245C116.447 33.8945 116.447 33.8064 115.966 33.7815C115.741 33.7705 115.703 33.7237 115.703 33.6355C115.703 33.5363 115.754 33.4783 115.867 33.4783C115.998 33.4851 116.128 33.5045 116.255 33.5363C116.5 33.5729 116.748 33.5913 116.996 33.5913C117.219 33.5913 117.445 33.5803 117.665 33.5693C117.949 33.5583 118.266 33.5473 118.746 33.5473C119.171 33.5137 119.599 33.5696 120.001 33.7112C120.404 33.8529 120.773 34.0773 121.085 34.3702C121.397 34.663 121.645 35.018 121.813 35.4124C121.981 35.8069 122.066 36.2323 122.063 36.6616C122.086 37.1234 122.01 37.5849 121.841 38.0147C121.671 38.4446 121.412 38.8327 121.08 39.1529C120.749 39.4731 120.353 39.7178 119.919 39.8705C119.485 40.0231 119.024 40.0802 118.566 40.0377ZM118.502 33.8724H117.665C117.411 33.8724 117.302 33.9744 117.302 34.2693V39.2053C117.302 39.5526 117.311 39.5774 117.546 39.6491C117.906 39.7361 118.275 39.7731 118.644 39.7593C120.427 39.7593 121.12 38.5053 121.12 36.7911C121.12 35.2946 120.704 33.8724 118.502 33.8724Z" fill="white"/>
<path d="M125.044 33.8724C124.836 33.9056 124.836 34.1315 124.836 34.3134V39.8944L123.988 39.9605V34.3134C123.988 34.1233 123.976 33.9056 123.807 33.8724C123.45 33.82 123.339 33.8064 123.339 33.6905C123.339 33.5913 123.385 33.5363 123.529 33.5473C123.799 33.5693 124.222 33.5913 124.437 33.5913C124.651 33.5913 125.011 33.5693 125.278 33.5473C125.426 33.5363 125.472 33.5913 125.472 33.6905C125.472 33.7925 125.322 33.8284 125.044 33.8724Z" fill="white"/>
<path d="M135.224 40.1066C135.054 40.1607 134.874 40.173 134.698 40.1424C134.499 40.13 134.307 40.069 134.137 39.9648C133.966 39.8606 133.824 39.7164 133.722 39.5444L133.241 38.8224L131.714 36.353C131.465 36.4117 131.21 36.4349 130.954 36.4218H130.654V39.8724L129.757 39.9936V32.8583C129.757 32.3153 129.749 32.2022 129.13 32.1692C128.873 32.1582 128.818 32.1472 128.818 32.0342C128.818 31.8881 128.906 31.8633 129.007 31.8633C129.103 31.8633 129.278 31.8991 129.499 31.9321C129.84 31.9784 130.185 32.0051 130.53 32.0122C131.031 32.0122 131.549 31.9433 132.048 31.9433C132.308 31.9157 132.571 31.9427 132.82 32.0225C133.069 32.1023 133.299 32.2333 133.495 32.4071C133.691 32.5809 133.849 32.7938 133.96 33.0323C134.07 33.2707 134.13 33.5296 134.135 33.7925C134.126 34.2912 133.974 34.7766 133.698 35.191C133.422 35.6053 133.033 35.9311 132.578 36.1297L133.967 38.4144C134.258 39.0108 134.68 39.5321 135.202 39.9385C135.279 39.9936 135.29 40.0626 135.224 40.1176V40.1066ZM131.434 32.2354H130.941C130.754 32.2354 130.654 32.3843 130.654 32.6185V36.08C130.813 36.1047 130.974 36.1167 131.135 36.1159C131.419 36.1444 131.705 36.1074 131.972 36.0078C132.24 35.9082 132.481 35.7485 132.678 35.541C132.874 35.3334 133.021 35.0835 133.108 34.8101C133.194 34.5367 133.217 34.2472 133.175 33.9634C133.175 32.9134 132.758 32.2354 131.434 32.2354Z" fill="white"/>
<path d="M139.269 40.0378C138.833 40.0571 138.397 39.9862 137.989 39.8294C137.581 39.6726 137.209 39.4333 136.896 39.1262C136.584 38.8191 136.337 38.4507 136.171 38.0439C136.006 37.6371 135.925 37.2004 135.933 36.7608C135.937 36.3245 136.026 35.8931 136.196 35.4916C136.366 35.0901 136.613 34.7263 136.923 34.4212C137.233 34.1161 137.6 33.8757 138.003 33.7139C138.405 33.5521 138.836 33.4721 139.269 33.4784C139.704 33.4672 140.137 33.5438 140.542 33.7037C140.947 33.8635 141.317 34.1033 141.628 34.4089C141.94 34.7146 142.187 35.0799 142.356 35.4834C142.525 35.8868 142.613 36.3202 142.613 36.7581C142.613 37.1959 142.525 37.6294 142.356 38.0328C142.187 38.4363 141.94 38.8016 141.628 39.1072C141.317 39.4129 140.947 39.6527 140.542 39.8125C140.137 39.9723 139.704 40.0489 139.269 40.0378ZM139.269 33.7926C137.927 33.7926 136.873 34.7876 136.873 36.7498C136.873 38.4724 137.678 39.7264 139.269 39.7264C140.984 39.7264 141.669 38.4724 141.669 36.7498C141.669 34.7407 140.505 33.7926 139.269 33.7926Z" fill="white"/>
<path d="M151.731 33.7816C151.181 33.8064 151.194 34.0213 151.246 34.5257C151.313 35.1238 151.89 39.8808 151.89 39.8808L150.937 39.9716L150.374 34.7297L148.277 39.5885L147.887 39.6575L145.525 34.7076L145.122 39.8808L144.31 39.9827C144.805 33.5005 144.747 34.5725 144.772 34.3134C144.815 33.9056 144.772 33.8064 144.29 33.7816C144.054 33.7706 144.021 33.6824 144.021 33.6052C144.021 33.4784 144.112 33.4673 144.202 33.4784C144.469 33.5115 145.099 33.5364 145.333 33.5584C145.489 33.5694 145.554 33.6052 145.67 33.8285L148.121 38.9353L150.277 33.8533C150.301 33.7703 150.35 33.6972 150.418 33.6442C150.486 33.5913 150.569 33.5612 150.655 33.5584C150.9 33.5364 151.52 33.5252 151.775 33.4895C151.876 33.4784 152 33.5115 152 33.6246C152 33.7044 151.969 33.7706 151.731 33.7816Z" fill="white"/>
<path d="M158.134 39.9826L157.083 37.3892H154.774L153.763 39.8807L153.089 39.9744L155.593 34.2005C155.62 34.1437 155.631 34.0809 155.627 34.0181C155.623 33.9554 155.602 33.8948 155.568 33.8423L155.415 33.5005H156.236C156.273 33.5018 156.308 33.513 156.338 33.5329C156.369 33.5528 156.393 33.5806 156.409 33.6134L159 39.8724L158.134 39.9826ZM155.971 34.5698L154.952 37.0529H156.914L155.971 34.5698Z" fill="white"/>
<path d="M62.26 32.2684C61.9997 32.3153 61.9997 32.6405 61.9902 32.8444C61.9902 32.9216 61.9327 35.7548 61.7655 37.075C61.7853 37.8473 61.5006 38.5961 60.9736 39.1579C60.4466 39.7197 59.7201 40.0489 58.9528 40.0736C58.5546 40.0801 58.1591 40.0068 57.7893 39.8579C57.4196 39.709 57.083 39.4875 56.7993 39.2063C56.5155 38.9251 56.2903 38.5899 56.1366 38.2202C55.983 37.8504 55.9041 37.4536 55.9045 37.0528C55.8141 36.3998 55.7825 34.4127 55.7825 33.3901C55.7825 33.0621 55.7606 32.8444 55.7606 32.8444C55.7483 32.5963 55.7483 32.3042 55.5361 32.2684C55.0212 32.1802 54.9526 32.1692 54.9526 32.0893C54.9526 31.957 55.0321 31.9433 55.1759 31.957C55.5128 31.979 55.9689 32.0011 56.244 32.0011C56.5083 32.0011 56.8795 31.979 57.2123 31.957C57.3629 31.9433 57.4382 31.957 57.4382 32.0893C57.4382 32.1692 57.3368 32.2022 56.9247 32.2684C56.6877 32.3153 56.6439 32.5661 56.6577 32.8444C56.6577 32.8444 56.6877 35.4407 56.7534 36.7139C56.8672 38.6983 57.7094 39.7263 58.9528 39.7263C60.4852 39.7263 61.1904 38.4613 61.3027 36.8049C61.3945 35.4957 61.3945 34.3023 61.3945 33.098V32.8444C61.3945 32.5963 61.3821 32.3042 61.1698 32.2684C60.6536 32.1802 60.5865 32.1692 60.5865 32.0893C60.5865 31.957 60.6646 31.9433 60.8125 31.957C61.1465 31.979 61.4944 32.0011 61.7655 32.0011C62.0339 32.0011 62.212 31.979 62.5516 31.957C62.694 31.9433 62.7735 31.957 62.7735 32.0893C62.7735 32.1692 62.6735 32.2022 62.26 32.2684Z" fill="white"/>
<path d="M69.8752 33.7816C69.3959 33.8064 69.3959 33.8946 69.3959 34.3245V39.8724L68.8797 39.9826L64.9372 34.6166V39.8614L64.4757 39.9936V34.3245C64.4757 33.8946 64.4757 33.8064 63.9921 33.7816C63.7567 33.7706 63.7361 33.7237 63.7361 33.6465C63.7361 33.5473 63.7812 33.4673 63.9045 33.4783C64.2826 33.5252 64.8358 33.5473 65.1357 33.5693L68.9248 38.7866V34.3245C68.9248 33.8946 68.9248 33.8064 68.4429 33.7816C68.2182 33.7706 68.1731 33.7402 68.1731 33.6465C68.1709 33.624 68.1737 33.6013 68.1812 33.58C68.1887 33.5587 68.2008 33.5394 68.2167 33.5233C68.2325 33.5073 68.2516 33.4949 68.2727 33.4871C68.2938 33.4794 68.3163 33.4763 68.3387 33.4783C68.4976 33.4783 69.0153 33.5693 69.207 33.5693C69.3849 33.5693 69.8328 33.4783 69.9793 33.4783C70.0018 33.4762 70.0245 33.4791 70.0457 33.4868C70.0669 33.4945 70.0862 33.5068 70.1022 33.5229C70.1181 33.5389 70.1303 33.5584 70.138 33.5797C70.1456 33.6011 70.1485 33.6239 70.1464 33.6465C70.1464 33.7402 70.1012 33.7706 69.8752 33.7816Z" fill="white"/>
<path d="M72.9703 33.8724C72.7689 33.9056 72.7689 34.1315 72.7689 34.3134V39.8944L71.9158 39.9605V34.3134C71.9158 34.1233 71.9022 33.9056 71.7364 33.8724C71.3776 33.82 71.2654 33.8064 71.2654 33.6905C71.2654 33.5913 71.3132 33.5363 71.4529 33.5473C71.7255 33.5693 72.1514 33.5913 72.3649 33.5913C72.5786 33.5913 72.9387 33.5693 73.2057 33.5473C73.3496 33.5363 73.3976 33.5913 73.3976 33.6905C73.3976 33.7925 73.2496 33.8284 72.9703 33.8724Z" fill="white"/>
<path d="M80.2966 33.8284C80.203 33.8528 80.1176 33.902 80.0492 33.9707C79.9808 34.0395 79.9319 34.1255 79.9076 34.2197L77.6673 39.8944L77.0702 39.9605L74.8162 34.3355C74.7692 34.1877 74.7106 34.044 74.6409 33.9056C74.5944 33.8284 74.5245 33.7925 74.3807 33.7815C74.1576 33.7705 74.1151 33.7402 74.1151 33.6465C74.1131 33.6229 74.1164 33.5992 74.1248 33.5772C74.1332 33.5551 74.1465 33.5352 74.1636 33.519C74.1807 33.5029 74.2012 33.4908 74.2237 33.4837C74.2461 33.4767 74.2698 33.4748 74.293 33.4783C74.5587 33.5114 75.0065 33.5251 75.2421 33.5473C75.4899 33.5693 75.5556 33.7485 75.6242 33.9414L77.5523 39.0703L79.4667 34.2087C79.48 34.1742 79.4855 34.1372 79.4828 34.1003C79.4802 34.0635 79.4694 34.0277 79.4513 33.9955C79.4332 33.9633 79.4083 33.9356 79.3783 33.9143C79.3482 33.893 79.3139 33.8787 79.2777 33.8724C78.8532 33.8063 78.7957 33.7402 78.7957 33.6823C78.7957 33.5913 78.8286 33.5363 78.9874 33.5473C79.2544 33.5693 79.5366 33.5913 79.7475 33.5913C79.9638 33.5913 80.1377 33.5693 80.4089 33.5473C80.565 33.5363 80.6006 33.5913 80.6006 33.6823C80.6006 33.7485 80.5308 33.7815 80.2966 33.8284Z" fill="white"/>
<path d="M85.1059 39.7263C85.0976 39.9826 85.0183 40.0046 84.7936 39.9936C83.9309 39.9605 83.0695 39.8724 82.2028 39.9247L81.533 39.9716V34.3134C81.533 33.8835 81.5235 33.7925 81.0359 33.7705C80.8155 33.7595 80.7812 33.7237 80.7812 33.6355C80.7812 33.5363 80.8387 33.4783 80.9511 33.4783C81.0831 33.4856 81.2142 33.505 81.3427 33.5363C81.5838 33.5731 81.8273 33.5915 82.0712 33.5913C82.8792 33.5913 83.6761 33.5693 84.476 33.5363C84.7033 33.5251 84.7799 33.5363 84.7936 33.7925C84.8045 34.0901 84.8155 34.3795 84.8155 34.6056C84.8155 34.7765 84.7799 34.7985 84.695 34.7985C84.5005 34.7985 84.5444 34.1123 84.3554 33.9854C84.1472 33.9055 83.9265 33.8634 83.7036 33.8614H82.5643C82.3971 33.8614 82.3848 33.8945 82.3848 33.9634V36.5927H83.5804C83.731 36.5927 84.0418 36.5789 84.0775 36.386C84.1528 35.9698 84.1898 35.8898 84.2896 35.8898C84.4116 35.8898 84.4238 35.9698 84.4116 36.08C84.3883 36.3418 84.3663 36.532 84.3663 36.7388C84.3663 36.94 84.3883 37.1439 84.4116 37.4001C84.4238 37.516 84.4116 37.5932 84.2896 37.5932C84.1898 37.5932 84.1528 37.516 84.0775 37.0998C84.0418 36.9068 83.772 36.8848 83.5804 36.8848H82.3848V39.1833C82.3848 39.5444 82.3971 39.5885 82.6313 39.6216C82.8678 39.6628 83.1076 39.6821 83.3476 39.6795C83.7868 39.6936 84.2262 39.6594 84.658 39.5774C84.8498 39.4534 84.8045 38.7313 85.0059 38.7313C85.0976 38.7313 85.1292 38.7534 85.1292 38.9216C85.1292 39.1503 85.1182 39.4286 85.1059 39.7263Z" fill="white"/>
<path d="M91.3452 40.0956C91.1593 40.1049 90.9742 40.065 90.8084 39.9799C90.6426 39.8947 90.5019 39.7674 90.4003 39.6104L90.0059 39.0373L88.7432 37.0998C88.5897 37.1376 88.4315 37.1524 88.2736 37.1439H88.038V39.8807L87.1849 39.9826V34.3245C87.1849 33.9055 87.1739 33.8063 86.6946 33.7815C86.47 33.7705 86.4331 33.7236 86.4331 33.6465C86.4313 33.6237 86.4345 33.6008 86.4424 33.5793C86.4503 33.5579 86.4628 33.5385 86.479 33.5225C86.4952 33.5065 86.5147 33.4942 86.5361 33.4865C86.5575 33.4789 86.5803 33.4761 86.6029 33.4783C86.7354 33.4854 86.8669 33.5048 86.9959 33.5363C87.3045 33.5727 87.615 33.5911 87.9257 33.5913C88.3297 33.5913 88.7432 33.5473 89.1486 33.5473C89.36 33.5236 89.5739 33.5436 89.7773 33.606C89.9807 33.6683 90.1693 33.7718 90.3316 33.9101C90.4939 34.0484 90.6264 34.2185 90.7211 34.4101C90.8158 34.6017 90.8707 34.8107 90.8823 35.0244C90.8639 35.4343 90.7272 35.8298 90.4888 36.1627C90.2505 36.4956 89.9208 36.7513 89.5403 36.8986C90.9727 39.0483 90.6591 38.5743 91.211 39.4204C91.3211 39.5766 91.4483 39.7199 91.5903 39.8475C91.6697 39.9137 91.745 39.9247 91.745 40.0157C91.745 40.0956 91.5027 40.0956 91.3452 40.0956ZM88.6556 33.8394H88.3297C88.1051 33.8394 88.038 33.9496 88.038 34.1123V36.8269C88.1649 36.8422 88.2924 36.8505 88.4202 36.8518C89.8196 36.8518 89.9745 35.8898 89.9745 35.1816C89.9745 34.3437 89.7073 33.8394 88.6556 33.8394Z" fill="white"/>
<path d="M94.4483 40.0377C93.8656 40.0317 93.296 39.8639 92.8022 39.5526L92.9707 39.1613C93.3983 39.49 93.9117 39.6863 94.4483 39.7263C95.3 39.7263 95.9641 39.2935 95.9641 38.4503C95.9641 38.001 95.5712 37.7392 95.2206 37.5352C94.6351 37.2678 94.0835 36.931 93.5773 36.532C93.3618 36.357 93.1897 36.1339 93.0746 35.8804C92.9596 35.6269 92.9047 35.3499 92.9144 35.0714C92.9366 34.8359 93.0054 34.6073 93.1168 34.399C93.2281 34.1907 93.3797 34.0069 93.5627 33.8585C93.7457 33.71 93.9564 33.5999 94.1823 33.5346C94.4082 33.4693 94.6448 33.4502 94.8782 33.4783C95.3178 33.4945 95.7551 33.5508 96.1847 33.6465C96.2092 34.0433 96.2092 34.3879 96.2092 34.6606C96.2092 34.7875 96.2092 34.8537 96.0971 34.8537C95.9847 34.8537 95.9518 34.7875 95.8847 34.3658C95.8299 34.0681 95.504 33.82 94.818 33.82C94.0771 33.82 93.439 34.1646 93.439 34.9666C93.448 35.0793 93.4824 35.1886 93.5395 35.286C93.5967 35.3834 93.6752 35.4665 93.769 35.5289C94.0966 35.7919 94.4612 36.0045 94.8508 36.1599C95.2892 36.3437 95.6924 36.603 96.0422 36.9261C96.3621 37.2763 96.5344 37.7377 96.5229 38.2132C96.5161 38.4736 96.4556 38.7298 96.3455 38.9655C96.2353 39.2013 96.0778 39.4115 95.8829 39.5829C95.6879 39.7544 95.4598 39.8833 95.2129 39.9615C94.966 40.0398 94.7056 40.0658 94.4483 40.0377Z" fill="white"/>
<path d="M99.448 33.8724C99.248 33.9056 99.248 34.1315 99.248 34.3134V39.8944L98.3894 39.9605V34.3134C98.3894 34.1233 98.384 33.9056 98.2141 33.8724C97.8554 33.82 97.7417 33.8064 97.7417 33.6905C97.7417 33.5913 97.7911 33.5363 97.9348 33.5473C98.2005 33.5693 98.6264 33.5913 98.8386 33.5913C99.0577 33.5913 99.4152 33.5693 99.6863 33.5473C99.8287 33.5363 99.8712 33.5913 99.8712 33.6905C99.8712 33.7925 99.7287 33.8284 99.448 33.8724Z" fill="white"/>
<path d="M106.333 34.0323L105.975 33.9634H103.97V39.8944L103.112 39.9825V33.9634C102.587 33.9495 101.538 33.9634 101.538 33.9634C101.069 33.9634 101.009 34.0681 100.968 34.3023C100.946 34.4127 100.968 34.7985 100.798 34.7985H100.775C100.663 34.7985 100.642 34.7296 100.642 34.6056C100.642 34.3823 100.642 34.0901 100.65 33.7925C100.663 33.5334 100.741 33.5251 100.968 33.5334C101.258 33.5473 101.505 33.5583 101.906 33.5693C103.104 33.6133 104.327 33.5913 105.525 33.5913C105.838 33.5913 106.192 33.4782 106.351 33.4782C106.367 33.4765 106.383 33.4781 106.398 33.4829C106.414 33.4877 106.428 33.4957 106.44 33.5064C106.452 33.517 106.461 33.5301 106.468 33.5447C106.475 33.5593 106.478 33.5752 106.479 33.5913C106.479 33.7595 106.421 33.7815 106.333 34.0323Z" fill="white"/>
<path fill-rule="evenodd" clip-rule="evenodd" d="M109.786 33.076H110.105L108.785 31.7476C108.637 31.6015 108.542 31.5437 108.442 31.5437C108.399 31.5426 108.357 31.5505 108.317 31.5669C108.277 31.5832 108.241 31.6077 108.211 31.6388C108.182 31.6699 108.158 31.7069 108.143 31.7474C108.128 31.7879 108.122 31.8311 108.125 31.8743C108.125 32.0122 108.19 32.0839 108.514 32.2823L109.786 33.076ZM109.339 34.5698L108.319 37.0529H110.283L109.339 34.5698ZM111.502 39.9826L110.447 37.3891H108.141L107.13 39.8807L106.455 39.9716L108.957 34.2005C108.984 34.1434 108.996 34.0802 108.993 34.0171C108.989 33.9539 108.969 33.8928 108.935 33.8394L108.779 33.5004H109.609C109.644 33.5035 109.678 33.5154 109.708 33.5351C109.737 33.5549 109.761 33.5818 109.777 33.6133L112.367 39.8724L111.502 39.9826Z" fill="white"/>
</g>
<defs>
<clipPath id="clip0_251_2">
<rect width="159" height="48" fill="white"/>
</clipPath>
</defs>
</svg>
