<svg width="245" height="199" viewBox="0 0 245 199" fill="none" xmlns="http://www.w3.org/2000/svg">
<rect x="124.5" y="1.5" width="119" height="173" rx="8.5" stroke="white" stroke-width="3"/>
<rect x="1.5" y="197.5" width="119" height="173" rx="8.5" transform="rotate(-90 1.5 197.5)" fill="black" stroke="white" stroke-width="3"/>
<path d="M68.9393 58.0607C69.5251 58.6464 70.4749 58.6464 71.0607 58.0607L80.6066 48.5147C81.1924 47.9289 81.1924 46.9792 80.6066 46.3934C80.0208 45.8076 79.0711 45.8076 78.4853 46.3934L70 54.8787L61.5147 46.3934C60.9289 45.8076 59.9792 45.8076 59.3934 46.3934C58.8076 46.9792 58.8076 47.9289 59.3934 48.5147L68.9393 58.0607ZM71.5 57V40H68.5V57H71.5ZM93 18.5H95V15.5H93V18.5ZM71.5 40C71.5 28.1259 81.1259 18.5 93 18.5V15.5C79.469 15.5 68.5 26.469 68.5 40H71.5Z" fill="white"/>
</svg>
